<svg width="927" height="806" viewBox="0 0 927 806" fill="none" xmlns="http://www.w3.org/2000/svg">
<path d="M588.389 230.15C558.013 96.1446 494.7 60.4707 478.55 35.2529C471.89 24.1438 465.99 12.5964 460.891 0.690002C460.038 12.5946 458.471 20.0944 448.352 29.122C428.035 47.2368 341.747 117.553 334.485 269.812C327.719 411.774 438.848 499.312 453.53 508.36C464.82 513.915 478.57 508.479 485.276 503.379C538.846 466.614 612.04 368.6 588.449 230.15" fill="#10AA50"/>
<path d="M465.495 432.766C462.698 467.904 460.694 488.32 453.591 508.399C453.591 508.399 458.253 541.851 461.527 577.287H473.114C475.878 552.333 480.098 527.563 485.753 503.102C470.753 495.721 466.071 463.598 465.495 432.766Z" fill="#B8C4C2"/>
<path d="M485.733 503.122C470.574 496.118 466.189 463.321 465.515 432.766C469.263 382.363 470.356 331.798 468.788 281.28C467.995 254.773 469.165 35.7687 462.261 3.70581C466.984 14.5652 472.426 25.0976 478.55 35.233C494.701 60.4707 558.033 96.1446 588.389 230.15C612.04 368.362 539.243 466.118 485.733 503.122Z" fill="#12924F"/>
<path d="M910.272 752.857C907.001 752.857 903.802 751.889 901.079 750.076C898.356 748.263 896.23 745.686 894.968 742.668C893.706 739.65 893.364 736.326 893.986 733.114C894.608 729.902 896.165 726.946 898.462 724.617C900.759 722.288 903.694 720.69 906.897 720.024C910.1 719.358 913.428 719.654 916.463 720.875C919.498 722.095 922.105 724.186 923.955 726.883C925.805 729.581 926.817 732.766 926.862 736.037C926.922 738.242 926.535 740.437 925.725 742.49C924.915 744.542 923.699 746.41 922.15 747.981C920.6 749.552 918.75 750.793 916.709 751.631C914.668 752.469 912.478 752.886 910.272 752.857ZM910.272 721.177C907.283 721.157 904.355 722.025 901.86 723.67C899.365 725.316 897.414 727.665 896.254 730.42C895.095 733.175 894.779 736.212 895.347 739.146C895.915 742.081 897.342 744.781 899.445 746.904C901.549 749.028 904.236 750.479 907.165 751.074C910.094 751.669 913.134 751.382 915.9 750.248C918.665 749.114 921.032 747.185 922.701 744.705C924.369 742.225 925.264 739.306 925.272 736.317C925.311 734.33 924.951 732.355 924.212 730.51C923.474 728.665 922.373 726.986 920.974 725.574C919.575 724.163 917.907 723.046 916.069 722.29C914.231 721.535 912.259 721.156 910.272 721.177ZM914.272 746.757L909.992 737.527H906.542V746.757H904.032V725.757H910.222C914.832 725.757 916.752 727.757 916.752 731.627C916.752 734.707 915.302 736.627 912.602 737.217L917.022 746.727L914.272 746.757ZM906.642 735.357H910.272C913.212 735.357 914.332 734.357 914.332 731.677C914.332 728.997 913.262 728.087 909.952 728.087H906.642V735.357Z" fill="#21313C"/>
<path d="M663.362 737.737C667.852 741.327 676.822 742.807 684.732 742.807C694.982 742.807 705.032 740.907 714.852 732.037C724.852 722.947 731.732 709.037 731.732 686.827C731.732 665.487 723.612 648.167 706.952 638.027C697.552 632.117 685.372 629.787 671.482 629.787C667.482 629.787 663.362 629.997 661.022 631.057C660.063 631.814 659.383 632.87 659.092 634.057C658.672 637.857 658.672 666.797 658.672 683.907C658.672 701.447 658.672 725.907 659.092 728.907C659.312 731.447 660.592 735.907 663.362 737.777M620.722 620.287C624.352 620.287 638.152 620.917 644.572 620.917C656.572 620.917 664.862 620.287 687.292 620.287C706.092 620.287 721.912 625.357 733.222 635.067C746.902 646.907 754.222 663.377 754.222 683.447C754.222 711.967 741.222 728.447 728.152 737.737C715.152 747.457 698.242 752.947 674.152 752.947C661.332 752.947 639.322 752.527 620.952 752.317H620.572C619.712 750.627 622.142 744.037 623.642 743.867C628.642 743.307 629.962 743.107 632.262 742.157C636.142 740.567 637.052 738.587 637.482 731.617C638.122 718.517 637.912 702.887 637.912 685.137C637.912 672.467 638.122 647.747 637.702 639.927C637.052 633.387 634.292 631.697 628.702 630.427C624.738 629.585 620.732 628.951 616.702 628.527C616.282 627.257 619.562 621.527 620.632 620.287" fill="#21313C"/>
<path d="M807.172 631.007C806.322 631.217 805.252 633.337 805.252 634.387C805.032 641.997 804.822 661.847 804.822 675.577C804.876 675.839 805.007 676.08 805.197 676.269C805.388 676.457 805.629 676.585 805.892 676.637C808.662 676.847 815.502 677.067 821.272 677.067C829.392 677.067 834.092 676.007 836.652 674.737C843.492 671.357 846.652 663.957 846.652 655.937C846.652 637.557 833.832 630.587 814.822 630.587C812.252 630.554 809.683 630.695 807.132 631.007M855.632 715.507C855.632 696.917 841.952 686.357 816.952 686.357C815.892 686.357 807.952 686.147 806.062 686.567C805.422 686.777 804.782 687.197 804.782 687.627C804.782 700.937 804.562 722.267 805.212 730.717C805.642 734.307 808.212 739.377 811.402 740.857C814.822 742.757 822.512 743.177 827.852 743.177C842.592 743.177 855.632 734.947 855.632 715.507ZM768.572 620.657C770.502 620.657 776.182 621.287 790.712 621.287C804.382 621.287 815.492 620.867 828.712 620.867C845.162 620.867 867.802 626.787 867.802 651.287C867.802 663.287 859.262 673.047 848.152 677.697C847.512 677.907 847.512 678.327 848.152 678.537C863.962 682.537 877.842 692.267 877.842 710.857C877.842 729.027 866.522 740.437 850.072 747.617C840.072 752.057 827.642 753.527 815.072 753.527C805.462 753.527 779.702 752.527 765.382 752.687C763.882 752.057 766.752 745.287 768.032 744.237C771.313 744.136 774.568 743.625 777.722 742.717C782.842 741.457 783.452 739.807 784.092 732.197C784.522 725.647 784.522 702.197 784.522 685.507C784.522 662.687 784.742 647.277 784.522 639.667C784.312 633.757 782.172 631.847 778.112 630.797C774.912 630.157 769.572 629.527 765.302 628.897C764.232 627.837 767.522 621.497 768.582 620.657" fill="#21313C"/>
<path d="M2.32212 752.857C1.77189 751.505 1.54918 750.042 1.67212 748.587C1.6242 747.595 1.84901 746.61 2.32212 745.737C5.0853 745.338 7.82318 744.781 10.5221 744.067C14.3021 743.127 15.7221 741.067 15.9421 736.247C16.5621 724.857 16.6021 703.487 16.3821 688.467V688.027C16.3821 686.407 16.3821 684.207 14.3821 682.657C10.8669 680.451 7.05054 678.767 3.05211 677.657C1.26211 677.127 0.272119 676.187 0.322119 675.087C0.372119 673.987 1.50211 672.687 3.83211 672.227C10.0221 671.597 26.2421 667.727 32.6121 664.787C33.268 665.642 33.5722 666.715 33.4621 667.787C33.4621 668.447 33.3621 669.147 33.2921 669.867C33.1121 671.987 32.9121 674.397 32.9121 676.797C32.9513 677.088 33.0711 677.363 33.258 677.59C33.4449 677.818 33.6915 677.988 33.97 678.083C34.2486 678.177 34.548 678.192 34.8346 678.126C35.1212 678.059 35.3835 677.914 35.5921 677.707C47.7221 668.197 58.5921 664.807 64.1621 664.807C73.3321 664.807 80.4721 669.187 86.0021 678.207C86.1289 678.425 86.3095 678.606 86.5267 678.734C86.7438 678.862 86.9902 678.932 87.2421 678.937C87.4712 678.935 87.6962 678.877 87.8982 678.769C88.1002 678.661 88.2731 678.506 88.4021 678.317C99.5521 669.857 110.602 664.807 118.002 664.807C135.482 664.807 145.932 677.897 145.932 699.807C145.932 706.107 145.872 714.097 145.812 721.547C145.762 728.087 145.712 734.217 145.712 738.457C145.712 739.457 147.092 742.337 149.162 742.907C151.722 744.157 155.412 744.797 160.082 745.597H160.262C160.612 746.857 159.872 751.747 159.162 752.747C158.002 752.747 156.402 752.647 154.402 752.547C150.772 752.367 145.792 752.117 140.002 752.117C128.382 752.117 122.312 752.337 116.512 752.717C116.072 751.267 115.922 746.587 116.452 745.607C118.854 745.231 121.231 744.714 123.572 744.057C127.272 742.837 128.342 741.157 128.572 736.247C128.662 732.757 129.332 702.007 128.142 694.707C127.042 687.137 121.342 678.277 108.872 678.277C104.242 678.277 96.7721 680.207 89.6521 685.607C89.2105 686.107 88.9622 686.749 88.9521 687.417V687.567C89.7921 691.507 89.7921 696.107 89.7921 703.057C89.7921 707.057 89.7921 711.227 89.7421 715.397C89.6921 723.877 89.6521 731.877 89.7921 737.927C89.7921 742.047 92.2821 743.037 94.2921 743.827C95.3821 744.067 96.2421 744.277 97.1121 744.477C98.7821 744.887 100.522 745.307 103.112 745.717C103.496 747.474 103.461 749.296 103.012 751.037C102.906 751.69 102.649 752.31 102.262 752.847C95.8021 752.627 89.1721 752.437 79.6021 752.437C76.7021 752.437 71.9721 752.557 67.7921 752.667C64.4021 752.757 61.2021 752.847 59.3821 752.857C58.8899 751.695 58.6709 750.436 58.7421 749.177C58.64 747.99 58.872 746.799 59.4121 745.737L61.9821 745.267C64.2221 744.867 66.1621 744.527 67.9821 744.067C71.1421 743.067 72.3321 741.347 72.5621 737.317C73.1821 727.917 73.6621 700.827 72.3321 694.047C70.0721 683.167 63.8821 677.647 53.9221 677.647C48.0921 677.647 40.7221 680.457 34.7021 684.967C34.1231 685.531 33.6669 686.208 33.3623 686.957C33.0577 687.705 32.9112 688.509 32.9321 689.317C32.9321 692.547 32.9321 696.387 32.9321 700.507C32.9321 714.107 32.8421 731.037 33.1721 738.357C33.3721 740.617 34.1721 743.297 38.4021 744.277C39.3321 744.547 40.9321 744.807 42.7921 745.117C43.8621 745.297 45.0321 745.487 46.2421 745.707C46.6268 748.101 46.4313 750.553 45.6721 752.857C43.8121 752.857 41.5221 752.737 38.9021 752.627C34.9021 752.447 29.9021 752.227 24.2521 752.227C17.5721 752.227 12.9221 752.447 9.19211 752.627C6.68211 752.747 4.51212 752.847 2.34212 752.857" fill="#21313C"/>
<path d="M216.773 673.847C213.163 673.772 209.613 674.771 206.573 676.717C199.153 681.227 195.373 690.237 195.373 703.477C195.373 728.257 207.783 745.567 225.553 745.567C230.317 745.718 234.965 744.072 238.573 740.957C244.033 736.507 246.933 727.407 246.933 714.667C246.933 690.257 234.803 673.847 216.753 673.847M220.173 754.757C188.073 754.757 176.643 731.207 176.643 709.177C176.643 693.787 182.933 681.757 195.343 673.407C204.035 668.026 214.012 665.077 224.233 664.867C248.723 664.867 265.833 682.477 265.833 707.707C265.833 724.847 259.003 738.387 246.073 746.847C239.863 750.647 229.073 754.757 220.173 754.757Z" fill="#21313C"/>
<path d="M543.572 673.847C539.955 673.765 536.397 674.764 533.352 676.717C525.932 681.227 522.152 690.237 522.152 703.477C522.152 728.257 534.562 745.567 552.332 745.567C557.11 745.728 561.774 744.082 565.392 740.957C570.852 736.507 573.742 727.407 573.742 714.667C573.742 690.257 561.622 673.847 543.572 673.847ZM546.992 754.757C514.892 754.757 503.462 731.207 503.462 709.187C503.462 693.777 509.752 681.757 522.172 673.407C530.859 668.023 540.834 665.073 551.052 664.867C575.542 664.867 592.652 682.487 592.652 707.697C592.652 724.857 585.822 738.387 572.892 746.837C566.682 750.647 555.892 754.757 546.992 754.757Z" fill="#21313C"/>
<path d="M435.492 673.007C425.602 673.007 419.202 680.817 419.202 692.907C419.202 704.997 424.712 719.367 440.202 719.367C442.862 719.367 447.682 718.187 450.072 715.557C453.672 712.247 456.072 705.407 456.072 698.187C456.072 682.417 448.392 673.007 435.542 673.007M434.262 756.447C431.468 756.416 428.713 757.105 426.262 758.447C418.432 763.447 414.802 768.447 414.802 774.257C414.802 779.697 416.912 784.027 421.452 787.867C426.952 792.527 434.372 794.797 444.122 794.797C463.312 794.797 471.912 784.477 471.912 774.257C471.912 767.137 468.342 762.367 460.992 759.667C455.332 757.597 445.872 756.457 434.292 756.457M435.572 805.457C424.052 805.457 415.752 803.027 408.662 797.567C401.762 792.247 398.662 784.347 398.662 778.887C398.737 775.368 400.079 771.995 402.442 769.387C404.442 767.107 409.092 762.837 419.842 755.447C420.009 755.376 420.151 755.258 420.25 755.106C420.35 754.955 420.403 754.778 420.402 754.597C420.406 754.395 420.34 754.198 420.216 754.038C420.093 753.878 419.919 753.765 419.722 753.717C410.872 750.327 408.202 744.717 407.392 741.717C407.392 741.607 407.392 741.437 407.302 741.247C407.052 740.067 406.812 738.947 408.422 737.797C409.662 736.917 411.642 735.737 413.762 734.487C416.755 732.83 419.625 730.962 422.352 728.897C422.499 728.739 422.607 728.55 422.67 728.344C422.732 728.138 422.746 727.921 422.711 727.709C422.677 727.496 422.594 727.295 422.469 727.119C422.344 726.944 422.181 726.799 421.992 726.697C408.892 722.297 402.292 712.567 402.292 697.697C402.252 693.06 403.331 688.482 405.437 684.351C407.544 680.22 410.615 676.658 414.392 673.967C419.662 669.797 432.892 664.787 441.462 664.787H441.962C450.772 664.997 455.742 666.847 462.622 669.387C466.536 670.802 470.683 671.46 474.842 671.327C482.132 671.327 485.322 669.017 488.062 666.327C488.506 667.539 488.743 668.816 488.762 670.107C488.929 673.182 488.094 676.228 486.382 678.787C484.892 680.857 481.382 682.357 478.172 682.357C477.842 682.357 477.522 682.357 477.172 682.307C475.483 682.188 473.809 681.91 472.172 681.477L471.352 681.767C471.092 682.147 471.262 682.567 471.472 683.107C471.523 683.212 471.564 683.323 471.592 683.437C472.177 686.106 472.575 688.812 472.782 691.537C472.782 707.087 466.652 713.857 460.022 718.877C453.612 723.686 446 726.635 438.022 727.397C437.852 727.397 437.022 727.467 435.462 727.607C434.462 727.697 433.162 727.817 432.972 727.817H432.782C431.342 728.217 427.582 730.007 427.582 733.337C427.582 736.097 429.282 739.527 437.412 740.147L442.672 740.517C453.392 741.267 466.782 742.197 473.082 744.327C477.261 745.796 480.87 748.546 483.397 752.186C485.923 755.825 487.237 760.168 487.152 764.597C487.152 778.547 477.232 791.667 460.622 799.687C452.789 803.428 444.213 805.353 435.532 805.317" fill="#21313C"/>
<path d="M386.432 745.417C381.732 744.787 378.302 744.147 374.252 742.247C373.458 741.424 372.934 740.377 372.752 739.247C372.322 732.697 372.322 713.687 372.322 701.247C372.322 691.097 370.622 682.247 366.322 675.897C361.192 668.707 353.932 664.487 344.532 664.487C336.202 664.487 325.092 670.187 315.912 678.007C315.692 678.217 314.282 679.557 314.312 677.477C314.342 675.397 314.662 671.177 314.862 668.477C314.951 667.76 314.871 667.031 314.628 666.351C314.385 665.67 313.985 665.056 313.462 664.557C307.462 667.557 290.632 671.557 284.402 672.167C279.862 673.047 278.712 677.417 283.562 678.927H283.632C287.515 679.997 291.22 681.628 294.632 683.767C296.552 685.247 296.342 687.357 296.342 689.047C296.552 703.197 296.552 724.957 295.912 736.787C295.702 741.437 294.412 743.127 290.992 743.977L291.312 743.867C288.708 744.52 286.066 745.014 283.402 745.347C282.332 746.397 282.332 752.527 283.402 753.797C285.542 753.797 296.402 753.167 305.402 753.167C317.782 753.167 324.192 753.797 327.402 753.797C328.692 752.317 329.112 746.617 328.262 745.347C325.304 745.213 322.367 744.788 319.492 744.077C316.082 743.237 315.222 741.537 315.012 737.747C314.592 727.807 314.592 706.687 314.592 692.317C314.592 688.317 315.652 686.407 316.932 685.317C321.202 681.517 328.262 678.987 334.452 678.987C340.452 678.987 344.452 680.887 347.452 683.417C350.947 686.466 353.137 690.74 353.572 695.357C354.422 703.357 354.202 719.447 354.202 733.357C354.202 740.967 353.572 742.877 350.792 743.717C349.512 744.347 346.092 744.987 342.032 745.407C340.752 746.677 341.172 752.587 342.032 753.857C347.582 753.857 354.032 753.227 363.392 753.227C375.142 753.227 382.622 753.857 385.612 753.857C386.892 752.377 387.322 746.857 386.472 745.407" fill="#21313C"/>
</svg>
