<?xml version="1.0" encoding="UTF-8"?>
<svg id="Layer_1" data-name="Layer 1" xmlns="http://www.w3.org/2000/svg" xmlns:xlink="http://www.w3.org/1999/xlink" viewBox="0 0 361.23 369.22">
  <defs>
    <style>
      .cls-1 {
        fill: #b7b6e3;
      }

      .cls-2 {
        clip-path: url(#clippath-20);
      }

      .cls-3 {
        clip-path: url(#clippath-11);
      }

      .cls-4 {
        clip-path: url(#clippath-16);
      }

      .cls-5 {
        fill: #fff;
      }

      .cls-6 {
        fill: #1393f2;
      }

      .cls-7 {
        fill: #919dd6;
      }

      .cls-8 {
        fill: #05d4f5;
      }

      .cls-9 {
        fill: #eeeff2;
      }

      .cls-10 {
        clip-path: url(#clippath-2);
      }

      .cls-11 {
        clip-path: url(#clippath-13);
      }

      .cls-12 {
        isolation: isolate;
      }

      .cls-13 {
        clip-path: url(#clippath-25);
      }

      .cls-14 {
        clip-path: url(#clippath-15);
      }

      .cls-15 {
        fill: #cfc4b8;
        opacity: .3;
      }

      .cls-16 {
        clip-path: url(#clippath-6);
      }

      .cls-17 {
        fill: #6e95cf;
      }

      .cls-18 {
        clip-path: url(#clippath-26);
      }

      .cls-19 {
        clip-path: url(#clippath-7);
      }

      .cls-20 {
        clip-path: url(#clippath-21);
      }

      .cls-21 {
        clip-path: url(#clippath-1);
      }

      .cls-22 {
        clip-path: url(#clippath-4);
      }

      .cls-23 {
        clip-path: url(#clippath-27);
      }

      .cls-24 {
        fill: #4271a8;
      }

      .cls-25 {
        clip-path: url(#clippath-12);
      }

      .cls-26 {
        clip-path: url(#clippath-24);
      }

      .cls-27 {
        clip-path: url(#clippath-22);
      }

      .cls-28 {
        fill: #ebebf1;
      }

      .cls-29 {
        clip-path: url(#clippath-9);
      }

      .cls-30 {
        fill: #171c29;
      }

      .cls-31 {
        clip-path: url(#clippath);
      }

      .cls-32 {
        fill: #e4e3ee;
      }

      .cls-33 {
        fill: #d4d5f0;
      }

      .cls-34 {
        clip-path: url(#clippath-19);
      }

      .cls-35 {
        clip-path: url(#clippath-3);
      }

      .cls-36 {
        clip-path: url(#clippath-8);
      }

      .cls-37 {
        fill: #dad9e8;
      }

      .cls-38 {
        fill: #12b0f3;
      }

      .cls-39 {
        clip-path: url(#clippath-18);
      }

      .cls-40 {
        clip-path: url(#clippath-14);
      }

      .cls-41 {
        clip-path: url(#clippath-17);
      }

      .cls-42 {
        fill: #4d80bc;
      }

      .cls-43 {
        clip-path: url(#clippath-5);
      }

      .cls-44 {
        clip-path: url(#clippath-10);
      }

      .cls-45 {
        clip-path: url(#clippath-23);
      }

      .cls-46 {
        fill: #c4c3ec;
      }
    </style>
    <clipPath id="clippath">
      <path class="cls-6" d="M186.7,242.34v2.47c-1.27-.35-2.49-.68-3.65-.99-1.16-.31-2.23-.59-3.22-.84-.99-.25-1.85-.47-2.6-.66-.75-.19-1.34-.34-1.78-.44v-2.47c.44,.1,1.03,.25,1.78,.44,.75,.19,1.61,.41,2.6,.66,.99,.25,2.06,.53,3.22,.84,1.16,.31,2.37,.65,3.64,.99Z"/>
    </clipPath>
    <clipPath id="clippath-1">
      <path class="cls-6" d="M194.9,244.8v2.47c-1.07-.3-2.14-.59-3.19-.89v-2.47c1.06,.3,2.12,.59,3.19,.89Z"/>
    </clipPath>
    <clipPath id="clippath-2">
      <path class="cls-6" d="M197.98,245.69v2.47c-1-.29-2.02-.59-3.09-.89v-2.47c1.07,.3,2.1,.59,3.09,.89Z"/>
    </clipPath>
    <clipPath id="clippath-3">
      <path class="cls-6" d="M181.41,255.31v2.47c-1.53-1.81-2.91-3.5-4.16-5.06-1.25-1.56-2.4-3.05-3.45-4.46-1.05-1.41-2.03-2.77-2.92-4.06-.89-1.3-1.73-2.59-2.5-3.87v-2.47c.78,1.28,1.61,2.58,2.51,3.87,.9,1.3,1.87,2.65,2.92,4.06,1.05,1.41,2.2,2.9,3.45,4.46,1.25,1.56,2.63,3.25,4.15,5.06Z"/>
    </clipPath>
    <clipPath id="clippath-4">
      <path class="cls-37" d="M136.27,185.39l-8.49-4.93c-.93-.54-1.62-1.61-1.89-3.3l8.49,4.93c.27,1.69,.95,2.76,1.89,3.3Z"/>
    </clipPath>
    <clipPath id="clippath-5">
      <path class="cls-37" d="M143.58,96.81l8.49,4.93c-2.48-1.44-5.91-1.26-9.76,.96l-8.49-4.93c3.85-2.22,7.28-2.4,9.76-.96Z"/>
    </clipPath>
    <clipPath id="clippath-6">
      <path class="cls-28" d="M126.23,130.33l-8.49-4.93c-1.39-8.81,5.04-21.25,13.5-26.13l8.49,4.93c-8.46,4.88-14.88,17.32-13.5,26.13Z"/>
    </clipPath>
    <clipPath id="clippath-7">
      <path class="cls-17" d="M151.7,103.15l5.91,3.44c-2.51-1.46-5.99-1.25-9.82,.96l-5.91-3.44c3.84-2.22,7.31-2.42,9.82-.96Z"/>
    </clipPath>
    <clipPath id="clippath-8">
      <path class="cls-17" d="M138.06,140.24l-5.91-3.44c-2.48-1.44-4.02-4.5-4.03-8.86-.02-8.76,6.14-19.44,13.77-23.85l5.91,3.44c-7.63,4.4-13.79,15.08-13.77,23.85,.01,4.35,1.55,7.41,4.03,8.85Z"/>
    </clipPath>
    <clipPath id="clippath-9">
      <path class="cls-8" d="M149.17,113.32l-1.37-5.78c7.63-4.4,13.83-.87,13.85,7.9,.02,8.76-6.14,19.44-13.76,23.84-7.63,4.4-13.83,.87-13.86-7.89-.02-8.76,6.14-19.44,13.77-23.85l1.37,5.78c-5.22,3.01-9.46,10.35-9.44,16.35,.01,6,4.28,8.43,9.5,5.41,5.22-3.01,9.46-10.34,9.44-16.34-.01-6.01-4.27-8.44-9.5-5.42Z"/>
    </clipPath>
    <clipPath id="clippath-10">
      <path class="cls-17" d="M236.07,132.3l5.91,3.44c-2.51-1.46-5.99-1.25-9.82,.96l-5.91-3.44c3.84-2.22,7.31-2.42,9.82-.96Z"/>
    </clipPath>
    <clipPath id="clippath-11">
      <path class="cls-17" d="M222.42,169.4l-5.91-3.44c-2.48-1.44-4.02-4.5-4.03-8.85-.02-8.76,6.14-19.44,13.77-23.85l5.91,3.44c-7.63,4.4-13.79,15.08-13.77,23.85,.01,4.35,1.55,7.41,4.03,8.85Z"/>
    </clipPath>
    <clipPath id="clippath-12">
      <path class="cls-8" d="M233.53,142.48l-1.37-5.78c7.63-4.4,13.83-.86,13.85,7.9,.02,8.76-6.14,19.43-13.76,23.84-7.63,4.4-13.83,.87-13.86-7.89-.02-8.76,6.14-19.44,13.77-23.85l1.37,5.78c-5.22,3.01-9.46,10.35-9.44,16.35,.01,6,4.28,8.43,9.5,5.41,5.22-3.01,9.46-10.34,9.44-16.34-.01-6.01-4.27-8.44-9.5-5.42Z"/>
    </clipPath>
    <clipPath id="clippath-13">
      <path class="cls-37" d="M236.14,223.54l-8.49-4.93c-.93-.54-1.62-1.61-1.89-3.3l8.49,4.93c.27,1.69,.95,2.76,1.89,3.3Z"/>
    </clipPath>
    <clipPath id="clippath-14">
      <path class="cls-37" d="M243.45,134.96l8.49,4.93c-2.48-1.44-5.91-1.26-9.76,.96l-8.49-4.93c3.85-2.22,7.28-2.4,9.76-.96Z"/>
    </clipPath>
    <clipPath id="clippath-15">
      <path class="cls-28" d="M226.09,168.48l-8.49-4.93c-1.39-8.81,5.04-21.25,13.5-26.13l8.49,4.93c-8.46,4.88-14.89,17.32-13.5,26.13Z"/>
    </clipPath>
    <clipPath id="clippath-16">
      <path class="cls-37" d="M137.14,185.24l-8.49-4.93c-.93-.54-1.62-1.61-1.89-3.3l8.49,4.93c.27,1.69,.95,2.76,1.89,3.3Z"/>
    </clipPath>
    <clipPath id="clippath-17">
      <path class="cls-37" d="M144.44,96.66l8.49,4.93c-2.48-1.44-5.91-1.26-9.76,.96l-8.49-4.93c3.85-2.22,7.28-2.4,9.76-.96Z"/>
    </clipPath>
    <clipPath id="clippath-18">
      <path class="cls-28" d="M127.09,130.18l-8.49-4.93c-1.39-8.81,5.04-21.25,13.5-26.13l8.49,4.93c-8.46,4.88-14.89,17.32-13.5,26.13Z"/>
    </clipPath>
    <clipPath id="clippath-19">
      <path class="cls-17" d="M152.57,102.99l5.91,3.44c-2.51-1.46-5.99-1.25-9.82,.96l-5.91-3.44c3.84-2.22,7.31-2.42,9.82-.96Z"/>
    </clipPath>
    <clipPath id="clippath-20">
      <path class="cls-17" d="M138.92,140.09l-5.91-3.44c-2.48-1.44-4.02-4.5-4.03-8.86-.02-8.76,6.14-19.44,13.77-23.85l5.91,3.44c-7.63,4.4-13.79,15.08-13.77,23.85,.01,4.35,1.55,7.41,4.03,8.85Z"/>
    </clipPath>
    <clipPath id="clippath-21">
      <path class="cls-8" d="M150.03,113.17l-1.37-5.78c7.63-4.4,13.83-.87,13.85,7.9,.02,8.76-6.14,19.44-13.76,23.84-7.63,4.4-13.83,.87-13.86-7.89-.02-8.76,6.14-19.44,13.77-23.85l1.37,5.78c-5.22,3.01-9.46,10.35-9.44,16.35,.01,6,4.28,8.43,9.5,5.41,5.22-3.01,9.46-10.34,9.44-16.34-.01-6.01-4.27-8.44-9.5-5.42Z"/>
    </clipPath>
    <clipPath id="clippath-22">
      <path class="cls-17" d="M236.94,132.15l5.91,3.44c-2.51-1.46-5.99-1.25-9.82,.96l-5.91-3.44c3.84-2.22,7.31-2.42,9.82-.96Z"/>
    </clipPath>
    <clipPath id="clippath-23">
      <path class="cls-17" d="M223.29,169.25l-5.91-3.44c-2.48-1.44-4.02-4.5-4.03-8.85-.02-8.76,6.14-19.44,13.77-23.85l5.91,3.44c-7.63,4.4-13.79,15.08-13.77,23.85,.01,4.35,1.55,7.41,4.03,8.85Z"/>
    </clipPath>
    <clipPath id="clippath-24">
      <path class="cls-8" d="M234.4,142.33l-1.37-5.78c7.63-4.4,13.83-.86,13.85,7.9,.02,8.76-6.14,19.43-13.76,23.84-7.63,4.4-13.83,.87-13.86-7.89-.02-8.76,6.14-19.44,13.77-23.85l1.37,5.78c-5.22,3.01-9.46,10.35-9.44,16.35,.01,6,4.28,8.43,9.5,5.41,5.22-3.01,9.46-10.34,9.44-16.34-.01-6.01-4.27-8.44-9.5-5.42Z"/>
    </clipPath>
    <clipPath id="clippath-25">
      <path class="cls-37" d="M237,223.39l-8.49-4.93c-.93-.54-1.62-1.61-1.89-3.3l8.49,4.93c.27,1.69,.95,2.76,1.89,3.3Z"/>
    </clipPath>
    <clipPath id="clippath-26">
      <path class="cls-37" d="M244.31,134.81l8.49,4.93c-2.48-1.44-5.91-1.26-9.76,.96l-8.49-4.93c3.85-2.22,7.28-2.4,9.76-.96Z"/>
    </clipPath>
    <clipPath id="clippath-27">
      <path class="cls-28" d="M226.96,168.33l-8.49-4.93c-1.39-8.81,5.04-21.25,13.5-26.13l8.49,4.93c-8.46,4.88-14.89,17.32-13.5,26.13Z"/>
    </clipPath>
  </defs>
  <g>
    <g>
      <polygon class="cls-15" points="188.99 303.67 212.07 303.67 300.64 252.46 222.89 206.59 167.32 237.11 188.99 303.67"/>
      <g>
        <g class="cls-12">
          <polygon class="cls-32" points="104.34 232.84 108.47 230.44 114.07 233.67 109.94 236.07 104.34 232.84"/>
          <polygon class="cls-1" points="114.92 231.04 119.04 228.64 114.82 235.54 110.69 237.94 114.92 231.04"/>
          <polygon class="cls-7" points="124.68 235.25 128.81 232.85 128.8 234.28 124.68 236.68 124.68 235.25"/>
          <polygon class="cls-32" points="114.16 229.17 118.29 226.78 128.81 232.85 124.68 235.25 114.16 229.17"/>
          <polygon class="cls-7" points="124.68 235.25 124.68 236.68 114.92 231.04 110.69 237.94 104.34 234.27 104.34 232.84 109.94 236.07 114.16 229.17 124.68 235.25"/>
        </g>
        <g class="cls-12">
          <polygon class="cls-32" points="119.67 224.11 123.8 221.71 129.4 224.94 125.27 227.34 119.67 224.11"/>
          <polygon class="cls-1" points="130.25 222.31 134.37 219.91 130.15 226.81 126.02 229.21 130.25 222.31"/>
          <polygon class="cls-7" points="140.01 226.52 144.14 224.12 144.13 225.55 140.01 227.95 140.01 226.52"/>
          <polygon class="cls-32" points="129.49 220.44 133.62 218.04 144.14 224.12 140.01 226.52 129.49 220.44"/>
          <polygon class="cls-7" points="140.01 226.52 140.01 227.95 130.25 222.31 126.02 229.21 119.67 225.54 119.67 224.11 125.27 227.34 129.49 220.44 140.01 226.52"/>
        </g>
        <g class="cls-12">
          <polygon class="cls-32" points="134.35 215.36 138.48 212.97 144.08 216.2 139.95 218.6 134.35 215.36"/>
          <polygon class="cls-1" points="144.93 213.57 149.06 211.17 144.83 218.07 140.71 220.47 144.93 213.57"/>
          <polygon class="cls-7" points="154.69 217.77 158.82 215.37 158.82 216.8 154.69 219.2 154.69 217.77"/>
          <polygon class="cls-32" points="144.17 211.7 148.3 209.3 158.82 215.37 154.69 217.77 144.17 211.7"/>
          <polygon class="cls-7" points="154.69 217.77 154.69 219.2 144.93 213.57 140.71 220.47 134.35 216.8 134.35 215.36 139.95 218.6 144.17 211.7 154.69 217.77"/>
        </g>
        <g class="cls-12">
          <polygon class="cls-32" points="89.19 242.34 93.31 239.94 98.91 243.17 94.78 245.57 89.19 242.34"/>
          <polygon class="cls-1" points="99.76 240.54 103.89 238.14 99.67 245.04 95.54 247.44 99.76 240.54"/>
          <polygon class="cls-7" points="109.53 244.74 113.65 242.35 113.65 243.78 109.52 246.18 109.53 244.74"/>
          <polygon class="cls-32" points="99.01 238.67 103.14 236.27 113.65 242.35 109.53 244.74 99.01 238.67"/>
          <polygon class="cls-7" points="109.53 244.74 109.52 246.18 99.76 240.54 95.54 247.44 89.18 243.77 89.19 242.34 94.78 245.57 99.01 238.67 109.53 244.74"/>
        </g>
        <g class="cls-12">
          <polygon class="cls-32" points="150.67 206.14 154.8 203.74 160.4 206.97 156.27 209.37 150.67 206.14"/>
          <polygon class="cls-1" points="161.25 204.34 165.38 201.95 161.15 208.85 157.03 211.24 161.25 204.34"/>
          <polygon class="cls-7" points="171.01 208.55 175.14 206.15 175.14 207.58 171.01 209.98 171.01 208.55"/>
          <polygon class="cls-32" points="160.49 202.48 164.62 200.08 175.14 206.15 171.01 208.55 160.49 202.48"/>
          <polygon class="cls-7" points="171.01 208.55 171.01 209.98 161.25 204.34 157.03 211.24 150.67 207.57 150.67 206.14 156.27 209.37 160.49 202.48 171.01 208.55"/>
        </g>
        <g class="cls-12">
          <polygon class="cls-32" points="166.36 197.24 170.49 194.84 176.08 198.07 171.96 200.47 166.36 197.24"/>
          <polygon class="cls-1" points="176.94 195.44 181.06 193.04 176.84 199.94 172.71 202.34 176.94 195.44"/>
          <polygon class="cls-7" points="186.7 199.64 190.83 197.24 190.82 198.68 186.7 201.07 186.7 199.64"/>
          <polygon class="cls-32" points="176.18 193.57 180.31 191.17 190.83 197.24 186.7 199.64 176.18 193.57"/>
          <polygon class="cls-7" points="186.7 199.64 186.7 201.07 176.94 195.44 172.71 202.34 166.36 198.67 166.36 197.24 171.96 200.47 176.18 193.57 186.7 199.64"/>
        </g>
      </g>
      <g>
        <g class="cls-12">
          <polygon class="cls-32" points="272.35 233.05 268.22 230.66 262.63 233.89 266.75 236.29 272.35 233.05"/>
          <polygon class="cls-1" points="261.78 231.26 257.65 228.86 261.87 235.76 266 238.16 261.78 231.26"/>
          <polygon class="cls-7" points="252.01 235.46 247.89 233.06 247.89 234.49 252.02 236.89 252.01 235.46"/>
          <polygon class="cls-32" points="262.53 229.39 258.4 226.99 247.89 233.06 252.01 235.46 262.53 229.39"/>
          <polygon class="cls-7" points="252.01 235.46 252.02 236.89 261.78 231.26 266 238.16 272.36 234.49 272.35 233.05 266.75 236.29 262.53 229.39 252.01 235.46"/>
        </g>
        <g class="cls-12">
          <polygon class="cls-32" points="257.02 224.32 252.89 221.92 247.3 225.16 251.42 227.55 257.02 224.32"/>
          <polygon class="cls-1" points="246.45 222.53 242.32 220.13 246.54 227.03 250.67 229.43 246.45 222.53"/>
          <polygon class="cls-7" points="236.68 226.73 232.56 224.33 232.56 225.76 236.69 228.16 236.68 226.73"/>
          <polygon class="cls-32" points="247.2 220.66 243.07 218.26 232.56 224.33 236.68 226.73 247.2 220.66"/>
          <polygon class="cls-7" points="236.68 226.73 236.69 228.16 246.45 222.53 250.67 229.43 257.03 225.76 257.02 224.32 251.42 227.55 247.2 220.66 236.68 226.73"/>
        </g>
        <g class="cls-12">
          <polygon class="cls-32" points="242.34 215.58 238.21 213.18 232.62 216.41 236.74 218.81 242.34 215.58"/>
          <polygon class="cls-1" points="231.76 213.78 227.64 211.38 231.86 218.28 235.99 220.68 231.76 213.78"/>
          <polygon class="cls-7" points="222 217.99 217.87 215.59 217.88 217.02 222 219.42 222 217.99"/>
          <polygon class="cls-32" points="232.52 211.91 228.39 209.51 217.87 215.59 222 217.99 232.52 211.91"/>
          <polygon class="cls-7" points="222 217.99 222 219.42 231.76 213.78 235.99 220.68 242.34 217.01 242.34 215.58 236.74 218.81 232.52 211.91 222 217.99"/>
        </g>
        <g class="cls-12">
          <polygon class="cls-32" points="287.51 242.55 283.38 240.15 277.78 243.38 281.91 245.78 287.51 242.55"/>
          <polygon class="cls-1" points="276.93 240.75 272.8 238.36 277.03 245.26 281.15 247.65 276.93 240.75"/>
          <polygon class="cls-7" points="267.17 244.96 263.04 242.56 263.04 243.99 267.17 246.39 267.17 244.96"/>
          <polygon class="cls-32" points="277.69 238.89 273.56 236.49 263.04 242.56 267.17 244.96 277.69 238.89"/>
          <polygon class="cls-7" points="267.17 244.96 267.17 246.39 276.93 240.75 281.15 247.65 287.51 243.98 287.51 242.55 281.91 245.78 277.69 238.89 267.17 244.96"/>
        </g>
        <g class="cls-12">
          <polygon class="cls-32" points="226.02 206.36 221.89 203.96 216.29 207.19 220.42 209.59 226.02 206.36"/>
          <polygon class="cls-1" points="215.44 204.56 211.32 202.16 215.54 209.06 219.67 211.46 215.44 204.56"/>
          <polygon class="cls-7" points="205.68 208.76 201.55 206.36 201.56 207.8 205.68 210.19 205.68 208.76"/>
          <polygon class="cls-32" points="216.2 202.69 212.07 200.29 201.55 206.36 205.68 208.76 216.2 202.69"/>
          <polygon class="cls-7" points="205.68 208.76 205.68 210.19 215.44 204.56 219.67 211.46 226.02 207.79 226.02 206.36 220.42 209.59 216.2 202.69 205.68 208.76"/>
        </g>
        <g class="cls-12">
          <polygon class="cls-32" points="210.33 197.45 206.21 195.05 200.61 198.28 204.74 200.68 210.33 197.45"/>
          <polygon class="cls-1" points="199.76 195.65 195.63 193.25 199.85 200.15 203.98 202.55 199.76 195.65"/>
          <polygon class="cls-7" points="189.99 199.86 185.87 197.46 185.87 198.89 190 201.29 189.99 199.86"/>
          <polygon class="cls-32" points="200.51 193.78 196.39 191.39 185.87 197.46 189.99 199.86 200.51 193.78"/>
          <polygon class="cls-7" points="189.99 199.86 190 201.29 199.76 195.65 203.98 202.55 210.34 198.88 210.33 197.45 204.74 200.68 200.51 193.78 189.99 199.86"/>
        </g>
      </g>
      <g class="cls-12">
        <polygon class="cls-42" points="277.48 242.38 277.45 252.27 189 303.67 189.03 293.78 277.48 242.38"/>
        <polygon class="cls-24" points="189.03 293.78 189 303.67 99.97 252.27 100 242.38 189.03 293.78"/>
        <polygon class="cls-17" points="277.48 242.38 189.03 293.78 100 242.38 188.45 190.98 277.48 242.38"/>
      </g>
      <g>
        <polygon class="cls-33" points="256.28 239.87 256.27 244.82 188.94 283.94 188.95 279 256.28 239.87"/>
        <polygon class="cls-46" points="188.95 279 188.94 283.94 121.17 244.82 121.18 239.88 188.95 279"/>
        <polygon class="cls-5" points="256.28 239.87 188.95 279 121.18 239.88 188.51 200.75 256.28 239.87"/>
      </g>
      <g>
        <g class="cls-12">
          <polygon class="cls-46" points="92.74 267.88 88.61 265.48 92.78 253.73 96.91 256.13 92.74 267.88"/>
          <polygon class="cls-32" points="96.91 256.13 92.78 253.73 103.3 247.66 107.42 250.06 96.91 256.13"/>
          <polygon class="cls-32" points="87.14 271.11 83.01 268.71 88.61 265.48 92.74 267.88 87.14 271.11"/>
          <polygon class="cls-1" points="87.14 272.54 83.01 270.14 83.01 268.71 87.14 271.11 87.14 272.54"/>
          <polygon class="cls-7" points="107.42 250.06 107.43 251.49 97.67 257.13 93.5 268.87 87.14 272.54 87.14 271.11 92.74 267.88 96.91 256.13 107.42 250.06"/>
        </g>
        <g class="cls-12">
          <polygon class="cls-46" points="108.25 276.76 104.13 274.36 108.3 262.61 112.42 265.01 108.25 276.76"/>
          <polygon class="cls-32" points="112.42 265.01 108.3 262.61 118.82 256.54 122.94 258.94 112.42 265.01"/>
          <polygon class="cls-32" points="102.65 279.99 98.53 277.59 104.13 274.36 108.25 276.76 102.65 279.99"/>
          <polygon class="cls-1" points="102.66 281.42 98.53 279.02 98.53 277.59 102.65 279.99 102.66 281.42"/>
          <polygon class="cls-7" points="122.94 258.94 122.95 260.37 113.18 266.01 109.02 277.75 102.66 281.42 102.65 279.99 108.25 276.76 112.42 265.01 122.94 258.94"/>
        </g>
        <g class="cls-12">
          <polygon class="cls-46" points="123.65 285.73 119.52 283.33 123.69 271.59 127.82 273.99 123.65 285.73"/>
          <polygon class="cls-32" points="127.82 273.99 123.69 271.59 134.21 265.52 138.34 267.91 127.82 273.99"/>
          <polygon class="cls-32" points="118.05 288.96 113.92 286.56 119.52 283.33 123.65 285.73 118.05 288.96"/>
          <polygon class="cls-1" points="118.05 290.4 113.93 288 113.92 286.56 118.05 288.96 118.05 290.4"/>
          <polygon class="cls-7" points="138.34 267.91 138.34 269.34 128.58 274.98 124.41 286.73 118.05 290.4 118.05 288.96 123.65 285.73 127.82 273.99 138.34 267.91"/>
        </g>
        <g class="cls-12">
          <polygon class="cls-46" points="139.04 294.64 134.91 292.24 139.08 280.5 143.21 282.9 139.04 294.64"/>
          <polygon class="cls-32" points="143.21 282.9 139.08 280.5 149.6 274.42 153.73 276.82 143.21 282.9"/>
          <polygon class="cls-32" points="133.44 297.87 129.31 295.47 134.91 292.24 139.04 294.64 133.44 297.87"/>
          <polygon class="cls-1" points="133.44 299.31 129.31 296.91 129.31 295.47 133.44 297.87 133.44 299.31"/>
          <polygon class="cls-7" points="153.73 276.82 153.73 278.25 143.97 283.89 139.8 295.63 133.44 299.31 133.44 297.87 139.04 294.64 143.21 282.9 153.73 276.82"/>
        </g>
        <g class="cls-12">
          <polygon class="cls-46" points="154.62 303.49 150.49 301.09 154.66 289.34 158.79 291.74 154.62 303.49"/>
          <polygon class="cls-32" points="158.79 291.74 154.66 289.34 165.18 283.27 169.31 285.67 158.79 291.74"/>
          <polygon class="cls-32" points="149.02 306.72 144.89 304.32 150.49 301.09 154.62 303.49 149.02 306.72"/>
          <polygon class="cls-1" points="149.03 308.15 144.9 305.75 144.89 304.32 149.02 306.72 149.03 308.15"/>
          <polygon class="cls-7" points="169.31 285.67 169.32 287.1 159.55 292.74 155.38 304.48 149.03 308.15 149.02 306.72 154.62 303.49 158.79 291.74 169.31 285.67"/>
        </g>
        <g class="cls-12">
          <polygon class="cls-46" points="169.91 312.41 165.78 310.01 169.95 298.27 174.08 300.67 169.91 312.41"/>
          <polygon class="cls-32" points="174.08 300.67 169.95 298.27 180.47 292.19 184.6 294.59 174.08 300.67"/>
          <polygon class="cls-32" points="164.31 315.64 160.18 313.25 165.78 310.01 169.91 312.41 164.31 315.64"/>
          <polygon class="cls-1" points="164.31 317.08 160.18 314.68 160.18 313.25 164.31 315.64 164.31 317.08"/>
          <polygon class="cls-7" points="184.6 294.59 184.6 296.02 174.84 301.66 170.67 313.41 164.31 317.08 164.31 315.64 169.91 312.41 174.08 300.67 184.6 294.59"/>
        </g>
      </g>
      <g>
        <g class="cls-12">
          <polygon class="cls-46" points="285.05 268.04 289.18 265.64 285.01 253.9 280.88 256.29 285.05 268.04"/>
          <polygon class="cls-32" points="280.88 256.29 285.01 253.9 274.49 247.82 270.36 250.22 280.88 256.29"/>
          <polygon class="cls-32" points="290.65 271.27 294.77 268.87 289.18 265.64 285.05 268.04 290.65 271.27"/>
          <polygon class="cls-1" points="290.64 272.7 294.77 270.3 294.77 268.87 290.65 271.27 290.64 272.7"/>
          <polygon class="cls-7" points="270.36 250.22 270.36 251.65 280.12 257.29 284.29 269.03 290.64 272.7 290.65 271.27 285.05 268.04 280.88 256.29 270.36 250.22"/>
        </g>
        <g class="cls-12">
          <polygon class="cls-46" points="269.53 276.92 273.66 274.52 269.49 262.78 265.36 265.18 269.53 276.92"/>
          <polygon class="cls-32" points="265.36 265.18 269.49 262.78 258.97 256.7 254.84 259.1 265.36 265.18"/>
          <polygon class="cls-32" points="275.13 280.15 279.26 277.75 273.66 274.52 269.53 276.92 275.13 280.15"/>
          <polygon class="cls-1" points="275.13 281.58 279.25 279.19 279.26 277.75 275.13 280.15 275.13 281.58"/>
          <polygon class="cls-7" points="254.84 259.1 254.84 260.53 264.6 266.17 268.77 277.91 275.13 281.58 275.13 280.15 269.53 276.92 265.36 265.18 254.84 259.1"/>
        </g>
        <g class="cls-12">
          <polygon class="cls-46" points="254.14 285.89 258.26 283.49 254.09 271.75 249.97 274.15 254.14 285.89"/>
          <polygon class="cls-32" points="249.97 274.15 254.09 271.75 243.57 265.68 239.45 268.08 249.97 274.15"/>
          <polygon class="cls-32" points="259.74 289.13 263.86 286.73 258.26 283.49 254.14 285.89 259.74 289.13"/>
          <polygon class="cls-1" points="259.73 290.56 263.86 288.16 263.86 286.73 259.74 289.13 259.73 290.56"/>
          <polygon class="cls-7" points="239.45 268.08 239.44 269.51 249.21 275.14 253.37 286.89 259.73 290.56 259.74 289.13 254.14 285.89 249.97 274.15 239.45 268.08"/>
        </g>
        <g class="cls-12">
          <polygon class="cls-46" points="238.75 294.8 242.87 292.4 238.7 280.66 234.58 283.06 238.75 294.8"/>
          <polygon class="cls-32" points="234.58 283.06 238.7 280.66 228.18 274.59 224.06 276.98 234.58 283.06"/>
          <polygon class="cls-32" points="244.35 298.03 248.47 295.64 242.87 292.4 238.75 294.8 244.35 298.03"/>
          <polygon class="cls-1" points="244.34 299.47 248.47 297.07 248.47 295.64 244.35 298.03 244.34 299.47"/>
          <polygon class="cls-7" points="224.06 276.98 224.05 278.42 233.82 284.05 237.98 295.8 244.34 299.47 244.35 298.03 238.75 294.8 234.58 283.06 224.06 276.98"/>
        </g>
        <g class="cls-12">
          <polygon class="cls-46" points="223.16 303.65 227.29 301.25 223.12 289.51 218.99 291.91 223.16 303.65"/>
          <polygon class="cls-32" points="218.99 291.91 223.12 289.51 212.6 283.43 208.47 285.83 218.99 291.91"/>
          <polygon class="cls-32" points="228.76 306.88 232.89 304.48 227.29 301.25 223.16 303.65 228.76 306.88"/>
          <polygon class="cls-1" points="228.76 308.31 232.89 305.92 232.89 304.48 228.76 306.88 228.76 308.31"/>
          <polygon class="cls-7" points="208.47 285.83 208.47 287.26 218.23 292.9 222.4 304.64 228.76 308.31 228.76 306.88 223.16 303.65 218.99 291.91 208.47 285.83"/>
        </g>
        <g class="cls-12">
          <polygon class="cls-46" points="207.88 312.57 212.01 310.17 207.83 298.43 203.71 300.83 207.88 312.57"/>
          <polygon class="cls-32" points="203.71 300.83 207.83 298.43 197.32 292.36 193.19 294.76 203.71 300.83"/>
          <polygon class="cls-32" points="213.48 315.81 217.6 313.41 212.01 310.17 207.88 312.57 213.48 315.81"/>
          <polygon class="cls-1" points="213.47 317.24 217.6 314.84 217.6 313.41 213.48 315.81 213.47 317.24"/>
          <polygon class="cls-7" points="193.19 294.76 193.18 296.19 202.95 301.82 207.11 313.57 213.47 317.24 213.48 315.81 207.88 312.57 203.71 300.83 193.19 294.76"/>
        </g>
      </g>
      <g>
        <g>
          <polygon class="cls-33" points="144.56 239.87 147.87 241.78 188.59 265.3 188.59 214.29 144.56 239.87"/>
          <polygon class="cls-46" points="188.59 214.29 188.59 265.3 188.87 265.46 229.6 241.8 232.9 239.87 188.59 214.29"/>
        </g>
        <polygon class="cls-8" points="229.6 241.8 188.87 265.46 147.87 241.78 188.59 218.12 229.6 241.8"/>
      </g>
      <polygon class="cls-17" points="229.6 241.8 188.87 265.46 147.87 241.78 188.59 218.12 229.6 241.8"/>
      <g>
        <g class="cls-12">
          <polygon class="cls-33" points="210.75 238.27 210.74 240.74 205.91 243.55 205.91 241.08 210.75 238.27"/>
          <polygon class="cls-46" points="205.91 241.08 205.91 243.55 184.3 231.07 184.31 228.6 205.91 241.08"/>
          <polygon class="cls-9" points="210.75 238.27 205.91 241.08 184.31 228.6 189.14 225.8 210.75 238.27"/>
        </g>
        <g class="cls-12">
          <g class="cls-12">
            <path class="cls-6" d="M186.7,242.34v2.47c-1.27-.35-2.49-.68-3.65-.99-1.16-.31-2.23-.59-3.22-.84-.99-.25-1.85-.47-2.6-.66-.75-.19-1.34-.34-1.78-.44v-2.47c.44,.1,1.03,.25,1.78,.44,.75,.19,1.61,.41,2.6,.66,.99,.25,2.06,.53,3.22,.84,1.16,.31,2.37,.65,3.64,.99Z"/>
            <g class="cls-31">
              <g class="cls-12">
                <path class="cls-46" d="M186.7,242.34v2.47c-1.27-.35-2.49-.68-3.65-.99-1.16-.31-2.23-.59-3.22-.84-.99-.25-1.85-.47-2.6-.66-.75-.19-1.34-.34-1.78-.44v-2.47c.44,.1,1.03,.25,1.78,.44,.75,.19,1.61,.41,2.6,.66,.99,.25,2.06,.53,3.22,.84,1.16,.31,2.37,.65,3.64,.99Z"/>
              </g>
            </g>
          </g>
          <g class="cls-12">
            <path class="cls-6" d="M194.9,244.8v2.47c-1.07-.3-2.14-.59-3.19-.89v-2.47c1.06,.3,2.12,.59,3.19,.89Z"/>
            <g class="cls-21">
              <g class="cls-12">
                <path class="cls-46" d="M194.9,244.8v2.47c-1.07-.3-2.14-.59-3.19-.89v-2.47c1.06,.3,2.12,.59,3.19,.89Z"/>
              </g>
            </g>
          </g>
          <g class="cls-12">
            <path class="cls-6" d="M197.98,245.69v2.47c-1-.29-2.02-.59-3.09-.89v-2.47c1.07,.3,2.1,.59,3.09,.89Z"/>
            <g class="cls-10">
              <g class="cls-12">
                <path class="cls-46" d="M197.98,245.69v2.47c-1-.29-2.02-.59-3.09-.89v-2.47c1.07,.3,2.1,.59,3.09,.89Z"/>
              </g>
            </g>
          </g>
          <polygon class="cls-33" points="203.16 242.68 203.15 245.15 197.97 248.16 197.98 245.69 203.16 242.68"/>
          <polygon class="cls-33" points="191.72 243.91 191.71 246.38 183.32 251.25 183.33 248.78 191.72 243.91"/>
          <g class="cls-12">
            <path class="cls-6" d="M181.41,255.31v2.47c-1.53-1.81-2.91-3.5-4.16-5.06-1.25-1.56-2.4-3.05-3.45-4.46-1.05-1.41-2.03-2.77-2.92-4.06-.89-1.3-1.73-2.59-2.5-3.87v-2.47c.78,1.28,1.61,2.58,2.51,3.87,.9,1.3,1.87,2.65,2.92,4.06,1.05,1.41,2.2,2.9,3.45,4.46,1.25,1.56,2.63,3.25,4.15,5.06Z"/>
            <g class="cls-35">
              <g class="cls-12">
                <path class="cls-46" d="M181.41,255.31v2.47c-1.53-1.81-2.91-3.5-4.16-5.06-1.25-1.56-2.4-3.05-3.45-4.46-1.05-1.41-2.03-2.77-2.92-4.06-.89-1.3-1.73-2.59-2.5-3.87v-2.47c.78,1.28,1.61,2.58,2.51,3.87,.9,1.3,1.87,2.65,2.92,4.06,1.05,1.41,2.2,2.9,3.45,4.46,1.25,1.56,2.63,3.25,4.15,5.06Z"/>
              </g>
            </g>
          </g>
          <polygon class="cls-33" points="186.43 252.4 186.42 254.87 181.41 257.78 181.41 255.31 186.43 252.4"/>
          <path class="cls-9" d="M194.9,244.8c-1.07-.3-2.13-.59-3.18-.89l-8.38,4.87c.52,.61,1.03,1.23,1.55,1.84,.52,.62,1.04,1.21,1.55,1.77l-5.02,2.92c-1.52-1.81-2.9-3.5-4.15-5.06-1.25-1.56-2.4-3.05-3.45-4.46-1.05-1.41-2.03-2.77-2.92-4.06-.89-1.3-1.73-2.59-2.5-3.87l4.58-2.66c2.2,.45,4.43,.94,6.68,1.44,2.25,.51,4.6,1.06,7.04,1.67,2.44,.6,5.01,1.27,7.71,1.98,2.7,.72,5.62,1.51,8.75,2.39l-5.17,3.01c-.99-.29-2.02-.59-3.08-.89Zm-14.33,1.11l6.14-3.57c-1.27-.35-2.48-.68-3.64-.99-1.16-.31-2.23-.59-3.22-.84-.99-.25-1.85-.47-2.6-.66-.75-.19-1.34-.34-1.78-.44,.21,.24,.48,.58,.81,1.01,.33,.43,.72,.93,1.16,1.49,.44,.56,.92,1.19,1.45,1.87,.52,.68,1.08,1.39,1.68,2.13Z"/>
        </g>
      </g>
      <path class="cls-17" d="M189.21,342.71L42.86,258.21l145.41-84.5,146.35,84.5-145.41,84.5ZM46.74,258.21l142.46,82.25,141.53-82.25-142.46-82.25L46.74,258.21Z"/>
      <g>
        <g>
          <path class="cls-17" d="M65.56,270.19l-10.82,6.25c-.16,.09-.36,.09-.51,0l-11.1-6.41-36.02,20.8-3.36,1.94c-.08,.05-.17,.07-.26,.07-.18,0-.35-.09-.44-.26-.14-.24-.06-.56,.19-.7l2.83-1.63,36.8-21.25c.16-.09,.35-.09,.51,0l11.1,6.41,10.05-5.8,1.03,.59Z"/>
          <path class="cls-17" d="M152.81,319.59l-1.71,.98-9.85,5.69c-.16,.09-.35,.09-.51,0l-11.09-6.41-14.01,8.09-1.03,.59-21.28,12.29-3.07,1.77c-.08,.05-.17,.07-.26,.07-.18,0-.35-.09-.44-.26-.14-.25-.06-.56,.19-.7l2.73-1.58,21.1-12.18,1.03-.59,14.78-8.53c.16-.09,.35-.09,.51,0l11.09,6.41,9.08-5.24,1.71-.99,1.03,.59Z"/>
          <path class="cls-17" d="M119.14,300.14l-1.71,.99-9.57,5.53c-.16,.09-.35,.09-.51,0l-11.09-6.41-14.28,8.24-1.03,.59-20.45,11.81-3.62,2.09c-.08,.04-.17,.07-.26,.07-.18,0-.35-.09-.44-.26-.14-.25-.06-.56,.19-.7l3.31-1.91,20.25-11.69,1.03-.59,15.05-8.69c.16-.09,.35-.09,.51,0l11.09,6.41,8.8-5.08,1.71-.99,1.03,.59Z"/>
          <path class="cls-17" d="M92.28,284.63l-1.71,.99-36.19,20.89-2.72,1.57c-.08,.05-.17,.07-.26,.07-.18,0-.35-.09-.44-.26-.14-.24-.06-.56,.19-.7l2.26-1.31,36.14-20.87,1.71-.99,1.03,.59Z"/>
          <path class="cls-17" d="M165.2,326.73l-1.71,.98-35.69,20.61-2.76,1.59c-.08,.04-.17,.07-.26,.07-.18,0-.35-.09-.44-.26-.14-.25-.06-.56,.19-.7l2.24-1.29,35.7-20.62,1.71-.99,1.03,.59Z"/>
          <path class="cls-17" d="M130.66,306.79l-1.71,.99-24.11,13.92-1.03,.59-10.93,6.31s0,0,0,0l-2.86,1.65c-.08,.05-.17,.07-.26,.07-.18,0-.35-.09-.44-.26-.14-.24-.06-.56,.19-.7l2.37-1.37,10.92-6.3,1.02-.59,24.11-13.92,1.71-.99,1.03,.59Z"/>
          <polygon class="cls-17" points="130.13 336.3 116.61 344.11 112.83 346.29 112.32 345.4 115.72 343.44 128.08 336.3 114.62 328.53 113.59 327.93 103.82 322.29 102.8 321.7 80.95 309.08 79.92 308.49 71.04 303.36 95.99 288.75 97.69 287.76 98.71 288.35 97.01 289.34 73.08 303.36 80.95 307.9 81.97 308.49 103.82 321.11 104.84 321.7 114.62 327.34 115.64 327.93 130.13 336.3"/>
          <path class="cls-17" d="M6.67,290.53c1.53,.88,1.53,2.31,0,3.19-1.53,.88-4,.88-5.53,0-1.53-.88-1.53-2.31,0-3.19,1.53-.88,4-.88,5.53,0Z"/>
          <g>
            <path class="cls-17" d="M73.84,289c0,.18-.1,.35-.26,.44l-31.01,17.91-2.84,1.64c-.08,.05-.17,.07-.26,.07-.18,0-.35-.09-.44-.26-.14-.24-.06-.56,.19-.7l2.36-1.36,30.73-17.74-11.41-6.59c-.16-.09-.26-.26-.26-.44s.1-.36,.26-.44l11.29-6.52,1.71-.99,1.03,.59-1.71,.99-11.03,6.37,11.41,6.58c.16,.09,.26,.26,.26,.44Z"/>
            <path class="cls-17" d="M42.05,306.97c1.53,.88,1.53,2.31,0,3.19-1.53,.88-4,.88-5.53,0-1.53-.88-1.53-2.31,0-3.19,1.53-.88,4-.88,5.53,0Z"/>
          </g>
          <g>
            <path class="cls-17" d="M171.88,344.9c0,.18-.1,.35-.26,.44l-30.2,17.44-3.65,2.11c-.08,.04-.17,.07-.26,.07-.17,0-.35-.09-.44-.26-.14-.25-.05-.56,.19-.7l3.18-1.83,29.91-17.27-11.41-6.59c-.16-.09-.26-.26-.26-.44s.1-.35,.26-.44l10.68-6.17,1.71-.98,1.02,.59-1.71,.98-10.42,6.02,11.41,6.59c.16,.09,.26,.26,.26,.44Z"/>
            <path class="cls-17" d="M140.87,362.38c1.53,.88,1.53,2.31,0,3.19-1.53,.88-4,.88-5.53,0-1.53-.88-1.53-2.31,0-3.19,1.53-.88,4-.88,5.53,0Z"/>
          </g>
          <path class="cls-17" d="M53.79,306.09c1.53,.88,1.53,2.31,0,3.19-1.53,.88-4,.88-5.53,0-1.53-.88-1.53-2.31,0-3.19,1.53-.88,4-.88,5.53,0Z"/>
          <path class="cls-17" d="M59.66,320.18c1.53,.88,1.53,2.31,0,3.19-1.53,.88-4,.88-5.53,0-1.53-.88-1.53-2.31,0-3.19,1.53-.88,4-.88,5.53,0Z"/>
          <path class="cls-17" d="M92.39,328.25c1.53,.88,1.53,2.31,0,3.19-1.53,.88-4,.88-5.53,0-1.53-.88-1.53-2.31,0-3.19,1.53-.88,4-.88,5.53,0Z"/>
          <path class="cls-17" d="M92.54,340.14c1.53,.88,1.53,2.31,0,3.19-1.53,.88-4,.88-5.53,0-1.53-.88-1.53-2.31,0-3.19,1.53-.88,4-.88,5.53,0Z"/>
          <path class="cls-17" d="M115.87,343.51c1.53,.88,1.53,2.31,0,3.19-1.53,.88-4,.88-5.53,0-1.53-.88-1.53-2.31,0-3.19,1.53-.88,4-.88,5.53,0Z"/>
          <path class="cls-17" d="M127.37,348.03c1.53,.88,1.53,2.31,0,3.19-1.53,.88-4,.88-5.53,0-1.53-.88-1.53-2.31,0-3.19,1.53-.88,4-.88,5.53,0Z"/>
        </g>
        <g>
          <path class="cls-17" d="M342.68,305.53c-.1,.16-.27,.26-.44,.26-.09,0-.17-.02-.26-.07l-3.12-1.8-30.73-17.75c-.16-.09-.26-.26-.26-.44s.1-.35,.26-.44l11.41-6.59-10.24-5.91-1.71-.98,1.02-.59,1.71,.98,10.5,6.06c.16,.09,.26,.26,.26,.44s-.1,.35-.26,.44l-11.41,6.59,30.6,17.67,2.48,1.43c.25,.14,.33,.45,.19,.7Z"/>
          <path class="cls-17" d="M236.52,366.98c-.1,.16-.27,.26-.44,.26-.09,0-.17-.02-.26-.07l-3.02-1.74-30.83-17.8c-.16-.09-.26-.26-.26-.44s.1-.35,.26-.44l11.41-6.59-10.02-5.79-1.7-.98,1.02-.59,1.7,.98,10.28,5.94c.16,.09,.26,.26,.26,.44s-.1,.35-.26,.44l-11.41,6.59,30.74,17.75,2.34,1.35c.25,.14,.33,.45,.19,.7Z"/>
          <path class="cls-17" d="M288.86,333.98c-.1,.16-.27,.26-.44,.26-.09,0-.18-.02-.26-.07l-2.83-1.64-23.33-13.47c-.16-.09-.26-.26-.26-.44s.1-.35,.26-.44l8.65-4.99-7.79-4.58-1.02-.6-6.53-3.84-1.69-1,1.02-.59,1.69,.99,6.53,3.84,1.02,.6,8.05,4.73c.16,.09,.25,.26,.25,.44,0,.18-.1,.35-.26,.44l-8.64,4.99,23.43,13.53h0l1.96,1.13c.24,.14,.33,.45,.19,.7Z"/>
          <path class="cls-17" d="M331.23,332.62c-.1,.16-.27,.26-.44,.26-.09,0-.17-.02-.26-.07l-3.02-1.74-42.53-24.56c-.16-.09-.26-.26-.26-.44s.1-.35,.26-.44l15.62-9.02-16.19-9.35-1.71-.98,1.02-.59,1.71,.98,16.46,9.5c.16,.09,.26,.26,.26,.44s-.1,.35-.26,.44l-15.62,9.02,42.43,24.5,2.34,1.35c.25,.14,.33,.45,.19,.7Z"/>
          <path class="cls-17" d="M285.59,345.45c-.09,.16-.27,.26-.44,.26-.09,0-.17-.02-.26-.07l-2.6-1.5-30.1-17.38-16.61,9.59c-.16,.09-.36,.09-.51,0l-17.63-10.18-1.7-.98,1.02-.59,1.7,.98,16.87,9.74,16.61-9.59c.16-.09,.36-.09,.51,0l30.87,17.82,2.08,1.2c.25,.14,.33,.45,.19,.7Z"/>
          <path class="cls-17" d="M330.76,304.63c-.1,.16-.27,.26-.44,.26-.09,0-.17-.02-.26-.07l-2.93-1.69-35.14-20.29-1.71-.99,1.02-.59,1.71,.98,35.22,20.33,2.34,1.35c.25,.14,.33,.45,.19,.7Z"/>
          <path class="cls-17" d="M357.92,288.72c-.1,.16-.27,.26-.44,.26-.09,0-.17-.02-.26-.07l-3.22-1.86-34.74-20.06-1.71-.98,1.02-.59,1.71,.98,34.7,20.04,2.75,1.59c.25,.14,.33,.45,.19,.7Z"/>
          <path class="cls-17" d="M299.2,322.59c-.1,.16-.27,.26-.44,.26-.09,0-.18-.02-.26-.07l-3.18-1.83-26.93-15.55-1.03-.59-6.61-3.82-1.71-.98,1.02-.59,1.71,.98,6.61,3.82,1.03,.59,26.83,15.49,2.76,1.59c.24,.14,.33,.45,.19,.7Z"/>
          <path class="cls-17" d="M248.22,352.31c-.09,.16-.27,.26-.44,.26-.09,0-.17-.02-.26-.07l-2.95-1.7s0,0,0,0l-34.87-20.13-1.7-.98,1.02-.59,1.7,.98,34.95,20.17,2.37,1.37c.25,.14,.33,.46,.19,.7Z"/>
          <polygon class="cls-17" points="285.83 295.33 269.41 304.81 268.39 305.4 263.88 308.01 262.85 308.6 242.28 320.48 239.2 322.25 238.69 321.36 241.43 319.78 261.84 308 262.86 307.41 267.36 304.81 268.39 304.22 283.78 295.33 277.11 291.49 275.41 290.5 276.43 289.91 278.14 290.89 285.83 295.33"/>
          <path class="cls-17" d="M238.4,365.37c1.53,.88,1.53,2.31,0,3.19-1.53,.88-4,.88-5.53,0-1.53-.88-1.53-2.31,0-3.19,1.53-.88,4-.88,5.53,0Z"/>
          <path class="cls-17" d="M250.4,350.59c1.53,.88,1.53,2.31,0,3.19-1.53,.88-4,.88-5.53,0-1.53-.88-1.53-2.31,0-3.19,1.53-.88,4-.88,5.53,0Z"/>
          <path class="cls-17" d="M241.48,319.81c1.53,.88,1.53,2.31,0,3.19-1.53,.88-4,.88-5.53,0-1.53-.88-1.53-2.31,0-3.19,1.53-.88,4-.88,5.53,0Z"/>
          <path class="cls-17" d="M288.27,343.82c1.53,.88,1.53,2.31,0,3.19-1.53,.88-4,.88-5.53,0-1.53-.88-1.53-2.31,0-3.19,1.53-.88,4-.88,5.53,0Z"/>
          <path class="cls-17" d="M290.43,332.74c1.53,.88,1.53,2.31,0,3.19-1.53,.88-4,.88-5.53,0-1.53-.88-1.53-2.31,0-3.19,1.53-.88,4-.88,5.53,0Z"/>
          <path class="cls-17" d="M301.51,320.44c1.53,.88,1.53,2.31,0,3.19-1.53,.88-4,.88-5.53,0-1.53-.88-1.53-2.31,0-3.19,1.53-.88,4-.88,5.53,0Z"/>
          <path class="cls-17" d="M333.14,331.01c1.53,.88,1.53,2.31,0,3.19-1.53,.88-4,.88-5.53,0-1.53-.88-1.53-2.31,0-3.19,1.53-.88,4-.88,5.53,0Z"/>
          <path class="cls-17" d="M332.96,302.94c1.53,.88,1.53,2.31,0,3.19-1.53,.88-4,.88-5.53,0-1.53-.88-1.53-2.31,0-3.19,1.53-.88,4-.88,5.53,0Z"/>
          <path class="cls-17" d="M344.57,303.8c1.53,.88,1.53,2.31,0,3.19s-4,.88-5.53,0c-1.53-.88-1.53-2.31,0-3.19,1.53-.88,4-.88,5.53,0Z"/>
          <path class="cls-17" d="M360.08,286.65c1.53,.88,1.53,2.31,0,3.19-1.53,.88-4,.88-5.53,0-1.53-.88-1.53-2.31,0-3.19,1.53-.88,4-.88,5.53,0Z"/>
        </g>
        <g>
          <path class="cls-17" d="M151.32,163.37c0,.18-.09,.35-.25,.44l-8.12,4.86-1.01,.61-10.19,6.11-1.01,.6-9.56,5.73,26.85,15.5,1.71,.98-1.02,.59-1.71-.98-27.09-15.64c-.16-.09-.25-.26-.26-.44,0-.18,.09-.35,.25-.44l9.81-5.88,1.01-.61,10.19-6.11,1.01-.61,7.86-4.71-15.07-8.7-2.55-1.47c-.24-.14-.33-.45-.19-.7,.14-.25,.45-.33,.7-.19l3.02,1.74,15.35,8.86c.16,.09,.25,.26,.26,.44Z"/>
          <path class="cls-17" d="M59.53,249.65l-26.37-15.22,11.41-6.59c.16-.09,.26-.26,.26-.44s-.1-.35-.26-.44l-15.49-8.94-2.88-1.66c-.25-.14-.56-.06-.7,.19-.14,.24-.06,.56,.19,.7l2.19,1.27,15.41,8.89-11.41,6.59c-.16,.09-.26,.26-.26,.44s.1,.35,.26,.44l26.63,15.37,1.02-.59Z"/>
          <path class="cls-17" d="M113.18,219.46l-1.02,.59-1.71-.98-18.34-10.59c-.16-.09-.26-.26-.26-.44s.1-.36,.26-.44l8.65-5-21.17-12.45-2.01-1.18c-.25-.14-.33-.46-.18-.7,.14-.24,.46-.32,.7-.18l2.56,1.51,21.37,12.57c.16,.09,.26,.26,.25,.44,0,.18-.1,.35-.26,.44l-8.64,4.99,18.08,10.44,1.71,.99Z"/>
          <path class="cls-17" d="M136.1,206.14l-1.02,.59-1.71-.98-28.53-16.47c-.16-.09-.26-.26-.26-.44s.1-.35,.26-.44l12.59-7.27-16-9.24-3.38-1.96c-.25-.14-.33-.45-.19-.7,.14-.25,.45-.33,.7-.19l3.86,2.23,16.29,9.41c.16,.09,.26,.26,.26,.44s-.1,.35-.26,.44l-12.59,7.27,28.27,16.32,1.71,.99Z"/>
          <path class="cls-17" d="M100.27,226.96l-1.02,.59-1.71-.98-18.63-10.75-13.32,7.69c-.16,.09-.35,.09-.51,0l-18.02-10.4-2.22-1.28c-.25-.14-.33-.45-.19-.7,.14-.25,.45-.33,.7-.19l2.65,1.53,17.33,10.01,13.32-7.69c.16-.09,.36-.09,.51,0l19.39,11.19,1.71,.98Z"/>
          <path class="cls-17" d="M160.48,191.98l-1.02,.59-1.71-.99-27-15.59-1.02-.58-8.36-4.83h0l-2.17-1.25c-.25-.14-.33-.45-.19-.7,.14-.25,.45-.33,.7-.19l2.8,1.62,8.23,4.75,1.02,.59,27.02,15.6,1.71,.99Z"/>
          <path class="cls-17" d="M171.86,185.36l-1.02,.59-1.71-.98-27.19-15.68-1.02-.59-31.45-18.14-1.63-.94c-.25-.14-.33-.45-.19-.7,.14-.25,.45-.33,.7-.19l2.39,1.38,31.18,17.99,1.02,.59,27.2,15.69,1.71,.98Z"/>
          <path class="cls-17" d="M130.55,209.36l-1.02,.59-1.71-.98-36.04-20.81h0l-2.41-1.4c-.25-.14-.33-.46-.19-.7,.14-.25,.45-.33,.7-.19l3.02,1.74,35.94,20.75,1.71,.98Z"/>
          <path class="cls-17" d="M79.9,238.8l-1.02,.59-1.71-.98-16.09-9.29-3.86-2.23c-.24-.14-.33-.45-.18-.7,.14-.24,.45-.33,.7-.19l4.42,2.55,16.04,9.26,1.71,.98Z"/>
          <path class="cls-17" d="M29,214.86c1.53,.88,1.53,2.31,0,3.19-1.53,.88-4,.88-5.53,0s-1.53-2.31,0-3.19c1.53-.88,4-.88,5.53,0Z"/>
          <path class="cls-17" d="M61.79,225.61c1.53,.88,1.53,2.31,0,3.19-1.53,.88-4,.88-5.53,0-1.53-.88-1.53-2.31,0-3.19,1.53-.88,4-.88,5.53,0Z"/>
          <path class="cls-17" d="M47.37,209.75c1.53,.88,1.53,2.31,0,3.19s-4,.88-5.53,0c-1.53-.88-1.53-2.31,0-3.19,1.53-.88,4-.88,5.53,0Z"/>
          <path class="cls-17" d="M80.31,186.62c1.53,.88,1.53,2.31,0,3.19-1.53,.88-4,.88-5.53,0-1.53-.88-1.53-2.31,0-3.19,1.53-.88,4-.88,5.53,0Z"/>
          <path class="cls-17" d="M53.43,202.17c1.53,.88,1.53,2.31,0,3.19-1.53,.88-4,.88-5.53,0-1.53-.88-1.53-2.31,0-3.19,1.53-.88,4-.88,5.53,0Z"/>
          <path class="cls-17" d="M107.02,223.04l-1.02,.59-1.71-.98-42.67-24.64-7.74,4.47-2.92,1.68c-.24,.14-.56,.06-.7-.19-.14-.24-.05-.56,.19-.7l2.4-1.38,8.51-4.91c.16-.09,.35-.09,.51,0l43.44,25.08,1.71,.98Z"/>
          <path class="cls-17" d="M178.32,181.61l-1.02,.59-1.71-.98-18.54-10.71c-.16-.09-.26-.26-.26-.44s.1-.35,.26-.44l8.65-5-21.17-12.45-2.01-1.18c-.24-.14-.32-.46-.18-.7,.14-.25,.46-.33,.7-.18l2.56,1.5,21.37,12.58c.16,.09,.25,.26,.25,.44,0,.18-.1,.35-.26,.44l-8.64,4.99,18.29,10.56,1.71,.98Z"/>
          <path class="cls-17" d="M145.24,148.65c1.53,.88,1.53,2.31,0,3.19-1.53,.88-4,.88-5.53,0-1.53-.88-1.53-2.31,0-3.19,1.53-.88,4-.88,5.53,0Z"/>
          <path class="cls-17" d="M92.66,184.6c1.53,.88,1.53,2.31,0,3.19-1.53,.88-4,.88-5.53,0-1.53-.88-1.53-2.31,0-3.19,1.53-.88,4-.88,5.53,0Z"/>
          <path class="cls-17" d="M101.88,168.46c1.53,.88,1.53,2.31,0,3.19-1.53,.88-4,.88-5.53,0-1.53-.88-1.53-2.31,0-3.19,1.53-.88,4-.88,5.53,0Z"/>
          <path class="cls-17" d="M110.88,146.85c1.53,.88,1.53,2.31,0,3.19-1.53,.88-4,.88-5.53,0-1.53-.88-1.53-2.31,0-3.19,1.53-.88,4-.88,5.53,0Z"/>
          <path class="cls-17" d="M135.15,151.28c1.53,.88,1.53,2.31,0,3.19-1.53,.88-4,.88-5.53,0-1.53-.88-1.53-2.31,0-3.19,1.53-.88,4-.88,5.53,0Z"/>
          <path class="cls-17" d="M122.31,166.98c1.53,.88,1.53,2.31,0,3.19-1.53,.88-4,.88-5.53,0-1.53-.88-1.53-2.31,0-3.19,1.53-.88,4-.88,5.53,0Z"/>
        </g>
        <g>
          <path class="cls-17" d="M323.95,222.17c0,.18-.1,.35-.26,.44l-25.48,14.71-1.71,.98-1.03-.59,1.71-.99,25.24-14.57-23.16-13.88-1-.61-5.71-3.42c-.16-.09-.25-.26-.25-.44,0-.18,.1-.35,.26-.44l15.35-8.86,3.02-1.74c.24-.14,.56-.06,.7,.19,.14,.25,.06,.56-.18,.7l-2.55,1.47-15.07,8.7,5.45,3.27,1.01,.6,23.42,14.03c.15,.1,.25,.26,.25,.44Z"/>
          <path class="cls-17" d="M299.53,189.85l-2.01,1.18-21.17,12.45,8.65,4.99c.16,.09,.26,.26,.26,.44s-.1,.35-.26,.44l-17.61,10.17-1.71,.98-1.02-.59,1.71-.98,17.35-10.02-8.64-4.99c-.16-.09-.26-.26-.26-.44s.1-.35,.25-.44l21.37-12.58,2.56-1.5c.25-.14,.56-.06,.7,.18,.14,.24,.06,.56-.18,.7Z"/>
          <path class="cls-17" d="M277.67,167.63l-3.29,1.9-16.52,9.54,12.88,7.43c.16,.09,.26,.26,.26,.44s-.1,.35-.26,.44l-29.5,17.03-1.71,.99-1.03-.59,1.71-.98,29.25-16.89-12.88-7.43c-.16-.09-.26-.26-.26-.44s.1-.35,.26-.44l16.91-9.76,3.68-2.12c.25-.14,.56-.06,.7,.19,.14,.25,.06,.56-.19,.7Z"/>
          <path class="cls-17" d="M351.49,232.3l-2.2,1.27-14.87,8.58c-.16,.09-.35,.09-.51,0l-11.19-6.46-13.67,7.89-1.71,.99-1.03-.59,1.71-.98,14.44-8.33c.16-.09,.36-.09,.51,0l11.19,6.46,14-8.08,2.81-1.62c.25-.14,.56-.06,.7,.19,.14,.25,.06,.56-.19,.7Z"/>
          <path class="cls-17" d="M256.89,170.39l-2.17,1.25h0l-35.13,20.29-1.71,.98-1.03-.59,1.71-.98,35.03-20.22,2.8-1.62c.25-.14,.56-.06,.7,.19,.14,.25,.06,.56-.19,.7Z"/>
          <path class="cls-17" d="M269.27,150.51l-1.63,.94-59.12,34.09-1.71,.98-1.03-.59,1.71-.98,58.87-33.95,2.39-1.38c.25-.14,.56-.06,.7,.19,.14,.25,.06,.56-.19,.7Z"/>
          <path class="cls-17" d="M287.75,187.66l-2.42,1.39-35.36,20.42-1.71,.98-1.03-.59,1.71-.98,35.27-20.36,3.03-1.75c.25-.14,.56-.06,.7,.19,.14,.25,.06,.56-.19,.7Z"/>
          <path class="cls-17" d="M249.43,187.2l-3.86,2.23-15.17,8.76-1.71,.98-1.03-.59,1.71-.98,15.12-8.73,4.41-2.55c.25-.14,.56-.06,.7,.19,.14,.25,.06,.56-.19,.7Z"/>
          <path class="cls-17" d="M244.86,185.91c-1.53,.88-1.53,2.31,0,3.19,1.53,.88,4,.88,5.53,0,1.53-.88,1.53-2.31,0-3.19-1.53-.88-4-.88-5.53,0Z"/>
          <path class="cls-17" d="M348.4,229.99c-1.53,.88-1.53,2.31,0,3.19,1.53,.88,4,.88,5.53,0,1.53-.88,1.53-2.31,0-3.19-1.53-.88-4-.88-5.53,0Z"/>
          <path class="cls-17" d="M296.81,187.52c-1.53,.88-1.53,2.31,0,3.19,1.53,.88,4,.88,5.53,0,1.53-.88,1.53-2.31,0-3.19-1.53-.88-4-.88-5.53,0Z"/>
          <path class="cls-17" d="M323.69,203.06c-1.53,.88-1.53,2.31,0,3.19,1.53,.88,4,.88,5.53,0,1.53-.88,1.53-2.31,0-3.19-1.53-.88-4-.88-5.53,0Z"/>
          <path class="cls-17" d="M326.86,204.87c-.14,.25-.45,.33-.7,.19l-2.91-1.68-7.74-4.47-15.22,8.79-1.02,.59-25.67,14.82-1.71,.98-1.02-.59,1.71-.98,25.69-14.84,1.02-.58,15.98-9.22c.16-.09,.36-.09,.51,0l8.51,4.92,2.4,1.38c.24,.14,.33,.45,.19,.7Z"/>
          <path class="cls-17" d="M234.61,151.88l-2,1.18-21.17,12.45,8.65,4.99c.16,.09,.26,.26,.26,.44s-.1,.35-.26,.44l-18.03,10.41-1.71,.98-6.43,3.71c-.08,.05-.17,.07-.25,.07-.18,0-.35-.09-.44-.26-.14-.25-.06-.56,.18-.7l5.91-3.42,1.71-.98,17.77-10.26-8.64-4.99c-.16-.09-.25-.26-.26-.44,0-.18,.1-.35,.25-.44l21.37-12.58,2.56-1.5c.24-.14,.56-.06,.7,.18,.14,.25,.06,.56-.18,.7Z"/>
          <path class="cls-17" d="M231.88,149.55c-1.53,.88-1.53,2.31,0,3.19,1.53,.88,4,.88,5.53,0,1.53-.88,1.53-2.31,0-3.19-1.53-.88-4-.88-5.53,0Z"/>
          <path class="cls-17" d="M284.47,185.49c-1.53,.88-1.53,2.31,0,3.19,1.53,.88,4,.88,5.53,0,1.53-.88,1.53-2.31,0-3.19-1.53-.88-4-.88-5.53,0Z"/>
          <path class="cls-17" d="M274.2,166.25c-1.53,.88-1.53,2.31,0,3.19,1.53,.88,4,.88,5.53,0,1.53-.88,1.53-2.31,0-3.19-1.53-.88-4-.88-5.53,0Z"/>
          <path class="cls-17" d="M266.24,147.74c-1.53,.88-1.53,2.31,0,3.19,1.53,.88,4,.88,5.53,0,1.53-.88,1.53-2.31,0-3.19-1.53-.88-4-.88-5.53,0Z"/>
          <path class="cls-17" d="M308.46,191.72c-1.53,.88-1.53,2.31,0,3.19,1.53,.88,4,.88,5.53,0,1.53-.88,1.53-2.31,0-3.19-1.53-.88-4-.88-5.53,0Z"/>
          <path class="cls-17" d="M253.77,168.04c-1.53,.88-1.53,2.31,0,3.19,1.53,.88,4,.88,5.53,0,1.53-.88,1.53-2.31,0-3.19-1.53-.88-4-.88-5.53,0Z"/>
        </g>
      </g>
    </g>
    <g>
      <g class="cls-12">
        <g class="cls-12">
          <path class="cls-37" d="M136.27,185.39l-8.49-4.93c-.93-.54-1.62-1.61-1.89-3.3l8.49,4.93c.27,1.69,.95,2.76,1.89,3.3Z"/>
          <g class="cls-22">
            <g class="cls-12">
              <path class="cls-37" d="M136.27,185.39l-8.49-4.93c-.93-.54-1.61-1.6-1.88-3.27l8.49,4.93c.27,1.67,.95,2.73,1.88,3.27Z"/>
              <path class="cls-37" d="M134.39,182.12l-8.49-4.93s0-.02,0-.03l8.49,4.93s0,.02,0,.03Z"/>
            </g>
          </g>
        </g>
        <g>
          <path class="cls-37" d="M143.58,96.81l8.49,4.93c-2.48-1.44-5.91-1.26-9.76,.96l-8.49-4.93c3.85-2.22,7.28-2.4,9.76-.96Z"/>
          <g class="cls-43">
            <g class="cls-12">
              <path class="cls-37" d="M142.31,102.71l-8.49-4.93c3.85-2.22,7.28-2.4,9.76-.96l8.49,4.93c-2.48-1.44-5.91-1.26-9.76,.96Z"/>
            </g>
          </g>
        </g>
        <polygon class="cls-37" points="134.39 182.09 125.9 177.16 117.74 125.4 126.23 130.33 134.39 182.09"/>
        <polygon class="cls-28" points="139.72 104.2 131.23 99.27 133.82 97.77 142.31 102.71 139.72 104.2"/>
        <g class="cls-12">
          <path class="cls-28" d="M126.23,130.33l-8.49-4.93c-1.39-8.81,5.04-21.25,13.5-26.13l8.49,4.93c-8.46,4.88-14.88,17.32-13.5,26.13Z"/>
          <g class="cls-16">
            <g class="cls-12">
              <path class="cls-28" d="M126.23,130.33l-8.49-4.93c-.42-2.68-.12-5.69,.74-8.73l8.49,4.93c-.86,3.03-1.16,6.05-.74,8.73Z"/>
              <path class="cls-28" d="M126.97,121.61l-8.49-4.93c.97-3.42,2.64-6.86,4.8-9.88l8.49,4.93c-2.15,3.02-3.83,6.46-4.8,9.88Z"/>
              <path class="cls-28" d="M131.76,111.73l-8.49-4.93c1.65-2.31,3.57-4.37,5.67-5.99l8.49,4.93c-2.1,1.62-4.03,3.68-5.67,5.99Z"/>
              <path class="cls-28" d="M137.44,105.74l-8.49-4.93c.74-.57,1.5-1.09,2.29-1.54l8.49,4.93c-.78,.45-1.54,.97-2.29,1.54Z"/>
            </g>
          </g>
        </g>
        <path class="cls-46" d="M142.31,102.71c8.46-4.88,14.93,.11,13.6,10.49l-7.84,60.99c-.62,4.82-3.72,8.84-6.82,10.64-3.11,1.79-6.22,1.36-6.86-2.73l-8.16-51.76c-1.39-8.81,5.04-21.25,13.5-26.13l2.59-1.49Z"/>
      </g>
      <g class="cls-12">
        <g class="cls-12">
          <path class="cls-17" d="M151.7,103.15l5.91,3.44c-2.51-1.46-5.99-1.25-9.82,.96l-5.91-3.44c3.84-2.22,7.31-2.42,9.82-.96Z"/>
          <g class="cls-19">
            <g class="cls-12">
              <path class="cls-17" d="M147.79,107.54l-5.91-3.44c3.84-2.22,7.31-2.42,9.82-.96l5.91,3.44c-2.51-1.46-5.99-1.25-9.82,.96Z"/>
            </g>
          </g>
        </g>
        <path class="cls-17" d="M149.17,113.32c5.22-3.02,9.48-.59,9.5,5.42,.02,6-4.21,13.33-9.44,16.34-5.22,3.02-9.49,.59-9.5-5.41-.02-6,4.22-13.34,9.44-16.35Z"/>
        <g class="cls-12">
          <path class="cls-17" d="M138.06,140.24l-5.91-3.44c-2.48-1.44-4.02-4.5-4.03-8.86-.02-8.76,6.14-19.44,13.77-23.85l5.91,3.44c-7.63,4.4-13.79,15.08-13.77,23.85,.01,4.35,1.55,7.41,4.03,8.85Z"/>
          <g class="cls-36">
            <g class="cls-12">
              <path class="cls-17" d="M138.06,140.24l-5.91-3.44c-2.2-1.28-3.66-3.84-3.97-7.44l5.91,3.44c.31,3.6,1.77,6.16,3.97,7.44Z"/>
              <path class="cls-17" d="M134.09,132.8l-5.91-3.44c-.04-.45-.06-.93-.06-1.41-.02-7.56,4.56-16.54,10.71-21.69l5.91,3.44c-6.15,5.15-10.73,14.13-10.71,21.69,0,.49,.02,.96,.06,1.41Z"/>
              <path class="cls-17" d="M144.74,109.7l-5.91-3.44c.98-.82,2.01-1.55,3.06-2.16l5.91,3.44c-1.05,.61-2.07,1.33-3.06,2.16Z"/>
            </g>
          </g>
        </g>
        <g class="cls-12">
          <path class="cls-8" d="M149.17,113.32l-1.37-5.78c7.63-4.4,13.83-.87,13.85,7.9,.02,8.76-6.14,19.44-13.76,23.84-7.63,4.4-13.83,.87-13.86-7.89-.02-8.76,6.14-19.44,13.77-23.85l1.37,5.78c-5.22,3.01-9.46,10.35-9.44,16.35,.01,6,4.28,8.43,9.5,5.41,5.22-3.01,9.46-10.34,9.44-16.34-.01-6.01-4.27-8.44-9.5-5.42Z"/>
          <g class="cls-29">
            <g class="cls-12">
              <path class="cls-38" d="M149.17,113.32l-1.37-5.78c7.63-4.4,13.83-.87,13.85,7.9,.02,8.76-6.14,19.44-13.76,23.84-7.63,4.4-13.83,.87-13.86-7.89-.02-8.76,6.14-19.44,13.77-23.85l1.37,5.78c-5.22,3.01-9.46,10.35-9.44,16.35,.01,6,4.28,8.43,9.5,5.41,5.22-3.01,9.46-10.34,9.44-16.34-.01-6.01-4.27-8.44-9.5-5.42Z"/>
            </g>
          </g>
        </g>
      </g>
      <g>
        <path class="cls-7" d="M165.19,215.45c-14.06-8.69-17.23-20.35-18.58-25.33,1.09,4.78,4.83,9.53,11.21,13.37,15.94,9.59,42.33,9.86,58.95,.6,7.13-3.98,11.31-9.07,12.48-14.34-1.08,4.13-2.71,10.38-8.94,17.6-2.36,2.73-7.56,7.82-15.87,11.15-12.64,5.07-28.04,3.87-39.25-3.05Z"/>
        <path class="cls-32" d="M217.04,101.51c15.54,9.35,15.01,24.26-1.19,33.29-16.2,9.03-41.92,8.77-57.46-.58-15.54-9.35-15.01-24.26,1.19-33.29,16.2-9.03,41.92-8.77,57.46,.58Z"/>
        <g class="cls-12">
          <path class="cls-1" d="M146.58,189.99l-12.53-54.75c1.46,6.38,6.32,12.56,14.61,17.55,20.71,12.47,55,12.81,76.59,.77,9.27-5.17,14.69-11.78,16.22-18.63l-12.22,54.82c-1.18,5.27-5.35,10.36-12.48,14.34-16.61,9.26-43.01,9-58.95-.6-6.38-3.84-10.12-8.59-11.24-13.51Z"/>
        </g>
        <path class="cls-37" d="M152.91,100.05c21.16-11.49,51.12-11.15,71.24,.81-1.79-1.08-4.3-1-7.12,.57-15.54-9.35-41.27-9.61-57.46-.58-16.2,9.03-16.73,23.93-1.19,33.29,15.54,9.35,41.27,9.61,57.46,.58,16.2-9.03,16.73-23.93,1.19-33.29,2.82-1.57,5.33-1.65,7.12-.57,4.21,2.72,10.58,6.84,15.01,15.5,4.13,8.08,2.88,15.33,2.34,18.43-1.57,7.03-6.99,13.64-16.26,18.8-21.59,12.04-55.88,11.69-76.59-.77-8.28-4.98-13.14-11.15-14.61-17.53-.52-2.78-1.01-5.41-.51-9.53,.62-5.16,2.68-9.06,2.77-9.22,1.54-2.88,5.64-10.53,16.6-16.48Z"/>
      </g>
      <g class="cls-12">
        <g class="cls-12">
          <path class="cls-17" d="M236.07,132.3l5.91,3.44c-2.51-1.46-5.99-1.25-9.82,.96l-5.91-3.44c3.84-2.22,7.31-2.42,9.82-.96Z"/>
          <g class="cls-44">
            <g class="cls-12">
              <path class="cls-17" d="M232.16,136.7l-5.91-3.44c3.84-2.22,7.31-2.42,9.82-.96l5.91,3.44c-2.51-1.46-5.99-1.25-9.82,.96Z"/>
            </g>
          </g>
        </g>
        <path class="cls-17" d="M233.53,142.48c5.22-3.02,9.48-.59,9.5,5.42,.02,6-4.21,13.33-9.44,16.34-5.23,3.02-9.49,.59-9.5-5.41-.02-6,4.22-13.34,9.44-16.35Z"/>
        <g class="cls-12">
          <path class="cls-17" d="M222.42,169.4l-5.91-3.44c-2.48-1.44-4.02-4.5-4.03-8.85-.02-8.76,6.14-19.44,13.77-23.85l5.91,3.44c-7.63,4.4-13.79,15.08-13.77,23.85,.01,4.35,1.55,7.41,4.03,8.85Z"/>
          <g class="cls-3">
            <g class="cls-12">
              <path class="cls-17" d="M222.42,169.4l-5.91-3.44c-2.2-1.28-3.66-3.84-3.97-7.44l5.91,3.44c.31,3.6,1.77,6.16,3.97,7.44Z"/>
              <path class="cls-17" d="M218.46,161.96l-5.91-3.44c-.04-.45-.06-.93-.06-1.41-.02-7.56,4.56-16.54,10.71-21.69l5.91,3.44c-6.15,5.15-10.73,14.13-10.71,21.69,0,.49,.02,.96,.06,1.41Z"/>
              <path class="cls-17" d="M229.11,138.86l-5.91-3.44c.98-.82,2.01-1.55,3.06-2.16l5.91,3.44c-1.05,.61-2.07,1.33-3.06,2.16Z"/>
            </g>
          </g>
        </g>
        <g class="cls-12">
          <path class="cls-8" d="M233.53,142.48l-1.37-5.78c7.63-4.4,13.83-.86,13.85,7.9,.02,8.76-6.14,19.43-13.76,23.84-7.63,4.4-13.83,.87-13.86-7.89-.02-8.76,6.14-19.44,13.77-23.85l1.37,5.78c-5.22,3.01-9.46,10.35-9.44,16.35,.01,6,4.28,8.43,9.5,5.41,5.22-3.01,9.46-10.34,9.44-16.34-.01-6.01-4.27-8.44-9.5-5.42Z"/>
          <g class="cls-25">
            <g class="cls-12">
              <path class="cls-38" d="M233.53,142.48l-1.37-5.78c7.63-4.4,13.83-.86,13.85,7.9,.02,8.76-6.14,19.43-13.76,23.84-7.63,4.4-13.83,.87-13.86-7.89-.02-8.76,6.14-19.44,13.77-23.85l1.37,5.78c-5.22,3.01-9.46,10.35-9.44,16.35,.01,6,4.28,8.43,9.5,5.41,5.22-3.01,9.46-10.34,9.44-16.34-.01-6.01-4.27-8.44-9.5-5.42Z"/>
            </g>
          </g>
        </g>
      </g>
      <g class="cls-12">
        <g class="cls-12">
          <path class="cls-37" d="M236.14,223.54l-8.49-4.93c-.93-.54-1.62-1.61-1.89-3.3l8.49,4.93c.27,1.69,.95,2.76,1.89,3.3Z"/>
          <g class="cls-11">
            <g class="cls-12">
              <path class="cls-37" d="M236.14,223.54l-8.49-4.93c-.93-.54-1.61-1.6-1.88-3.27l8.49,4.93c.27,1.67,.95,2.73,1.88,3.27Z"/>
              <path class="cls-37" d="M234.26,220.27l-8.49-4.93s0-.02,0-.03l8.49,4.93s0,.02,0,.03Z"/>
            </g>
          </g>
        </g>
        <g>
          <path class="cls-37" d="M243.45,134.96l8.49,4.93c-2.48-1.44-5.91-1.26-9.76,.96l-8.49-4.93c3.85-2.22,7.28-2.4,9.76-.96Z"/>
          <g class="cls-40">
            <g class="cls-12">
              <path class="cls-37" d="M242.18,140.86l-8.49-4.93c3.85-2.22,7.28-2.4,9.76-.96l8.49,4.93c-2.48-1.44-5.91-1.26-9.76,.96Z"/>
            </g>
          </g>
        </g>
        <polygon class="cls-37" points="234.25 220.24 225.76 215.31 217.6 163.55 226.09 168.48 234.25 220.24"/>
        <polygon class="cls-28" points="239.59 142.35 231.1 137.42 233.69 135.92 242.18 140.86 239.59 142.35"/>
        <g class="cls-12">
          <path class="cls-28" d="M226.09,168.48l-8.49-4.93c-1.39-8.81,5.04-21.25,13.5-26.13l8.49,4.93c-8.46,4.88-14.89,17.32-13.5,26.13Z"/>
          <g class="cls-14">
            <g class="cls-12">
              <path class="cls-28" d="M226.09,168.48l-8.49-4.93c-.42-2.68-.12-5.69,.74-8.73l8.49,4.93c-.86,3.03-1.16,6.05-.74,8.73Z"/>
              <path class="cls-28" d="M226.83,159.76l-8.49-4.93c.97-3.42,2.64-6.86,4.8-9.88l8.49,4.93c-2.15,3.02-3.83,6.46-4.8,9.88Z"/>
              <path class="cls-28" d="M231.63,149.88l-8.49-4.93c1.65-2.31,3.57-4.37,5.67-5.99l8.49,4.93c-2.1,1.62-4.03,3.68-5.67,5.99Z"/>
              <path class="cls-28" d="M237.3,143.89l-8.49-4.93c.74-.57,1.51-1.09,2.29-1.54l8.49,4.93c-.78,.45-1.54,.97-2.29,1.54Z"/>
            </g>
          </g>
        </g>
        <path class="cls-46" d="M242.18,140.86c8.46-4.88,14.93,.11,13.6,10.49l-7.84,60.99c-.62,4.82-3.72,8.84-6.82,10.64-3.11,1.79-6.22,1.36-6.86-2.73l-8.16-51.76c-1.39-8.81,5.04-21.24,13.5-26.13l2.59-1.49Z"/>
      </g>
    </g>
  </g>
  <g>
    <g class="cls-12">
      <g class="cls-12">
        <path class="cls-37" d="M137.14,185.24l-8.49-4.93c-.93-.54-1.62-1.61-1.89-3.3l8.49,4.93c.27,1.69,.95,2.76,1.89,3.3Z"/>
        <g class="cls-4">
          <g class="cls-12">
            <path class="cls-37" d="M137.14,185.24l-8.49-4.93c-.93-.54-1.61-1.6-1.88-3.27l8.49,4.93c.27,1.67,.95,2.73,1.88,3.27Z"/>
            <path class="cls-37" d="M135.25,181.97l-8.49-4.93s0-.02,0-.03l8.49,4.93s0,.02,0,.03Z"/>
          </g>
        </g>
      </g>
      <g>
        <path class="cls-37" d="M144.44,96.66l8.49,4.93c-2.48-1.44-5.91-1.26-9.76,.96l-8.49-4.93c3.85-2.22,7.28-2.4,9.76-.96Z"/>
        <g class="cls-41">
          <g class="cls-12">
            <path class="cls-37" d="M143.18,102.55l-8.49-4.93c3.85-2.22,7.28-2.4,9.76-.96l8.49,4.93c-2.48-1.44-5.91-1.26-9.76,.96Z"/>
          </g>
        </g>
      </g>
      <polygon class="cls-37" points="135.25 181.94 126.76 177 118.6 125.24 127.09 130.18 135.25 181.94"/>
      <polygon class="cls-28" points="140.59 104.05 132.1 99.11 134.69 97.62 143.18 102.55 140.59 104.05"/>
      <g class="cls-12">
        <path class="cls-28" d="M127.09,130.18l-8.49-4.93c-1.39-8.81,5.04-21.25,13.5-26.13l8.49,4.93c-8.46,4.88-14.89,17.32-13.5,26.13Z"/>
        <g class="cls-39">
          <g class="cls-12">
            <path class="cls-28" d="M127.09,130.18l-8.49-4.93c-.42-2.68-.12-5.69,.74-8.73l8.49,4.93c-.86,3.03-1.16,6.05-.74,8.73Z"/>
            <path class="cls-28" d="M127.83,121.45l-8.49-4.93c.97-3.42,2.64-6.86,4.8-9.88l8.49,4.93c-2.15,3.02-3.83,6.46-4.8,9.88Z"/>
            <path class="cls-28" d="M132.63,111.57l-8.49-4.93c1.65-2.31,3.57-4.37,5.67-5.99l8.49,4.93c-2.1,1.62-4.03,3.68-5.67,5.99Z"/>
            <path class="cls-28" d="M138.3,105.58l-8.49-4.93c.74-.57,1.5-1.09,2.29-1.54l8.49,4.93c-.78,.45-1.54,.97-2.29,1.54Z"/>
          </g>
        </g>
      </g>
      <path class="cls-46" d="M143.18,102.55c8.46-4.88,14.93,.11,13.6,10.49l-7.84,60.99c-.62,4.82-3.72,8.84-6.82,10.64-3.11,1.79-6.22,1.36-6.86-2.73l-8.16-51.76c-1.39-8.81,5.04-21.25,13.5-26.13l2.59-1.49Z"/>
    </g>
    <g class="cls-12">
      <g class="cls-12">
        <path class="cls-17" d="M152.57,102.99l5.91,3.44c-2.51-1.46-5.99-1.25-9.82,.96l-5.91-3.44c3.84-2.22,7.31-2.42,9.82-.96Z"/>
        <g class="cls-34">
          <g class="cls-12">
            <path class="cls-17" d="M148.66,107.39l-5.91-3.44c3.84-2.22,7.31-2.42,9.82-.96l5.91,3.44c-2.51-1.46-5.99-1.25-9.82,.96Z"/>
          </g>
        </g>
      </g>
      <path class="cls-17" d="M150.03,113.17c5.22-3.02,9.48-.59,9.5,5.42,.02,6-4.21,13.33-9.44,16.34-5.22,3.02-9.49,.59-9.5-5.41-.02-6,4.22-13.34,9.44-16.35Z"/>
      <g class="cls-12">
        <path class="cls-17" d="M138.92,140.09l-5.91-3.44c-2.48-1.44-4.02-4.5-4.03-8.86-.02-8.76,6.14-19.44,13.77-23.85l5.91,3.44c-7.63,4.4-13.79,15.08-13.77,23.85,.01,4.35,1.55,7.41,4.03,8.85Z"/>
        <g class="cls-2">
          <g class="cls-12">
            <path class="cls-17" d="M138.92,140.09l-5.91-3.44c-2.2-1.28-3.66-3.84-3.97-7.44l5.91,3.44c.31,3.6,1.77,6.16,3.97,7.44Z"/>
            <path class="cls-17" d="M134.95,132.65l-5.91-3.44c-.04-.45-.06-.93-.06-1.41-.02-7.56,4.56-16.54,10.71-21.69l5.91,3.44c-6.15,5.15-10.73,14.13-10.71,21.69,0,.49,.02,.96,.06,1.41Z"/>
            <path class="cls-17" d="M145.6,109.55l-5.91-3.44c.98-.82,2.01-1.55,3.06-2.16l5.91,3.44c-1.05,.61-2.07,1.33-3.06,2.16Z"/>
          </g>
        </g>
      </g>
      <g class="cls-12">
        <path class="cls-8" d="M150.03,113.17l-1.37-5.78c7.63-4.4,13.83-.87,13.85,7.9,.02,8.76-6.14,19.44-13.76,23.84-7.63,4.4-13.83,.87-13.86-7.89-.02-8.76,6.14-19.44,13.77-23.85l1.37,5.78c-5.22,3.01-9.46,10.35-9.44,16.35,.01,6,4.28,8.43,9.5,5.41,5.22-3.01,9.46-10.34,9.44-16.34-.01-6.01-4.27-8.44-9.5-5.42Z"/>
        <g class="cls-20">
          <g class="cls-12">
            <path class="cls-38" d="M150.03,113.17l-1.37-5.78c7.63-4.4,13.83-.87,13.85,7.9,.02,8.76-6.14,19.44-13.76,23.84-7.63,4.4-13.83,.87-13.86-7.89-.02-8.76,6.14-19.44,13.77-23.85l1.37,5.78c-5.22,3.01-9.46,10.35-9.44,16.35,.01,6,4.28,8.43,9.5,5.41,5.22-3.01,9.46-10.34,9.44-16.34-.01-6.01-4.27-8.44-9.5-5.42Z"/>
          </g>
        </g>
      </g>
    </g>
    <g>
      <path class="cls-6" d="M147.79,58.16l-15.33-50.04,15.33,50.04Z"/>
      <rect class="cls-30" x="138.62" y="6.97" width="3.01" height="52.34" transform="translate(-3.56 42.49) rotate(-17.03)"/>
    </g>
    <g>
      <path class="cls-7" d="M166.05,215.3c-14.06-8.69-17.23-20.35-18.58-25.33,1.09,4.78,4.83,9.53,11.21,13.37,15.94,9.59,42.33,9.86,58.95,.6,7.13-3.98,11.31-9.07,12.48-14.34-1.08,4.13-2.71,10.38-8.94,17.6-2.36,2.73-7.56,7.82-15.87,11.15-12.64,5.07-28.04,3.87-39.25-3.05Z"/>
      <path class="cls-32" d="M217.9,101.35c15.54,9.35,15.01,24.26-1.19,33.29-16.2,9.03-41.92,8.77-57.46-.58-15.54-9.35-15.01-24.26,1.19-33.29,16.2-9.03,41.92-8.77,57.46,.58Z"/>
      <g class="cls-12">
        <path class="cls-1" d="M147.44,189.83l-12.53-54.75c1.46,6.38,6.32,12.56,14.61,17.55,20.71,12.47,55,12.81,76.59,.77,9.27-5.17,14.69-11.78,16.22-18.63l-12.22,54.82c-1.18,5.27-5.35,10.36-12.48,14.34-16.61,9.26-43.01,9-58.95-.6-6.38-3.84-10.12-8.59-11.24-13.51Z"/>
      </g>
      <path class="cls-37" d="M153.78,99.9c21.16-11.49,51.12-11.15,71.24,.81-1.79-1.08-4.3-1-7.12,.57-15.54-9.35-41.27-9.61-57.46-.58-16.2,9.03-16.73,23.93-1.19,33.29,15.54,9.35,41.27,9.61,57.46,.58,16.2-9.03,16.73-23.93,1.19-33.29,2.82-1.57,5.33-1.65,7.12-.57,4.21,2.72,10.58,6.84,15.01,15.5,4.13,8.08,2.88,15.33,2.34,18.43-1.57,7.03-6.99,13.64-16.26,18.8-21.59,12.04-55.88,11.69-76.59-.77-8.28-4.98-13.14-11.15-14.61-17.53-.52-2.78-1.01-5.41-.51-9.53,.62-5.16,2.68-9.06,2.77-9.22,1.54-2.88,5.64-10.53,16.6-16.48Z"/>
    </g>
    <g>
      <path class="cls-28" d="M211.13,33.77c11.92,7.17,11.51,18.61-.91,25.53-12.42,6.93-32.16,6.73-44.08-.45-11.92-7.17-11.51-18.6,.91-25.53,12.42-6.93,32.16-6.73,44.08,.45Z"/>
      <g class="cls-12">
        <path class="cls-1" d="M150.39,119.3c-19.19-11.87-23.4-27.58-23.55-38.67,.03,8.91,5.75,17.81,17.23,24.72,23.66,14.24,62.84,14.64,87.5,.89,12.69-7.08,19.07-16.52,19.04-25.97-.21,5.8-.53,8.8-2.86,15.3-1.83,5.09-5.09,9.42-6.85,11.75-.82,1.09-8.43,10.78-23.12,16.51-25.48,9.92-52.2,4.88-67.39-4.52Z"/>
      </g>
      <path class="cls-32" d="M152.16,31.53c11.24-6.12,23.85-9.13,37.49-8.95,14.01,.18,26.59,3.51,37.38,9.91-4.04-2.43-9.68-2.2-15.91,1.28-11.92-7.17-31.65-7.37-44.08-.45-12.42,6.93-12.83,18.36-.91,25.53,11.92,7.17,31.65,7.37,44.08,.45,12.42-6.93,12.83-18.36,.91-25.53,6.23-3.48,11.87-3.71,15.91-1.28,5.69,3.67,23,14.85,23.55,38.67,.03,9.44-6.35,18.89-19.04,25.97-24.66,13.75-63.84,13.36-87.5-.88-11.48-6.91-17.2-15.82-17.23-24.72,.13-3.46,.27-7.39,1.79-12.18,1.79-5.68,3.34-8.12,5.9-12.16,2.02-3.19,8.31-10.56,17.66-15.65Z"/>
      <path class="cls-17" d="M200.88,106.47c-20.04,2.36-41.64-1.08-56.83-10.23-11.42-6.87-17.14-15.72-17.23-24.57-.02-5.75,2.35-11.06,6.34-15.31,.08,7.94,5.21,15.87,15.45,22.04,13.63,8.2,33,11.28,50.97,9.17,.8,6.5,1.28,13.15,1.3,18.9Z"/>
      <g class="cls-12">
        <path class="cls-37" d="M126.84,80.63l-.03-9.1c.03,8.91,5.75,17.81,17.23,24.72,23.66,14.24,62.84,14.64,87.5,.88,12.69-7.08,19.07-16.52,19.04-25.97l.03,9.1c.03,9.44-6.35,18.89-19.04,25.97-24.66,13.75-63.84,13.36-87.5-.89-11.48-6.91-17.2-15.82-17.23-24.72Z"/>
      </g>
      <g>
        <path class="cls-8" d="M136.87,80.9c-1.22,3.44-3.3,3.67-4.74,.52-2.41-5.25,.04-11.59,3.17-10.69,.57,.16,.87,.49,1.18,.84,2,2.85,.93,7.81,.39,9.33Z"/>
        <path class="cls-8" d="M171.95,96.46c-.91,5.16-7.4,6.03-10.68,1.43-3.42-4.8,.33-10.34,5.12-9.74,.18,.02,.41,.07,.58,.1,4.22,1.22,5.45,5.54,4.98,8.21Z"/>
      </g>
    </g>
    <path class="cls-17" d="M229.75,74.26c0-3.06-2.15-4.29-4.79-2.77s-4.79,5.24-4.79,8.3,2.15,4.29,4.79,2.77c2.65-1.53,4.79-5.24,4.79-8.3Z"/>
    <g>
      <path class="cls-6" d="M225.58,77.09l34.93-26.22-34.93,26.22Z"/>
      <path class="cls-30" d="M225.58,78.6c-.46,0-.91-.21-1.21-.6-.5-.67-.36-1.61,.3-2.11l34.93-26.22c.66-.5,1.61-.37,2.11,.3,.5,.66,.36,1.61-.3,2.11l-34.93,26.22c-.27,.2-.59,.3-.9,.3Z"/>
    </g>
    <path class="cls-17" d="M269.38,49c0-4.49-3.64-8.12-8.12-8.12s-8.12,3.64-8.12,8.12,3.64,8.12,8.12,8.12,8.12-3.64,8.12-8.12Z"/>
    <path class="cls-17" d="M139.85,8.12c0-4.49-3.64-8.12-8.12-8.12s-8.12,3.64-8.12,8.12,3.64,8.12,8.12,8.12,8.12-3.64,8.12-8.12Z"/>
    <g class="cls-12">
      <g class="cls-12">
        <path class="cls-17" d="M236.94,132.15l5.91,3.44c-2.51-1.46-5.99-1.25-9.82,.96l-5.91-3.44c3.84-2.22,7.31-2.42,9.82-.96Z"/>
        <g class="cls-27">
          <g class="cls-12">
            <path class="cls-17" d="M233.03,136.55l-5.91-3.44c3.84-2.22,7.31-2.42,9.82-.96l5.91,3.44c-2.51-1.46-5.99-1.25-9.82,.96Z"/>
          </g>
        </g>
      </g>
      <path class="cls-8" d="M234.4,142.33c5.22-3.02,9.48-.59,9.5,5.42,.02,6-4.21,13.33-9.44,16.34-5.23,3.02-9.49,.59-9.5-5.41-.02-6,4.22-13.34,9.44-16.35Z"/>
      <g class="cls-12">
        <path class="cls-17" d="M223.29,169.25l-5.91-3.44c-2.48-1.44-4.02-4.5-4.03-8.85-.02-8.76,6.14-19.44,13.77-23.85l5.91,3.44c-7.63,4.4-13.79,15.08-13.77,23.85,.01,4.35,1.55,7.41,4.03,8.85Z"/>
        <g class="cls-45">
          <g class="cls-12">
            <path class="cls-17" d="M223.29,169.25l-5.91-3.44c-2.2-1.28-3.66-3.84-3.97-7.44l5.91,3.44c.31,3.6,1.77,6.16,3.97,7.44Z"/>
            <path class="cls-17" d="M219.32,161.81l-5.91-3.44c-.04-.45-.06-.93-.06-1.41-.02-7.56,4.56-16.54,10.71-21.69l5.91,3.44c-6.15,5.15-10.73,14.13-10.71,21.69,0,.49,.02,.96,.06,1.41Z"/>
            <path class="cls-17" d="M229.97,138.7l-5.91-3.44c.98-.82,2.01-1.55,3.06-2.16l5.91,3.44c-1.05,.61-2.07,1.33-3.06,2.16Z"/>
          </g>
        </g>
      </g>
      <g class="cls-12">
        <path class="cls-8" d="M234.4,142.33l-1.37-5.78c7.63-4.4,13.83-.86,13.85,7.9,.02,8.76-6.14,19.43-13.76,23.84-7.63,4.4-13.83,.87-13.86-7.89-.02-8.76,6.14-19.44,13.77-23.85l1.37,5.78c-5.22,3.01-9.46,10.35-9.44,16.35,.01,6,4.28,8.43,9.5,5.41,5.22-3.01,9.46-10.34,9.44-16.34-.01-6.01-4.27-8.44-9.5-5.42Z"/>
        <g class="cls-26">
          <g class="cls-12">
            <path class="cls-38" d="M234.4,142.33l-1.37-5.78c7.63-4.4,13.83-.86,13.85,7.9,.02,8.76-6.14,19.43-13.76,23.84-7.63,4.4-13.83,.87-13.86-7.89-.02-8.76,6.14-19.44,13.77-23.85l1.37,5.78c-5.22,3.01-9.46,10.35-9.44,16.35,.01,6,4.28,8.43,9.5,5.41,5.22-3.01,9.46-10.34,9.44-16.34-.01-6.01-4.27-8.44-9.5-5.42Z"/>
          </g>
        </g>
      </g>
    </g>
    <g class="cls-12">
      <g class="cls-12">
        <path class="cls-37" d="M237,223.39l-8.49-4.93c-.93-.54-1.62-1.61-1.89-3.3l8.49,4.93c.27,1.69,.95,2.76,1.89,3.3Z"/>
        <g class="cls-13">
          <g class="cls-12">
            <path class="cls-37" d="M237,223.39l-8.49-4.93c-.93-.54-1.61-1.6-1.88-3.27l8.49,4.93c.27,1.67,.95,2.73,1.88,3.27Z"/>
            <path class="cls-37" d="M235.12,220.12l-8.49-4.93s0-.02,0-.03l8.49,4.93s0,.02,0,.03Z"/>
          </g>
        </g>
      </g>
      <g>
        <path class="cls-37" d="M244.31,134.81l8.49,4.93c-2.48-1.44-5.91-1.26-9.76,.96l-8.49-4.93c3.85-2.22,7.28-2.4,9.76-.96Z"/>
        <g class="cls-18">
          <g class="cls-12">
            <path class="cls-37" d="M243.04,140.7l-8.49-4.93c3.85-2.22,7.28-2.4,9.76-.96l8.49,4.93c-2.48-1.44-5.91-1.26-9.76,.96Z"/>
          </g>
        </g>
      </g>
      <polygon class="cls-37" points="235.12 220.09 226.63 215.15 218.47 163.39 226.96 168.33 235.12 220.09"/>
      <polygon class="cls-28" points="240.45 142.2 231.96 137.26 234.55 135.77 243.04 140.7 240.45 142.2"/>
      <g class="cls-12">
        <path class="cls-28" d="M226.96,168.33l-8.49-4.93c-1.39-8.81,5.04-21.25,13.5-26.13l8.49,4.93c-8.46,4.88-14.89,17.32-13.5,26.13Z"/>
        <g class="cls-23">
          <g class="cls-12">
            <path class="cls-28" d="M226.96,168.33l-8.49-4.93c-.42-2.68-.12-5.69,.74-8.73l8.49,4.93c-.86,3.03-1.16,6.05-.74,8.73Z"/>
            <path class="cls-28" d="M227.7,159.6l-8.49-4.93c.97-3.42,2.64-6.86,4.8-9.88l8.49,4.93c-2.15,3.02-3.83,6.46-4.8,9.88Z"/>
            <path class="cls-28" d="M232.49,149.72l-8.49-4.93c1.65-2.31,3.57-4.37,5.67-5.99l8.49,4.93c-2.1,1.62-4.03,3.68-5.67,5.99Z"/>
            <path class="cls-28" d="M238.17,143.73l-8.49-4.93c.74-.57,1.51-1.09,2.29-1.54l8.49,4.93c-.78,.45-1.54,.97-2.29,1.54Z"/>
          </g>
        </g>
      </g>
      <path class="cls-46" d="M243.04,140.7c8.46-4.88,14.93,.11,13.6,10.49l-7.84,60.99c-.62,4.82-3.72,8.84-6.82,10.64-3.11,1.79-6.22,1.36-6.86-2.73l-8.16-51.76c-1.39-8.81,5.04-21.24,13.5-26.13l2.59-1.49Z"/>
    </g>
  </g>
</svg>