<svg xmlns="http://www.w3.org/2000/svg" version="1.1" xmlns:xlink="http://www.w3.org/1999/xlink" width="512" height="512" x="0" y="0" viewBox="0 0 682.667 682.667" style="enable-background:new 0 0 512 512" xml:space="preserve" class=""><g><defs><clipPath id="a" clipPathUnits="userSpaceOnUse"><path d="M0 512h512V0H0Z" fill="#525eed" opacity="1" data-original="#000000"></path></clipPath><clipPath id="b" clipPathUnits="userSpaceOnUse"><path d="M0 512h512V0H0Z" fill="#525eed" opacity="1" data-original="#000000"></path></clipPath><clipPath id="c" clipPathUnits="userSpaceOnUse"><path d="M0 512h512V0H0Z" fill="#525eed" opacity="1" data-original="#000000"></path></clipPath></defs><g clip-path="url(#a)" transform="matrix(1.33333 0 0 -1.33333 0 682.667)"><path d="M0 0v14.48" style="stroke-linecap: round; stroke-linejoin: round; stroke-miterlimit: 10; stroke-dasharray: none; stroke-opacity: 1;" transform="translate(161.924 487.089)" fill="none" stroke="#525EED" stroke-width="15px" stroke-linecap="round" stroke-linejoin="round" stroke-miterlimit="10" stroke-dasharray="none" stroke-opacity="" data-original="#000000" class="" opacity="1"></path></g><path d="m0 0 10.24 10.239" style="stroke-linecap: round; stroke-linejoin: round; stroke-miterlimit: 10; stroke-dasharray: none; stroke-opacity: 1;" transform="matrix(1.33333 0 0 -1.33333 342.97 85.85)" fill="none" stroke="#525EED" stroke-width="15px" stroke-linecap="round" stroke-linejoin="round" stroke-miterlimit="10" stroke-dasharray="none" stroke-opacity="" data-original="#000000" class="" opacity="1"></path><path d="m0 0 10.239 10.239" style="stroke-linecap: round; stroke-linejoin: round; stroke-miterlimit: 10; stroke-dasharray: none; stroke-opacity: 1;" transform="matrix(1.33333 0 0 -1.33333 75.175 353.646)" fill="none" stroke="#525EED" stroke-width="15px" stroke-linecap="round" stroke-linejoin="round" stroke-miterlimit="10" stroke-dasharray="none" stroke-opacity="" data-original="#000000" class="" opacity="1"></path><path d="M0 0h14.48" style="stroke-linecap: round; stroke-linejoin: round; stroke-miterlimit: 10; stroke-dasharray: none; stroke-opacity: 1;" transform="matrix(1.33333 0 0 -1.33333 395.605 212.922)" fill="none" stroke="#525EED" stroke-width="15px" stroke-linecap="round" stroke-linejoin="round" stroke-miterlimit="10" stroke-dasharray="none" stroke-opacity="" data-original="#000000" class="" opacity="1"></path><g clip-path="url(#b)" transform="matrix(1.33333 0 0 -1.33333 0 682.667)"><path d="M0 0h14.481" style="stroke-linecap: round; stroke-linejoin: round; stroke-miterlimit: 10; stroke-dasharray: none; stroke-opacity: 1;" transform="translate(12.663 352.309)" fill="none" stroke="#525EED" stroke-width="15px" stroke-linecap="round" stroke-linejoin="round" stroke-miterlimit="10" stroke-dasharray="none" stroke-opacity="" data-original="#000000" class="" opacity="1"></path></g><path d="m0 0 9.383-9.383" style="stroke-linecap: round; stroke-linejoin: round; stroke-miterlimit: 10; stroke-dasharray: none; stroke-opacity: 1;" transform="matrix(1.33333 0 0 -1.33333 342.97 339.993)" fill="none" stroke="#525EED" stroke-width="15px" stroke-linecap="round" stroke-linejoin="round" stroke-miterlimit="10" stroke-dasharray="none" stroke-opacity="" data-original="#000000" class="" opacity="1"></path><path d="m0 0 10.239-10.239" style="stroke-linecap: round; stroke-linejoin: round; stroke-miterlimit: 10; stroke-dasharray: none; stroke-opacity: 1;" transform="matrix(1.33333 0 0 -1.33333 75.175 72.197)" fill="none" stroke="#525EED" stroke-width="15px" stroke-linecap="round" stroke-linejoin="round" stroke-miterlimit="10" stroke-dasharray="none" stroke-opacity="" data-original="#000000" class="" opacity="1"></path><g clip-path="url(#c)" transform="matrix(1.33333 0 0 -1.33333 0 682.667)"><path d="m0 0-197.222.188c-9.789.01-17.719 7.948-17.719 17.737v24.394c0 10.441 8.973 18.622 19.369 17.661L1.65 41.744c9.124-.844 16.103-8.498 16.103-17.661v-6.347C17.753 7.934 9.802-.009 0 0Z" style="stroke-linecap: round; stroke-linejoin: round; stroke-miterlimit: 10; stroke-dasharray: none; stroke-opacity: 1;" transform="translate(357.4 7.5)" fill="none" stroke="#525EED" stroke-width="15px" stroke-linecap="round" stroke-linejoin="round" stroke-miterlimit="10" stroke-dasharray="none" stroke-opacity="" data-original="#000000" class="" opacity="1"></path><path d="M0 0c-10.244 0-18.548 8.304-18.548 18.548 0 10.244 8.304 18.548 18.548 18.548 10.244 0 18.548-8.304 18.548-18.548C18.548 8.304 10.244 0 0 0Zm54.803 31.862c-8.362 0-12.55 10.11-6.637 16.023 4.099 4.099 4.099 10.745 0 14.844l-3.984 3.985c-4.099 4.099-10.745 4.099-14.845 0-5.913-5.913-16.023-1.725-16.023 6.637 0 5.797-4.699 10.496-10.497 10.496h-5.634c-5.797 0-10.497-4.699-10.497-10.496 0-8.362-10.11-12.55-16.023-6.637v0c-4.099 4.099-10.745 4.099-14.844 0l-3.985-3.985c-4.099-4.099-4.099-10.745 0-14.844 5.914-5.913 1.726-16.023-6.637-16.023-5.797 0-10.496-4.699-10.496-10.497V15.73c0-5.796 4.699-10.496 10.496-10.496 8.363 0 12.551-10.11 6.637-16.024-4.099-4.099-4.099-10.744 0-14.843l3.985-3.985c4.099-4.099 10.745-4.099 14.844 0v0c5.913 5.913 16.023 1.725 16.023-6.637 0-5.797 4.7-10.496 10.497-10.496h5.634c5.798 0 10.497 4.699 10.497 10.496 0 8.362 10.11 12.55 16.023 6.637 4.1-4.099 10.746-4.099 14.845 0l3.984 3.985c4.099 4.099 4.099 10.744 0 14.843-5.913 5.914-1.725 16.024 6.637 16.024 5.797 0 10.496 4.7 10.496 10.496v5.635c0 5.798-4.699 10.497-10.496 10.497z" style="stroke-linecap: round; stroke-linejoin: round; stroke-miterlimit: 10; stroke-dasharray: none; stroke-opacity: 1;" transform="translate(161.924 331.646)" fill="none" stroke="#525EED" stroke-width="15px" stroke-linecap="round" stroke-linejoin="round" stroke-miterlimit="10" stroke-dasharray="none" stroke-opacity="" data-original="#000000" class="" opacity="1"></path><path d="M0 0v24.814c0 11.481 10.191 20.287 21.55 18.621l52.399-7.685c18.868-2.768 35.796 11.857 35.797 30.927l.002 60.618c.001 11.926 9.73 21.561 21.655 21.446v0c15.862 0 26.302 16.538 19.481 30.858l-22.387 46.996a21.437 21.437 0 0 0-2.083 8.958l-.428 34.517c0 100.606-80.784 183.66-181.39 184.009-33.915.117-65.679-9.044-92.904-25.087" style="stroke-linecap: round; stroke-linejoin: round; stroke-miterlimit: 10; stroke-dasharray: none; stroke-opacity: 1;" transform="translate(346.33 50.42)" fill="none" stroke="#525EED" stroke-width="15px" stroke-linecap="round" stroke-linejoin="round" stroke-miterlimit="10" stroke-dasharray="none" stroke-opacity="" data-original="#000000" class="" opacity="1"></path><path d="M0 0v-31.713" style="stroke-linecap: round; stroke-linejoin: round; stroke-miterlimit: 10; stroke-dasharray: none; stroke-opacity: 1;" transform="translate(172.78 98.18)" fill="none" stroke="#525EED" stroke-width="15px" stroke-linecap="round" stroke-linejoin="round" stroke-miterlimit="10" stroke-dasharray="none" stroke-opacity="" data-original="#000000" class="" opacity="1"></path><path d="M0 0c5.5 23.045 16.34 44.66 31.787 63.068 15.262 18.188 24.454 41.641 24.454 67.243 0 58.314-47.679 105.492-106.181 104.676-57.393-.8-103.793-48.41-103.187-105.804.263-24.924 9.237-47.757 24.022-65.603 15.464-18.668 26.516-40.396 32.136-63.584" style="stroke-linecap: round; stroke-linejoin: round; stroke-miterlimit: 10; stroke-dasharray: none; stroke-opacity: 1;" transform="translate(210.37 221.56)" fill="none" stroke="#525EED" stroke-width="15px" stroke-linecap="round" stroke-linejoin="round" stroke-miterlimit="10" stroke-dasharray="none" stroke-opacity="" data-original="#000000" class="" opacity="1"></path><path d="M0 0h-95.882c-5.296 0-9.589 4.293-9.589 9.588V45.82c0 5.296 4.293 9.588 9.589 9.588H0a9.588 9.588 0 0 0 9.588-9.588V9.588C9.588 4.293 5.295 0 0 0Z" style="stroke-linecap: round; stroke-linejoin: round; stroke-miterlimit: 10; stroke-dasharray: none; stroke-opacity: 1;" transform="translate(209.865 166.176)" fill="none" stroke="#525EED" stroke-width="15px" stroke-linecap="round" stroke-linejoin="round" stroke-miterlimit="10" stroke-dasharray="none" stroke-opacity="" data-original="#000000" class="" opacity="1"></path><path d="M0 0v-2.259C0-19.187 13.723-32.91 30.65-32.91h31.691c16.928 0 30.65 13.723 30.65 30.651V0" style="stroke-linecap: round; stroke-linejoin: round; stroke-miterlimit: 10; stroke-dasharray: none; stroke-opacity: 1;" transform="translate(116.483 166.176)" fill="none" stroke="#525EED" stroke-width="15px" stroke-linecap="round" stroke-linejoin="round" stroke-miterlimit="10" stroke-dasharray="none" stroke-opacity="" data-original="#000000" class="" opacity="1"></path></g></g></svg>