<svg width="1557" height="298" viewBox="0 0 1557 298" fill="none" xmlns="http://www.w3.org/2000/svg">
<path d="M30.9987 269.783C30.9987 269.783 29.4527 115.966 102.164 93.0508C174.875 70.1358 140.745 164.446 250.553 185.069C264.095 187.612 365.112 261.003 421.201 253.456C502.735 242.486 563.712 170.602 643.784 169.243C683.89 168.563 750.625 189.58 807.012 229.682C827.312 244.118 922.836 277.943 1037.01 269.782C1097.41 265.467 1134.29 187.333 1203.21 169.243C1274.99 150.405 1431.94 203.52 1482.18 169.243C1544.67 126.61 1534.12 40.6328 1534.12 40.6328" stroke="white" stroke-width="2" stroke-dasharray="10 10"/>
<path d="M26 297.039C40.3594 297.039 52 285.398 52 271.039C52 256.68 40.3594 245.039 26 245.039C11.6406 245.039 0 256.68 0 271.039C0 285.398 11.6406 297.039 26 297.039Z" fill="white"/>
<path d="M1548.27 14.4899C1548.27 14.4899 1552.4 26.7769 1542.93 40.1839C1537.02 48.5488 1522.6 58.1018 1500.12 45.8883C1500.12 45.8883 1509.39 49.2892 1516.87 49.0959C1516.87 49.0959 1516.79 46.4354 1509.78 42.8882C1500.59 38.2385 1503.02 36.5501 1507.23 33.0404C1513.14 28.095 1517.5 26.2855 1531.71 41.9599C1531.71 41.9599 1527.06 32.8035 1529.65 23.093C1531.46 16.3394 1539.67 9.22588 1548.27 14.4899Z" fill="url(#paint0_linear_567_75)"/>
<path d="M1550.94 18.7703C1550.94 18.7703 1553.16 25.9689 1544.47 38.1278C1537.21 48.2727 1515.01 53.1433 1499.89 42.6427C1499.89 42.6427 1510.09 47.9733 1517.34 47.1321C1517.34 47.1321 1517.51 45.1853 1511.07 43.2331C1502.61 40.6764 1505.13 39.2078 1509.52 36.2369C1515.71 32.0506 1520.09 30.3139 1532.36 40.4997C1531.3 38.386 1530.72 36.0583 1530.68 33.691C1530.64 31.3237 1531.14 28.9783 1532.14 26.8304C1534.51 21.6978 1543.12 15.7051 1550.94 18.7703Z" fill="url(#paint1_linear_567_75)"/>
<path opacity="0.3" d="M1552.41 18.789C1552.41 18.789 1554.19 30.6818 1542.42 41.5602C1535.08 48.348 1518.41 51.985 1498.18 43.0366C1498.18 43.0366 1509.44 46.2805 1515.21 45.8267C1515.21 45.8267 1515.63 43.3735 1509.41 39.0652C1501.25 33.4167 1503.96 32.2354 1508.72 29.6454C1515.44 25.999 1520.06 24.9917 1531.09 41.5068C1531.09 41.5068 1528.22 32.4085 1532.56 23.8865C1535.58 17.9545 1544.95 12.6613 1552.41 18.789Z" fill="white"/>
<defs>
<linearGradient id="paint0_linear_567_75" x1="1658.25" y1="287.899" x2="1695.03" y2="307.435" gradientUnits="userSpaceOnUse">
<stop stop-color="white"/>
<stop offset="0.0001" stop-color="white"/>
</linearGradient>
<linearGradient id="paint1_linear_567_75" x1="1415" y1="193.553" x2="1461.26" y2="229.21" gradientUnits="userSpaceOnUse">
<stop stop-color="white"/>
<stop offset="0.0001" stop-color="white"/>
</linearGradient>
</defs>
</svg>
