<svg xmlns="http://www.w3.org/2000/svg" version="1.1" xmlns:xlink="http://www.w3.org/1999/xlink" xmlns:svgjs="http://svgjs.com/svgjs" width="512" height="512" x="0" y="0" viewBox="0 0 512 512" style="enable-background:new 0 0 512 512" xml:space="preserve" class=""><g><path d="M115.559 192.851a8 8 0 0 0 6.628 7.881l58.789 10.234c.453.079.912.119 1.372.119h147.305c.46 0 .919-.04 1.372-.119l58.789-10.234a8 8 0 0 0 6.628-7.881v-24.727a8 8 0 0 0-8-8h-5.915V27.262C382.526 16.641 373.886 8 363.265 8h-214.53c-10.621 0-19.262 8.641-19.262 19.262v132.862h-5.915a8 8 0 0 0-8 8v24.727zm264.882-6.728-51.48 8.961H183.039l-51.48-8.961v-10h248.883v10zM145.474 27.262c0-1.768 1.494-3.262 3.262-3.262h214.529c1.768 0 3.262 1.494 3.262 3.262v132.862H145.474zm312.505 416.885v37.864a8 8 0 0 1-8 8h-168.47a8 8 0 0 1 0-16H441.98v-29.864a8 8 0 0 1 15.999 0zm-63.572-369.64a8 8 0 0 1 8-8h47.571a8 8 0 0 1 8 8V224.04a8 8 0 0 1-16 0V82.507h-39.571a8 8 0 0 1-8-8zM51.728 211.212l.588-136.739a8 8 0 0 1 8-7.966h47.572a8 8 0 0 1 0 16H68.281l-.554 128.773a8.001 8.001 0 0 1-7.999 7.966h-.035a8 8 0 0 1-7.965-8.034zM39.192 319.679a8 8 0 0 1 8-8h130.392a8 8 0 0 1 0 16H47.192a8 8 0 0 1-8-8zm0 37.175a8 8 0 0 1 8-8h130.392a8 8 0 0 1 0 16H47.192a8 8 0 0 1-8-8zm0-74.349a8 8 0 0 1 8-8h130.392a8 8 0 0 1 0 16H47.192a8 8 0 0 1-8-8zm456.987 31.753-12.375-4.764a91.158 91.158 0 0 0-7.85-18.935l5.386-12.127a8 8 0 0 0-1.655-8.904l-18.708-18.708a8 8 0 0 0-8.904-1.655l-12.132 5.388a91.238 91.238 0 0 0-18.928-7.848l-4.766-12.379a8 8 0 0 0-7.466-5.126h-26.458a8.001 8.001 0 0 0-7.466 5.126l-4.766 12.379a91.27 91.27 0 0 0-18.929 7.848l-12.132-5.388a7.997 7.997 0 0 0-8.904 1.655l-18.709 18.709a8 8 0 0 0-1.654 8.904l5.388 12.13a91.242 91.242 0 0 0-7.848 18.93l-12.379 4.765a8 8 0 0 0-5.126 7.466v26.458a8 8 0 0 0 5.126 7.466l12.376 4.764a91.122 91.122 0 0 0 7.85 18.935l-5.387 12.126a7.999 7.999 0 0 0 1.655 8.904l18.71 18.709a7.999 7.999 0 0 0 8.903 1.655l12.132-5.388a91.212 91.212 0 0 0 18.928 7.847l4.766 12.379a7.998 7.998 0 0 0 7.466 5.126h26.458a8 8 0 0 0 7.466-5.126l4.764-12.375a91.158 91.158 0 0 0 18.935-7.85l12.127 5.386a8 8 0 0 0 8.904-1.654l18.709-18.709a8 8 0 0 0 1.654-8.904l-5.388-12.132a91.267 91.267 0 0 0 7.847-18.928l12.38-4.765a8 8 0 0 0 5.126-7.466v-26.458a8 8 0 0 0-5.126-7.466zm-10.874 28.431-11.073 4.262a7.996 7.996 0 0 0-4.908 5.614 75.31 75.31 0 0 1-9.157 22.086 8.002 8.002 0 0 0-.499 7.441l4.82 10.854-10.94 10.941-10.85-4.818a7.993 7.993 0 0 0-7.442.5 75.301 75.301 0 0 1-22.092 9.158 8 8 0 0 0-5.614 4.909l-4.261 11.069h-15.472l-4.263-11.073a8.002 8.002 0 0 0-5.613-4.909 75.321 75.321 0 0 1-22.087-9.157 8.002 8.002 0 0 0-7.441-.499l-10.854 4.821-10.941-10.941 4.819-10.849a8 8 0 0 0-.5-7.443 75.28 75.28 0 0 1-9.159-22.092 7.997 7.997 0 0 0-4.908-5.613l-11.069-4.261v-15.473l11.072-4.262a7.996 7.996 0 0 0 4.908-5.614 75.288 75.288 0 0 1 9.157-22.087 8.001 8.001 0 0 0 .5-7.442l-4.82-10.853 10.94-10.941 10.854 4.821a8.002 8.002 0 0 0 7.441-.499 75.295 75.295 0 0 1 22.086-9.157 8 8 0 0 0 5.614-4.909l4.263-11.073h15.473l4.263 11.073a8.002 8.002 0 0 0 5.613 4.909 75.344 75.344 0 0 1 22.087 9.157 8.003 8.003 0 0 0 7.441.499l10.854-4.821 10.94 10.941-4.818 10.85a8.001 8.001 0 0 0 .5 7.442 75.262 75.262 0 0 1 9.157 22.091 8 8 0 0 0 4.909 5.614l11.069 4.261v15.473zm-89.753-61.88c-29.854 0-54.144 24.289-54.144 54.144 0 29.854 24.289 54.143 54.144 54.143s54.144-24.289 54.144-54.143c-.001-29.855-24.29-54.144-54.144-54.144zm0 92.287c-21.032 0-38.144-17.111-38.144-38.143s17.111-38.144 38.144-38.144 38.144 17.111 38.144 38.144-17.112 38.143-38.144 38.143zm-181.471 5.441V241.822c0-7.18-5.785-13.021-12.896-13.021H23.592c-7.111 0-12.896 5.841-12.896 13.021v210.812c0 3.491 1.283 6.651 3.707 9.135l27.494 28.193c2.443 2.504 5.706 3.883 9.188 3.883h123.834c9.848 6.413 21.585 10.155 34.188 10.155 34.648 0 62.838-28.189 62.838-62.839-.002-32.974-25.535-60.077-57.864-62.624zm-16-133.736V379.31a62.385 62.385 0 0 0-19.275 6.821 8.07 8.07 0 0 0-1.222-.103H47.192a8 8 0 0 0 0 16h112.801a62.718 62.718 0 0 0-11.097 21.174H47.192a8 8 0 0 0 0 16h99.125c-.021.652-.05 1.302-.05 1.959 0 13.685 4.411 26.353 11.867 36.684H59.047v-21.743c0-5.85-4.759-10.608-10.608-10.608H26.695V244.801zM36.482 461.493h6.564v6.732zM209.105 488c-25.826 0-46.838-21.012-46.838-46.839s21.012-46.839 46.838-46.839 46.838 21.012 46.838 46.839S234.932 488 209.105 488zm32.183-69.754a8 8 0 0 1 0 11.313l-34.515 34.516a8.002 8.002 0 0 1-11.314 0l-18.534-18.534a8 8 0 1 1 11.313-11.313l12.878 12.877 28.857-28.859a8.003 8.003 0 0 1 11.315 0z" fill="#FF414B" data-original="#000000" opacity="1" class=""></path></g></svg>