<svg width="852" height="705" viewBox="0 0 852 705" fill="none" xmlns="http://www.w3.org/2000/svg">
<g clip-path="url(#clip0_17_3)">
<path d="M812.758 294.866H805.736V284.892L803.76 284.468C800.351 283.74 796.935 283.042 793.513 282.376V266.258L791.521 265.845C791.407 265.821 788.39 265.205 783.007 264.306V251.256L781.059 250.815C780.618 250.715 736.239 240.849 680.73 242.777C648.084 243.912 618.001 248.841 591.315 257.425C558.727 267.909 531.162 283.917 509.307 304.995C487.453 283.917 459.887 267.908 427.299 257.425C400.614 248.84 370.53 243.912 337.884 242.777C282.376 240.848 237.997 250.715 237.555 250.815L235.606 251.256V264.306C230.226 265.204 227.207 265.821 227.093 265.845L225.1 266.258V282.376C221.678 283.043 218.262 283.74 214.853 284.469L212.877 284.893V294.867H205.854C200.193 294.867 195.587 299.473 195.587 305.134V692.415C195.587 698.076 200.193 702.683 205.854 702.683H506.806V704.258L509.307 702.987L511.806 704.256V702.683H812.757C818.418 702.683 823.025 698.076 823.025 692.415V305.133C823.026 299.472 818.42 294.866 812.758 294.866ZM511.807 310.027C518.127 307.05 546.086 294.648 590.421 285.903C636.722 276.772 710.672 269.938 800.736 288.936V675.55C710.311 656.645 636.037 663.533 589.455 672.721C548.521 680.793 521.217 692.02 511.808 696.25L511.807 310.027ZM788.513 270.354V281.419C703.624 265.566 633.918 272.228 589.454 280.998C565.985 285.626 547.012 291.289 533.308 296.077C583.055 268.838 643.804 262.263 688.811 261.943C738.667 261.584 779.237 268.61 788.513 270.354ZM680.782 247.777C685.617 247.608 690.455 247.524 695.293 247.525C736.935 247.525 769.848 253.625 778.008 255.281V263.5C760.435 260.774 727.416 256.676 688.881 256.942C645.989 257.238 588.958 263.148 540.174 286.886C585.327 257.633 639.675 249.219 680.782 247.777ZM240.607 255.281C249.698 253.437 289.477 246.082 337.833 247.777C378.94 249.218 433.288 257.632 478.441 286.886C429.657 263.148 372.626 257.238 329.734 256.942C328.541 256.934 327.347 256.93 326.154 256.93C289.177 256.93 257.632 260.859 240.607 263.5V255.281ZM230.101 270.354C239.377 268.61 279.986 261.587 329.803 261.944C374.81 262.264 435.559 268.839 485.306 296.078C471.601 291.289 452.628 285.627 429.16 280.999C384.694 272.23 314.989 265.567 230.101 281.42V270.354ZM217.879 288.936C307.842 269.959 381.72 276.762 427.982 285.862C472.382 294.597 500.468 307.045 506.808 310.028V696.251C497.399 692.021 470.093 680.794 429.161 672.722C404.233 667.806 371.384 663.549 332.365 663.549C298.466 663.549 259.917 666.762 217.88 675.551V288.936H217.879ZM200.589 692.414V305.133C200.59 303.737 201.146 302.398 202.133 301.41C203.121 300.423 204.459 299.868 205.856 299.866H212.879V681.729L215.903 681.08C306.761 661.582 381.382 668.418 427.981 677.586C460.731 684.028 484.589 692.487 497.408 697.682H205.856C204.459 697.68 203.121 697.124 202.133 696.137C201.146 695.149 200.59 693.811 200.589 692.414ZM818.026 692.414C818.024 693.811 817.469 695.15 816.481 696.137C815.494 697.125 814.155 697.68 812.758 697.682H521.198C533.975 692.501 557.742 684.072 590.422 677.627C637.062 668.43 711.754 661.562 802.712 681.08L805.737 681.729V299.866H812.759C814.155 299.868 815.494 300.423 816.482 301.41C817.469 302.398 818.025 303.736 818.027 305.133L818.026 692.414Z" fill="#BBDFFF"/>
<path d="M849.886 697.84H3.02493C2.02293 697.84 1.21094 698.959 1.21094 700.34C1.21094 701.721 2.02293 702.84 3.02493 702.84H849.886C850.888 702.84 851.701 701.721 851.701 700.34C851.701 698.959 850.889 697.84 849.886 697.84Z" fill="#BBDFFF"/>
<path d="M447.881 426.5C426.751 456.55 418.381 493 424.301 529.16L452.711 700.34H245.451C242.241 695.7 240.121 700.34 240.121 700.34H194.681L175.981 558.15L175.341 552.8L173.161 534.74C173.161 532.6 172.881 530.45 172.331 528.36C172.131 527.59 171.901 526.82 171.621 526.07C170.282 522.288 168.085 518.869 165.201 516.08C160.161 511.29 153.671 508.68 146.851 508.68C145.751 508.68 144.631 508.76 143.551 508.89C142.901 508.97 142.251 509.06 141.581 509.2L125.671 512.47L114.231 514.86L114.151 514.9L77.9308 522.34C76.2808 522.69 74.6408 522.87 73.0008 522.87C69.4308 522.87 65.9708 522.08 62.7208 520.52C54.6208 516.56 49.3408 508.18 49.3408 499.18C49.3408 498.17 49.4108 497.16 49.5508 495.99L54.0008 461.92C55.0308 457.16 53.8208 452.16 50.7308 448.44L42.2008 438.33C42.0629 438.168 41.9871 437.963 41.9871 437.75C41.9871 437.537 42.0629 437.332 42.2008 437.17C44.4208 434.49 45.7008 431.11 45.8108 427.67C45.9408 424.13 44.8008 420.55 42.5908 417.67L42.4708 417.52L38.8208 412.45C38.296 411.728 37.7106 411.052 37.0708 410.43C36.9708 410.31 36.8508 410.2 36.7408 410.08C36.4708 409.79 36.3808 409.41 36.4908 409.05L36.6108 408.71L40.8508 389.18L42.2508 382.64C42.6808 381.16 42.8608 379.6 42.7808 378.01L42.7608 377.81C42.7008 376.99 42.5608 376.18 42.3608 375.43V374.84L42.0808 374.26V372.98L40.6208 371.45C40.5708 371.35 40.3008 370.96 40.2308 370.86L39.8708 370.32L39.6608 370.12C39.5208 369.94 39.3508 369.75 39.1708 369.55C38.8308 369.18 38.5108 368.89 38.2708 368.67L38.1308 368.53L37.9308 368.36C37.6008 368.09 37.2508 367.82 36.8608 367.55C36.3908 367.21 35.7908 366.86 35.1908 366.55L35.0508 366.49C34.7208 366.33 34.2408 366.1 33.6308 365.89L32.9408 365.65L17.0308 363.48V362.52H14.8308V361.5L9.82079 361.49C8.76079 360.51 8.05079 359.18 7.79079 357.68L7.75079 357.4C7.71079 357.04 7.69079 356.71 7.70079 356.4L7.74078 355.98C7.86078 354.68 8.39079 353.32 9.29079 352.1L9.53079 351.78L60.9708 262.85C65.5508 256.06 67.2108 247.66 65.5408 239.75L65.4608 239.33L65.4308 239.29C65.3708 239.02 65.2708 238.66 65.1208 238.27L58.9308 221.66C56.6098 215.398 56.0394 208.622 57.2808 202.06C57.2808 202.06 88.3408 79.95 144.551 36.19C176.611 16.13 215.691 3.75 254.581 1.34C259.611 1.02 264.731 0.849998 269.821 0.849998C319.921 0.849998 371.261 15.95 418.271 44.49C450.181 63.85 506.081 106.33 521.811 173.2C532.181 217.22 515.471 303.58 494.161 348.48C482.161 373.89 467.021 399.41 447.881 426.5Z" fill="#618DCF"/>
<g opacity="0.25">
<path d="M321.301 494.43C315.841 494.43 311.401 498.87 311.401 504.33C311.401 508.93 314.551 512.79 318.801 513.9V590.23L300.201 606.02V700.34H305.201V608.34L323.801 592.55V513.9C328.051 512.79 331.201 508.93 331.201 504.33C331.201 498.87 326.761 494.43 321.301 494.43ZM321.301 509.24C318.591 509.24 316.401 507.04 316.401 504.33C316.401 501.63 318.591 499.43 321.301 499.43C324.001 499.43 326.201 501.63 326.201 504.33C326.201 507.04 324.001 509.24 321.301 509.24ZM410.671 590.23V513.9C414.921 512.79 418.081 508.93 418.081 504.33C418.081 498.87 413.631 494.43 408.171 494.43C402.711 494.43 398.271 498.87 398.271 504.33C398.271 508.93 401.421 512.79 405.671 513.9V592.55L424.271 608.34V700.34H429.271V606.02L410.671 590.23ZM403.271 504.33C403.271 501.63 405.471 499.43 408.171 499.43C410.881 499.43 413.081 501.63 413.081 504.33C413.081 507.04 410.881 509.24 408.171 509.24C405.471 509.24 403.271 507.04 403.271 504.33Z" fill="#BBDFFF"/>
<path d="M321.301 616.12C315.841 616.12 311.401 620.56 311.401 626.02C311.401 630.62 314.551 634.48 318.801 635.59V700.34H323.801V635.59C328.051 634.48 331.201 630.62 331.201 626.02C331.201 620.56 326.761 616.12 321.301 616.12ZM321.301 630.92C318.591 630.92 316.401 628.72 316.401 626.02C316.401 623.32 318.591 621.12 321.301 621.12C324.001 621.12 326.201 623.32 326.201 626.02C326.201 628.72 324.001 630.92 321.301 630.92ZM350.501 590.23V513.9C354.761 512.79 357.911 508.93 357.911 504.33C357.911 498.87 353.461 494.43 348.001 494.43C342.541 494.43 338.101 498.87 338.101 504.33C338.101 508.93 341.251 512.79 345.501 513.9V592.55L364.101 608.34V700.34H369.101V606.02L350.501 590.23ZM343.101 504.33C343.101 501.63 345.301 499.43 348.001 499.43C350.711 499.43 352.911 501.63 352.911 504.33C352.911 507.04 350.711 509.24 348.001 509.24C345.301 509.24 343.101 507.04 343.101 504.33ZM387.701 568.98V490.33L369.101 474.54V352.12C373.351 351.01 376.501 347.15 376.501 342.55C376.501 337.09 372.061 332.65 366.601 332.65C361.141 332.65 356.701 337.09 356.701 342.55C356.701 347.15 359.851 351.01 364.101 352.12V476.86L382.701 492.65V568.98C378.451 570.09 375.301 573.95 375.301 578.55C375.301 584.01 379.741 588.45 385.201 588.45C390.661 588.45 395.101 584.01 395.101 578.55C395.101 573.95 391.951 570.09 387.701 568.98ZM361.701 342.55C361.701 339.85 363.901 337.65 366.601 337.65C369.311 337.65 371.501 339.85 371.501 342.55C371.501 345.26 369.311 347.46 366.601 347.46C363.901 347.46 361.701 345.26 361.701 342.55ZM385.201 583.45C382.501 583.45 380.301 581.25 380.301 578.55C380.301 575.84 382.501 573.64 385.201 573.64C387.901 573.64 390.101 575.84 390.101 578.55C390.101 581.25 387.901 583.45 385.201 583.45ZM302.001 332.65C296.541 332.65 292.101 337.09 292.101 342.55C292.101 347.15 295.251 351.01 299.501 352.12V474.54L280.901 490.33V568.98C276.651 570.09 273.501 573.95 273.501 578.55C273.501 584.01 277.941 588.45 283.401 588.45C288.861 588.45 293.301 584.01 293.301 578.55C293.301 573.95 290.151 570.09 285.901 568.98V492.65L304.501 476.86V352.12C308.751 351.01 311.901 347.15 311.901 342.55C311.901 337.09 307.461 332.65 302.001 332.65ZM288.301 578.55C288.301 581.25 286.101 583.45 283.401 583.45C280.701 583.45 278.501 581.25 278.501 578.55C278.501 575.84 280.701 573.64 283.401 573.64C286.101 573.64 288.301 575.84 288.301 578.55ZM302.001 347.46C299.301 347.46 297.101 345.26 297.101 342.55C297.101 339.85 299.301 337.65 302.001 337.65C304.701 337.65 306.901 339.85 306.901 342.55C306.901 345.26 304.701 347.46 302.001 347.46Z" fill="#BBDFFF"/>
<path d="M348.001 616.12C342.541 616.12 338.101 620.56 338.101 626.02C338.101 630.62 341.251 634.48 345.501 635.59V700.34H350.501V635.59C354.761 634.48 357.911 630.62 357.911 626.02C357.911 620.56 353.461 616.12 348.001 616.12ZM348.001 630.92C345.301 630.92 343.101 628.72 343.101 626.02C343.101 623.32 345.301 621.12 348.001 621.12C350.711 621.12 352.911 623.32 352.911 626.02C352.911 628.72 350.711 630.92 348.001 630.92ZM336.861 457.07V293.75H331.861V457.07C327.611 458.18 324.461 462.04 324.461 466.64C324.461 472.1 328.901 476.54 334.361 476.54C339.821 476.54 344.271 472.1 344.271 466.64C344.271 462.04 341.121 458.18 336.861 457.07ZM334.361 471.54C331.661 471.54 329.461 469.34 329.461 466.64C329.461 463.93 331.661 461.74 334.361 461.74C337.071 461.74 339.271 463.93 339.271 466.64C339.271 469.34 337.071 471.54 334.361 471.54ZM385.201 605.31C379.741 605.31 375.301 609.75 375.301 615.21C375.301 619.81 378.451 623.67 382.701 624.78V700.34H387.701V624.78C391.951 623.67 395.101 619.81 395.101 615.21C395.101 609.75 390.661 605.31 385.201 605.31ZM385.201 620.12C382.501 620.12 380.301 617.92 380.301 615.21C380.301 612.51 382.501 610.31 385.201 610.31C387.901 610.31 390.101 612.51 390.101 615.21C390.101 617.92 387.901 620.12 385.201 620.12Z" fill="#BBDFFF"/>
</g>
<g opacity="0.25">
<path d="M363.365 137.646L352.959 127.239C356.415 121.932 358.862 116.033 360.178 109.838H374.884C375.439 109.838 375.971 109.618 376.363 109.225C376.756 108.833 376.976 108.301 376.976 107.746V90.335C376.976 89.7802 376.756 89.2481 376.363 88.8557C375.971 88.4634 375.439 88.243 374.884 88.243H360.178C358.862 82.0482 356.415 76.1492 352.959 70.842L363.366 60.435C363.56 60.2408 363.714 60.0103 363.82 59.7565C363.925 59.5027 363.979 59.2307 363.979 58.956C363.979 58.6813 363.925 58.4093 363.82 58.1555C363.714 57.9017 363.56 57.6712 363.366 57.477L351.055 45.165C350.662 44.7728 350.13 44.5524 349.575 44.5524C349.021 44.5524 348.488 44.7728 348.096 45.165L337.689 55.572C332.382 52.1164 326.483 49.6691 320.288 48.353V33.647C320.288 33.0922 320.068 32.5601 319.675 32.1677C319.283 31.7754 318.751 31.555 318.196 31.555H300.785C300.23 31.555 299.698 31.7754 299.306 32.1677C298.913 32.5601 298.693 33.0922 298.693 33.647V48.353C292.498 49.6691 286.599 52.1164 281.292 55.572L270.885 45.165C270.492 44.7728 269.96 44.5524 269.405 44.5524C268.851 44.5524 268.318 44.7728 267.926 45.165L255.614 57.477C255.42 57.6712 255.265 57.9017 255.16 58.1555C255.055 58.4093 255.001 58.6813 255.001 58.956C255.001 59.2307 255.055 59.5027 255.16 59.7565C255.265 60.0103 255.42 60.2408 255.614 60.435L266.02 70.842C262.564 76.1492 260.117 82.0482 258.801 88.243H244.095C243.54 88.243 243.008 88.4634 242.616 88.8557C242.223 89.2481 242.003 89.7802 242.003 90.335V107.746C242.003 108.901 242.94 109.838 244.095 109.838H258.801C260.117 116.033 262.564 121.932 266.02 127.239L255.614 137.646C255.42 137.84 255.265 138.071 255.16 138.325C255.055 138.578 255.001 138.85 255.001 139.125C255.001 139.4 255.055 139.672 255.16 139.925C255.265 140.179 255.42 140.41 255.614 140.604L267.926 152.916C268.318 153.308 268.851 153.529 269.405 153.529C269.96 153.529 270.492 153.308 270.885 152.916L281.292 142.509C286.599 145.965 292.498 148.412 298.693 149.728V164.434C298.693 165.589 299.629 166.526 300.785 166.526H318.196C318.751 166.526 319.283 166.306 319.675 165.913C320.068 165.521 320.288 164.989 320.288 164.434V149.728C326.483 148.412 332.382 145.965 337.689 142.509L348.096 152.916C348.488 153.308 349.021 153.529 349.575 153.529C350.13 153.529 350.662 153.308 351.055 152.916L363.367 140.604C363.759 140.211 363.978 139.679 363.978 139.125C363.978 138.57 363.757 138.038 363.365 137.646ZM309.49 116.438C299.881 116.438 292.093 108.65 292.093 99.041C292.093 89.432 299.881 81.644 309.49 81.644C319.099 81.644 326.887 89.432 326.887 99.041C326.887 108.65 319.099 116.438 309.49 116.438Z" fill="#BBDFFF"/>
<path d="M428.603 135.425C428.575 135.284 428.52 135.15 428.44 135.03C428.36 134.91 428.258 134.807 428.138 134.727C428.019 134.647 427.884 134.592 427.743 134.563C427.602 134.535 427.457 134.535 427.316 134.563L419.761 136.058C418.455 133.01 416.598 130.228 414.284 127.853L418.572 121.449C418.652 121.329 418.708 121.195 418.736 121.054C418.764 120.913 418.764 120.768 418.737 120.627C418.709 120.485 418.653 120.351 418.573 120.231C418.493 120.112 418.391 120.009 418.271 119.929L410.695 114.856C410.575 114.776 410.441 114.72 410.3 114.692C410.159 114.664 410.014 114.663 409.873 114.691C409.731 114.719 409.597 114.775 409.477 114.855C409.358 114.935 409.255 115.037 409.175 115.157L404.887 121.561C401.809 120.326 398.53 119.668 395.214 119.622L393.719 112.067C393.691 111.926 393.636 111.792 393.556 111.672C393.476 111.552 393.374 111.449 393.254 111.369C393.135 111.289 393 111.234 392.859 111.205C392.718 111.177 392.573 111.177 392.432 111.205L383.488 112.975C383.347 113.003 383.213 113.058 383.093 113.138C382.973 113.218 382.87 113.32 382.79 113.44C382.71 113.559 382.655 113.694 382.626 113.835C382.598 113.976 382.598 114.121 382.626 114.262L384.121 121.817C381.073 123.123 378.291 124.98 375.916 127.294L369.512 123.006C369.392 122.926 369.258 122.87 369.117 122.842C368.976 122.814 368.831 122.813 368.69 122.841C368.548 122.869 368.414 122.925 368.294 123.005C368.175 123.085 368.072 123.187 367.992 123.307L362.919 130.883C362.839 131.003 362.783 131.137 362.755 131.278C362.727 131.419 362.726 131.564 362.754 131.705C362.782 131.847 362.838 131.981 362.918 132.101C362.998 132.22 363.1 132.323 363.22 132.403L369.624 136.691C368.389 139.769 367.731 143.048 367.685 146.364L360.13 147.859C359.989 147.887 359.855 147.942 359.735 148.022C359.615 148.102 359.512 148.204 359.432 148.324C359.352 148.443 359.297 148.578 359.268 148.719C359.24 148.86 359.24 149.005 359.268 149.146L361.038 158.09C361.155 158.684 361.732 159.069 362.325 158.952L369.88 157.457C371.186 160.505 373.042 163.287 375.357 165.662L371.069 172.066C370.989 172.186 370.933 172.32 370.905 172.461C370.877 172.602 370.876 172.747 370.904 172.888C370.932 173.03 370.988 173.164 371.068 173.284C371.148 173.403 371.25 173.506 371.37 173.586L378.946 178.659C379.065 178.739 379.2 178.795 379.341 178.823C379.482 178.851 379.627 178.852 379.768 178.824C379.909 178.796 380.044 178.74 380.163 178.66C380.283 178.58 380.386 178.478 380.466 178.358L384.754 171.954C387.832 173.19 391.111 173.847 394.427 173.893L395.922 181.448C396.039 182.041 396.616 182.427 397.209 182.31L406.153 180.54C406.747 180.423 407.132 179.846 407.015 179.253L405.52 171.698C408.568 170.392 411.35 168.535 413.725 166.221L420.129 170.509C420.249 170.589 420.383 170.645 420.524 170.673C420.665 170.701 420.81 170.702 420.951 170.674C421.093 170.646 421.227 170.59 421.346 170.51C421.466 170.43 421.569 170.328 421.649 170.208L426.722 162.632C426.802 162.512 426.858 162.378 426.886 162.237C426.914 162.096 426.914 161.951 426.887 161.81C426.859 161.668 426.803 161.534 426.723 161.414C426.643 161.295 426.541 161.192 426.421 161.112L420.017 156.824C421.252 153.746 421.91 150.467 421.956 147.151L429.511 145.656C430.105 145.538 430.49 144.962 430.373 144.369L428.603 135.425ZM396.589 155.695C395.415 155.927 394.207 155.926 393.034 155.692C391.861 155.457 390.745 154.994 389.751 154.328C388.757 153.663 387.904 152.808 387.24 151.812C386.576 150.817 386.115 149.701 385.883 148.527C385.651 147.353 385.652 146.145 385.886 144.972C386.121 143.799 386.584 142.684 387.25 141.689C387.915 140.695 388.77 139.842 389.766 139.178C390.761 138.514 391.877 138.053 393.051 137.821C394.225 137.589 395.432 137.59 396.606 137.824C397.779 138.059 398.894 138.522 399.889 139.188C400.883 139.853 401.736 140.708 402.4 141.704C403.064 142.699 403.525 143.815 403.757 144.989C403.989 146.163 403.988 147.371 403.754 148.544C403.519 149.717 403.056 150.832 402.39 151.827C401.725 152.821 400.87 153.674 399.874 154.338C398.879 155.002 397.763 155.463 396.589 155.695Z" fill="#BBDFFF"/>
</g>
<path d="M275.591 342.83V439.48C275.591 443.52 274.481 447.38 272.461 450.72C272.461 450.72 266.551 450.08 269.101 454.98C267.396 456.663 265.422 458.049 263.261 459.08L122.021 513.23L122.001 513.24L85.3507 527.29C81.2407 522.62 80.3407 529.21 80.3407 529.21L79.4107 529.56C72.6707 530.99 65.7207 530.12 59.5407 527.16C48.7207 521.88 41.9807 510.98 41.9807 499.18C41.9807 498.3 42.0207 497.44 42.0807 496.57C47.6007 493.54 42.7307 491.32 42.7307 491.32L43.2607 487.28L46.7407 460.63C47.3807 458.01 46.7907 455.22 45.0707 453.16L36.5707 443.08C34.0007 440.02 33.9607 435.56 36.5207 432.47C37.7069 431.06 38.3833 429.292 38.4407 427.45C38.5107 425.57 37.9307 423.71 36.7407 422.16L36.7007 422.12L32.8407 416.75C32.4107 416.15 31.8507 415.64 31.3407 415.08C30.3217 413.99 29.6121 412.648 29.2851 411.193C28.9581 409.737 29.0256 408.221 29.4807 406.8L30.4107 402.54L33.6507 387.61L35.1107 380.78C35.3807 379.99 35.4607 379.19 35.4207 378.4C35.3907 378 35.3207 377.6 35.2207 377.21C35.2207 377.2 35.2107 377.19 35.2107 377.18C35.2107 377.17 35.2007 377.16 35.2007 377.15C35.1507 376.95 35.0807 376.75 35.0007 376.56V376.55C34.9907 376.53 34.9907 376.52 34.9807 376.5C34.9007 376.31 34.8207 376.12 34.7107 375.94C34.7107 375.93 34.7107 375.92 34.7007 375.91C34.6607 375.84 34.6307 375.76 34.5907 375.7C34.5007 375.55 34.4207 375.41 34.3207 375.28C34.2807 375.21 34.2507 375.16 34.2107 375.11C34.2007 375.1 34.1907 375.08 34.1807 375.07C34.0507 374.9 33.9107 374.73 33.7807 374.57L33.7707 374.56C33.6891 374.468 33.6023 374.382 33.5107 374.3C33.4307 374.22 33.3407 374.14 33.2507 374.06L33.1807 373.99C32.7841 373.659 32.3513 373.374 31.8907 373.14C31.6707 373.04 31.4507 372.93 31.2107 372.85L10.1307 369.97C9.87069 369.92 9.74069 369.92 9.74069 369.92C9.71069 369.92 9.7007 369.89 9.6707 369.89C9.6707 369.88 9.66069 369.88 9.66069 369.88H9.61069C9.28069 369.75 8.94069 369.62 8.61069 369.46C8.37069 369.35 8.1307 369.23 7.9007 369.1C7.7507 369.03 7.61069 368.95 7.47069 368.87C7.47069 368.86 7.46069 368.86 7.46069 368.86C7.43435 368.853 7.41026 368.839 7.3907 368.82C7.1407 368.67 6.90069 368.52 6.66069 368.35C6.38069 368.17 6.13069 367.98 5.88069 367.78C3.78069 366.2 2.15069 364.02 1.21069 361.46C0.900693 360.62 0.660696 359.73 0.510696 358.81C0.490696 358.67 0.470693 358.53 0.460693 358.4C0.350693 357.63 0.310698 356.86 0.340698 356.09V356.02L0.390701 355.38C0.640701 352.65 1.68069 350.01 3.35069 347.74L36.4707 290.48C36.4707 290.48 42.9207 289.28 39.5107 285.22L54.7307 258.92C58.2907 253.76 59.6207 247.38 58.3307 241.27C58.2907 241.14 58.2907 241.02 58.2507 240.93L52.0307 224.23C49.2407 216.68 48.5407 208.52 50.0507 200.67C50.0507 200.67 50.0507 200.65 50.0607 200.59L54.5907 177.16C62.7107 143.15 83.8707 79.33 134.441 33.97C138.371 31.33 143.371 30.85 147.791 32.55C148.361 32.77 148.911 32.99 149.471 33.22C173.961 42.96 191.521 56.03 204.041 69.27L204.031 69.28C203.821 69.55 200.561 73.62 207.701 73.3C221.041 88.58 227.931 103.67 231.371 113.64C233.721 120.44 232.471 127.93 228.181 133.71C171.441 210.22 196.211 263.77 227.171 295.32L227.161 295.33C226.931 295.6 223.341 299.79 231.321 299.39C243.471 310.86 256.061 319.04 264.691 323.97C271.451 327.84 275.591 335.05 275.591 342.83Z" fill="#72ABFF"/>
<path d="M53.5709 367.39L53.5109 367.43L35.2109 377.18C35.2109 377.17 35.2009 377.16 35.2009 377.15C35.1509 376.95 35.0809 376.75 35.0009 376.56V376.55C34.9909 376.53 34.9909 376.52 34.9809 376.5C34.9009 376.31 34.8209 376.12 34.7109 375.94C34.7109 375.93 34.7109 375.92 34.7009 375.91C34.6609 375.84 34.6309 375.76 34.5909 375.7C34.5009 375.55 34.4209 375.41 34.3209 375.28C34.2809 375.21 34.2509 375.16 34.2109 375.11C34.2009 375.1 34.1909 375.08 34.1809 375.07C34.0509 374.9 33.9109 374.73 33.7809 374.57L33.7709 374.56C33.6809 374.47 33.6009 374.38 33.5109 374.3C33.4309 374.22 33.3409 374.14 33.2509 374.06L33.1809 373.99C32.7843 373.659 32.3516 373.374 31.8909 373.14C31.6709 373.04 31.4509 372.93 31.2109 372.85L10.1309 369.97C9.87094 369.92 9.74094 369.92 9.74094 369.92C9.71094 369.92 9.70094 369.89 9.67094 369.89C9.67094 369.88 9.66093 369.88 9.66093 369.88H9.61093C9.28093 369.75 8.94093 369.62 8.61093 369.46C8.37093 369.35 8.13094 369.23 7.90094 369.1C7.75094 369.03 7.61093 368.95 7.47093 368.87C7.47093 368.86 7.46094 368.86 7.46094 368.86C7.43459 368.853 7.41051 368.839 7.39095 368.82C7.14095 368.67 6.90093 368.52 6.66093 368.35C6.38093 368.17 6.13094 367.98 5.88094 367.78C3.78094 366.2 2.15094 364.02 1.21094 361.46C15.7709 363.06 53.5709 367.39 53.5709 367.39ZM80.1899 427.447H38.4399C38.5129 425.542 37.9132 423.672 36.7459 422.164L36.7039 422.122L32.8419 416.755C32.4099 416.155 31.8529 415.639 31.3369 415.082C29.2739 412.851 28.5479 409.714 29.4849 406.799L30.4109 402.537L80.1899 427.447ZM46.7439 460.63C47.3859 458.01 46.7859 455.221 45.0709 453.158H61.6049L43.2609 487.278L46.7439 460.63Z" fill="#618DCF"/>
<path d="M306.463 128.5C257.576 128.5 217.94 168.136 217.94 217.023C217.94 265.91 257.576 305.546 306.463 305.546C355.361 305.546 394.997 265.91 394.997 217.023C394.997 168.136 355.361 128.5 306.463 128.5ZM347.472 218.418C347.474 218.699 347.419 218.977 347.313 219.237C347.206 219.496 347.05 219.732 346.852 219.931C346.654 220.13 346.418 220.288 346.159 220.396C345.9 220.504 345.622 220.56 345.341 220.56H338.255C337.593 226.576 335.227 232.278 331.437 236.997L336.447 242.007C336.646 242.205 336.804 242.441 336.912 242.7C337.02 242.96 337.075 243.238 337.075 243.519C337.075 243.8 337.02 244.078 336.912 244.338C336.804 244.597 336.646 244.833 336.447 245.031L334.483 247.006C334.285 247.205 334.049 247.363 333.79 247.471C333.531 247.578 333.252 247.634 332.971 247.634C332.691 247.634 332.412 247.578 332.153 247.471C331.893 247.363 331.658 247.205 331.459 247.006L326.449 241.996C321.727 245.786 316.021 248.152 310.001 248.814V255.889C310.001 257.072 309.041 258.031 307.859 258.031H305.069C304.789 258.031 304.511 257.975 304.252 257.867C303.993 257.759 303.757 257.601 303.559 257.402C303.361 257.203 303.205 256.967 303.098 256.708C302.991 256.448 302.937 256.17 302.938 255.889V248.814C296.919 248.153 291.212 245.788 286.49 241.996L281.48 247.006C281.282 247.205 281.046 247.363 280.787 247.471C280.528 247.578 280.249 247.634 279.968 247.634C279.687 247.634 279.409 247.578 279.15 247.471C278.89 247.363 278.655 247.205 278.456 247.006L276.481 245.031C276.282 244.833 276.125 244.597 276.017 244.338C275.909 244.078 275.854 243.8 275.854 243.519C275.854 243.238 275.909 242.96 276.017 242.7C276.125 242.441 276.282 242.205 276.481 242.007L281.491 236.997C277.701 232.278 275.336 226.576 274.673 220.56H267.598C267.03 220.56 266.486 220.334 266.084 219.932C265.682 219.531 265.457 218.986 265.456 218.418V215.628C265.456 214.445 266.416 213.486 267.598 213.486H274.673C275.336 207.47 277.701 201.768 281.491 197.049L276.481 192.039C276.282 191.841 276.125 191.605 276.017 191.346C275.909 191.086 275.854 190.808 275.854 190.527C275.854 190.246 275.909 189.968 276.017 189.708C276.125 189.449 276.282 189.213 276.481 189.015L278.456 187.04C278.655 186.841 278.89 186.683 279.15 186.576C279.409 186.468 279.687 186.412 279.968 186.412C280.249 186.412 280.528 186.468 280.787 186.576C281.046 186.683 281.282 186.841 281.48 187.04L286.49 192.05C291.212 188.258 296.919 185.893 302.938 185.232V178.157C302.938 176.974 303.886 176.015 305.069 176.015H307.859C309.042 176.015 310.001 176.975 310.001 178.157V185.232C316.021 185.895 321.727 188.26 326.449 192.05L331.459 187.04C331.658 186.841 331.893 186.683 332.153 186.576C332.412 186.468 332.691 186.412 332.971 186.412C333.252 186.412 333.531 186.468 333.79 186.576C334.049 186.683 334.285 186.841 334.483 187.04L336.447 189.015C336.646 189.213 336.804 189.449 336.912 189.708C337.02 189.968 337.075 190.246 337.075 190.527C337.075 190.808 337.02 191.086 336.912 191.346C336.804 191.605 336.646 191.841 336.447 192.039L331.437 197.049C335.228 201.768 337.593 207.47 338.255 213.486H345.341C346.524 213.486 347.472 214.446 347.472 215.628V218.418Z" fill="#72ABFF"/>
<path opacity="0.5" d="M362.763 181.055C361.87 179.662 359.91 179.455 358.738 180.624L358.699 180.663C357.822 181.537 357.703 182.896 358.37 183.939C365.223 194.644 368.844 207.61 367.877 221.43C365.749 251.857 341.151 276.391 310.719 278.446C296.95 279.376 284.05 275.755 273.384 268.924C272.345 268.259 270.99 268.377 270.118 269.249L270.066 269.301C268.897 270.47 269.101 272.427 270.493 273.319C281.92 280.647 295.707 284.596 310.455 283.734C343.911 281.78 371.039 254.788 373.157 221.342C374.097 206.486 370.145 192.569 362.763 181.055ZM306.464 155.456C318.219 155.442 329.729 158.813 339.62 165.165C340.634 165.816 341.971 165.646 342.823 164.794L342.868 164.749C344.039 163.578 343.835 161.616 342.44 160.722C331.008 153.394 317.208 149.447 302.458 150.311C269.017 152.272 241.901 179.25 239.773 212.681C238.828 227.529 242.771 241.452 250.142 252.966C251.046 254.378 253.032 254.585 254.217 253.4C255.08 252.538 255.25 251.185 254.591 250.159C248.451 240.589 244.897 229.208 244.897 217.024C244.896 183.072 272.522 155.456 306.464 155.456Z" fill="#618DCF"/>
<path d="M277.721 700.34H245.453C242.243 695.699 240.117 700.34 240.117 700.34H187.306C186.088 700.34 184.913 699.893 184.003 699.084C183.094 698.275 182.512 697.16 182.37 695.951L164.943 562C170.584 557.569 164.312 556.654 164.312 556.654L161.597 533.721C161.477 532.701 161.675 531.669 162.165 530.767C162.655 529.864 163.412 529.135 164.333 528.68L171.626 526.07L242.213 500.769C245.212 499.296 248.78 501.127 249.317 504.421L282.626 694.561C283.12 697.593 280.783 700.34 277.721 700.34Z" fill="#72ABFF"/>
<path opacity="0.5" d="M245.453 700.34C242.243 695.699 240.117 700.34 240.117 700.34L214.923 546.877C214.879 546.609 214.777 546.354 214.624 546.129C214.47 545.905 214.27 545.716 214.037 545.577C213.803 545.438 213.542 545.351 213.272 545.323C213.002 545.295 212.729 545.326 212.471 545.414L175.983 558.148L164.943 562C170.584 557.569 164.312 556.654 164.312 556.654L175.342 552.802L213.135 539.615C213.824 539.375 214.556 539.288 215.281 539.362C216.006 539.435 216.707 539.667 217.333 540.04C217.959 540.413 218.495 540.919 218.905 541.522C219.314 542.125 219.587 542.81 219.702 543.53L245.453 700.34Z" fill="#618DCF"/>
<path d="M142.992 255.335C136.602 266.405 112.002 273.845 98.3018 273.845C91.8218 273.845 88.5518 272.185 86.2418 269.265C85.8918 268.835 85.5718 268.375 85.2718 267.895C83.9822 265.874 83.0171 263.664 82.4118 261.345C81.3718 257.406 81.3718 253.264 82.4118 249.325C83.0018 247.035 83.9618 244.815 85.2718 242.765C85.5818 242.285 85.9018 241.825 86.2418 241.395C88.5618 238.485 91.8318 236.825 98.3018 236.825C112.002 236.825 136.602 244.265 142.992 255.335Z" fill="#618DCF"/>
<path opacity="0.5" d="M272.459 450.716L126.676 385.907V338.79L231.319 299.387C223.342 299.787 226.93 295.598 227.162 295.335L124.35 334.043L47.8267 285.568L47.2687 285.221H39.5127C42.9227 289.283 36.4707 290.483 36.4707 290.483H45.7427L121.413 338.421V386.517L111.057 396.873C110.812 397.117 110.617 397.408 110.484 397.727C110.351 398.047 110.283 398.39 110.283 398.736C110.283 399.082 110.351 399.425 110.484 399.745C110.617 400.064 110.812 400.355 111.057 400.599C111.301 400.844 111.591 401.039 111.911 401.172C112.231 401.304 112.574 401.373 112.92 401.373C113.266 401.373 113.609 401.304 113.928 401.172C114.248 401.039 114.538 400.844 114.783 400.599L124.623 390.748L269.101 454.978C266.555 450.085 272.459 450.716 272.459 450.716ZM113.616 227.666C113.616 226.688 114.092 225.771 114.893 225.21L139.482 207.95C139.787 207.736 140.044 207.459 140.235 207.138C140.426 206.817 140.547 206.46 140.59 206.089C140.622 205.742 144.453 171.748 157.861 137.586C167.249 113.664 182.93 85.922 207.704 73.303C200.558 73.619 203.82 69.546 204.031 69.283C183.182 80.428 165.828 102.877 152.967 135.66C141.336 165.283 136.775 194.821 135.646 203.185C135.597 203.545 135.474 203.892 135.285 204.202C135.095 204.512 134.843 204.78 134.545 204.988L109.631 222.473C109.236 222.75 108.914 223.118 108.692 223.545C108.47 223.973 108.354 224.448 108.354 224.93V252.175H113.616V227.666ZM50.0697 492.066C47.6498 491.613 45.1962 491.363 42.7347 491.319C42.7347 491.319 47.5967 493.54 42.0817 496.571C44.5967 496.582 47.0497 496.834 49.4277 497.308C62.8987 499.95 73.9077 509.569 78.5067 522.23C79.3384 524.492 79.9515 526.828 80.3377 529.207C80.3377 529.207 81.2427 522.619 85.3477 527.292C84.9533 525.209 84.4044 523.158 83.7057 521.156C78.6117 506.305 65.7927 495.013 50.0697 492.066Z" fill="#618DCF"/>
<path d="M86.2421 241.395C85.9021 241.825 85.5821 242.285 85.2721 242.765C83.9783 244.787 83.013 247.001 82.4121 249.325C82.7621 249.245 83.1321 249.215 83.5021 249.215C86.8921 249.215 89.6321 251.955 89.6321 255.335C89.6321 258.705 86.8921 261.445 83.5021 261.445C83.1321 261.445 82.7621 261.415 82.4121 261.345C83.0121 263.635 83.9621 265.845 85.2721 267.895C85.5721 268.375 85.8921 268.835 86.2421 269.265C92.7821 267.995 97.7121 262.245 97.7121 255.335C97.7121 248.425 92.7821 242.665 86.2421 241.395Z" fill="#BBDFFF"/>
<path d="M306.468 194.041C293.796 194.041 283.486 204.351 283.486 217.023C283.486 229.695 293.796 240.006 306.468 240.006C319.141 240.006 329.45 229.696 329.45 217.023C329.451 204.351 319.141 194.041 306.468 194.041ZM306.468 235.005C296.553 235.005 288.487 226.938 288.487 217.022C288.487 207.107 296.553 199.04 306.468 199.04C316.384 199.04 324.45 207.107 324.45 217.022C324.451 226.939 316.384 235.005 306.468 235.005Z" fill="#72ABFF"/>
<path d="M151.601 51.245C151.239 50.8642 150.806 50.5583 150.326 50.3449C149.846 50.1315 149.329 50.0148 148.803 50.0013C148.278 49.9878 147.756 50.0779 147.265 50.2665C146.775 50.455 146.327 50.7382 145.946 51.1C139.653 57.079 133.56 63.679 127.838 70.717C127.185 71.5417 126.884 72.5904 126.998 73.6359C127.113 74.6813 127.635 75.6396 128.451 76.303C129.267 76.9665 130.312 77.2818 131.359 77.1807C132.406 77.0797 133.371 76.5703 134.045 75.763C139.552 68.99 145.41 62.643 151.456 56.899C152.225 56.1684 152.672 55.1623 152.699 54.102C152.726 53.0417 152.331 52.0141 151.601 51.245ZM122.463 84.255C121.592 83.6498 120.516 83.4155 119.472 83.6036C118.428 83.7917 117.501 84.3868 116.896 85.258C80.3559 137.869 69.2249 196.144 68.7689 198.599C68.6667 199.118 68.6685 199.652 68.7741 200.17C68.8798 200.688 69.0871 201.181 69.3841 201.618C69.6812 202.056 70.0621 202.43 70.5047 202.719C70.9474 203.009 71.4431 203.207 71.963 203.304C72.483 203.401 73.017 203.393 73.534 203.282C74.0511 203.171 74.541 202.958 74.9754 202.657C75.4098 202.355 75.78 201.97 76.0647 201.524C76.3493 201.079 76.5428 200.581 76.6339 200.06C76.7429 199.476 87.8979 141.033 123.467 89.821C124.072 88.9497 124.306 87.8739 124.117 86.8301C123.929 85.7864 123.334 84.8601 122.463 84.255ZM38.0599 309.733C37.143 309.199 36.0517 309.052 35.0261 309.323C34.0005 309.594 33.1245 310.261 32.5909 311.178L12.9099 344.988C12.3862 345.904 12.246 346.99 12.5196 348.01C12.7933 349.029 13.4586 349.899 14.3708 350.43C15.2829 350.961 16.3679 351.109 17.3893 350.844C18.4107 350.578 19.2858 349.92 19.8239 349.012L39.5049 315.202C40.0384 314.285 40.186 313.194 39.915 312.168C39.644 311.143 38.9767 310.267 38.0599 309.733ZM296.357 141.078C296.276 140.625 296.108 140.193 295.86 139.806C295.613 139.418 295.291 139.083 294.914 138.82C294.537 138.557 294.112 138.371 293.663 138.272C293.214 138.173 292.75 138.164 292.298 138.244C275.468 141.234 260.277 149.36 248.368 161.743C248.043 162.073 247.787 162.464 247.615 162.894C247.443 163.323 247.357 163.783 247.364 164.246C247.37 164.709 247.468 165.166 247.653 165.59C247.837 166.015 248.104 166.399 248.437 166.72C248.771 167.041 249.165 167.292 249.596 167.46C250.028 167.627 250.488 167.708 250.951 167.696C251.414 167.684 251.87 167.581 252.292 167.392C252.715 167.203 253.096 166.932 253.413 166.595C264.29 155.285 278.16 147.864 293.523 145.135C293.975 145.055 294.408 144.886 294.795 144.639C295.182 144.391 295.517 144.07 295.78 143.694C296.043 143.317 296.23 142.892 296.329 142.443C296.428 141.994 296.437 141.53 296.357 141.078ZM241.411 172.715C240.807 172.715 240.214 172.872 239.689 173.169C239.163 173.466 238.724 173.895 238.413 174.412C235.355 179.202 232.819 184.306 230.849 189.636C230.682 190.069 230.603 190.53 230.616 190.993C230.629 191.457 230.734 191.913 230.924 192.336C231.115 192.758 231.388 193.139 231.727 193.455C232.066 193.771 232.464 194.017 232.899 194.178C233.334 194.339 233.797 194.412 234.26 194.392C234.723 194.373 235.178 194.262 235.598 194.066C236.018 193.869 236.394 193.591 236.706 193.248C237.018 192.905 237.258 192.503 237.413 192.066C239.22 187.178 241.548 182.499 244.357 178.11L244.911 177.247V176.211C244.911 175.752 244.82 175.297 244.644 174.872C244.468 174.448 244.211 174.062 243.885 173.738C243.56 173.413 243.175 173.155 242.75 172.98C242.325 172.805 241.87 172.714 241.411 172.715Z" fill="#BBDFFF"/>
<path d="M598.471 233.5L611.201 232.708L599.106 243.833L598.471 233.5Z" fill="#CF4920"/>
<path d="M616.434 211.676C615.828 214.663 614.204 219.864 613.599 222.851C613.282 224.416 612.948 226.022 612.079 227.362C611.21 228.702 610.353 229.163 608.77 228.955C609.764 225.177 611.049 221.608 612.043 217.83C612.315 216.796 612.597 215.74 613.2 214.856C613.802 213.973 615.366 211.62 616.434 211.676ZM597.169 204.977C595.736 208.328 596.156 212.405 598.242 215.393C598.648 212.517 598.941 209.706 599.347 206.83C599.41 206.387 599.472 205.934 599.39 205.494C599.308 205.054 599.054 204.621 598.643 204.442C598.233 204.263 597.345 204.565 597.169 204.977Z" fill="#30323C"/>
<path d="M611.922 222.491C611.922 222.491 611.21 226.592 610.97 228.89C610.811 230.445 610.306 240.848 610.184 242.527L597.427 241.205L599.109 232.998V232.992C599.144 232.779 599.173 232.572 599.209 232.36L599.323 231.569C599.39 231.107 599.45 230.644 599.51 230.193C599.618 229.279 599.711 228.413 599.775 227.638C599.792 227.424 599.803 227.216 599.813 227.009C601.458 226.603 603.092 226.288 604.727 225.96C606.559 225.607 611.922 222.491 611.922 222.491Z" fill="#FAB093"/>
<path d="M599.106 232.996C605.716 233.881 609.446 226.635 609.446 226.635L599.772 227.639C599.62 229.433 599.398 231.22 599.106 232.996Z" fill="#E08162"/>
<path d="M598.016 207.166L597.503 210.904L597.506 210.909C597.462 211.45 597.39 211.988 597.289 212.522C596.772 215.248 595.689 217.818 595.27 220.567C594.86 223.315 594.708 226.234 596.685 228.309C597.257 228.905 597.991 229.336 598.821 229.623C601.1 230.428 604.058 230.15 606.034 229.274C608.69 228.094 610.185 226.328 611.487 223.716C611.565 223.409 611.625 223.17 611.667 223.014C611.675 222.977 611.682 222.94 611.694 222.905C611.699 222.879 611.706 222.854 611.715 222.829L611.728 222.789C611.7 222.43 611.709 222.429 611.714 222.063C611.723 221.091 611.839 220.114 611.928 219.151C612.082 217.544 612.166 215.871 611.615 214.319C610.935 212.411 612.794 209.001 611.025 207.972C607.509 206.425 599.863 207.193 598.514 206.838C598.46 206.822 598.402 206.819 598.346 206.827C598.29 206.836 598.237 206.856 598.19 206.888C598.142 206.919 598.102 206.96 598.072 207.008C598.043 207.056 598.023 207.11 598.016 207.166Z" fill="#FAB093"/>
<path d="M606.368 212.867C605.226 211.864 604.229 211.075 602.679 211.29C602.246 211.35 602.225 211.922 602.785 212.098C604.327 212.584 604.819 212.702 606.075 213.547C606.635 213.924 607.033 213.451 606.368 212.867ZM597.126 210.994C597.763 210.628 598.517 210.752 599.168 210.891C599.602 210.983 599.827 211.473 599.265 211.573C597.717 211.851 597.746 211.662 597.019 211.911C596.504 212.086 596.399 211.412 597.126 210.994ZM603.072 214.113C603.287 213.984 603.614 214.133 603.703 214.351C603.892 214.817 603.816 215.377 603.538 215.792C603.395 216.006 603.073 216.042 602.872 215.894C602.784 215.829 602.722 215.734 602.697 215.628C602.482 215.142 602.615 214.385 603.072 214.113ZM597.274 213.362C597.49 213.233 597.816 213.382 597.905 213.6C598.094 214.066 598.018 214.626 597.74 215.041C597.597 215.255 597.275 215.291 597.074 215.143C596.986 215.078 596.924 214.984 596.899 214.878C596.684 214.392 596.817 213.635 597.274 213.362Z" fill="#30323C"/>
<path d="M616.835 209.129C616.6 211.877 615.739 214.535 614.318 216.899C613.134 217.464 611.666 217.524 610.832 216.507C608.888 214.129 608.384 210.652 609.566 207.824C606.838 208.547 603.995 208.893 601.197 208.513C600.066 208.353 598.892 208.087 598.019 207.354C596.994 206.502 596.526 205.125 596.475 203.801C596.429 202.691 596.643 201.594 596.904 200.507C596.946 200.33 597.052 200.174 597.202 200.071C597.352 199.967 597.535 199.923 597.716 199.947C598.801 200.081 599.879 200.208 600.964 200.342L600.632 199.874C600.594 199.821 600.573 199.757 600.57 199.692C600.567 199.626 600.582 199.562 600.615 199.505C600.648 199.448 600.697 199.402 600.755 199.372C600.813 199.342 600.879 199.33 600.944 199.336C603.471 199.607 611.539 200.621 612.581 202.383C613.114 202.948 613.353 203.847 612.894 204.465C614.295 204.774 615.636 205.016 616.389 206.234C616.908 207.083 616.925 208.144 616.835 209.129Z" fill="#30323C"/>
<path d="M612.801 213.88C611.641 216.18 611.461 218.77 611.081 221.33C610.711 223.88 609.891 226.57 608.151 228.48C606.721 230.04 604.661 230.92 602.571 231.17C600.471 231.43 598.341 231.09 596.311 230.49C595.411 230.23 594.441 229.84 594.031 229C593.681 228.3 593.821 227.47 593.961 226.7C594.061 226.17 594.151 225.64 594.271 225.11V225.1C594.571 222.56 595.411 219.61 595.521 219.25C595.391 219.78 595.391 220.25 595.431 220.6C595.451 220.85 595.781 220.93 595.921 220.71C596.091 220.45 596.281 220.21 596.481 219.97C597.041 219.32 597.771 218.75 598.621 218.64C598.641 218.64 598.651 218.63 598.671 218.64C599.091 219 599.921 219.56 600.931 219.35C601.191 219.53 601.421 219.74 601.641 219.96C602.441 220.78 603.051 221.77 603.891 222.54C604.731 223.31 605.921 223.85 607.011 223.52C608.081 223.18 608.731 222.13 609.161 221.1C609.909 219.335 610.293 217.437 610.291 215.52C610.641 215.19 611.051 214.88 611.401 214.54C611.741 214.21 612.311 213.85 612.801 213.88Z" fill="#30323C"/>
<path d="M614.523 221.13C613.791 222.445 612.259 223.113 610.828 222.754C610.935 222.278 611.016 221.799 611.085 221.326C611.289 219.925 611.437 218.518 611.72 217.15C612.169 216.453 612.919 215.638 613.301 215.522C613.845 215.37 614.428 215.827 614.803 216.347C615.754 217.683 615.271 219.791 614.523 221.13Z" fill="#FAB093"/>
<path d="M602.098 221.548C600.258 221.899 598.047 221.638 597.182 221.284C597.115 221.257 597.041 221.248 596.97 221.258C596.898 221.268 596.83 221.296 596.772 221.34C596.714 221.384 596.669 221.442 596.641 221.508C596.612 221.575 596.601 221.648 596.609 221.72C597.166 227.612 601.737 224.662 602.49 222.184C602.598 221.826 602.458 221.479 602.098 221.548Z" fill="white"/>
<path d="M597.984 217.973C598.184 219.017 599.296 219.52 600.244 219.61C600.591 219.643 600.611 219.103 600.265 219.07C599.553 219.002 598.663 218.648 598.51 217.85C598.445 217.508 597.919 217.631 597.984 217.973Z" fill="#E08162"/>
<path d="M636.782 457.833C638.597 464.247 636.388 471.62 631.346 475.981C630.762 476.486 630.133 476.965 629.715 477.614C629.296 478.263 629.128 479.143 629.528 479.804C630.062 480.686 631.28 480.788 632.311 480.79L638.386 480.804C640.569 480.809 645.558 480.745 647.227 479.337C648.786 478.022 649.307 475.869 649.633 473.855C650.551 468.176 648.014 462.361 647.228 456.662C645.785 455.306 643.688 455.193 641.757 455.634C639.826 456.074 638.469 456.796 636.782 457.833ZM598.686 474.823L597.645 463.937C594.588 463.2 591.237 462.32 588.18 461.583C588.525 463.156 587.898 464.819 586.881 466.068C585.864 467.317 584.494 468.221 583.128 469.075C579.153 471.559 575.024 473.786 570.766 475.744C569.93 476.128 569.712 477.233 570.371 477.875C570.867 478.358 571.491 478.729 572.143 478.969C573.369 479.419 574.699 479.473 576.004 479.509C582.168 479.682 588.34 479.576 594.495 479.19C595.947 479.099 597.627 478.858 598.368 477.606C598.852 476.789 598.776 475.769 598.686 474.823Z" fill="#2D353C"/>
<path d="M651.074 460.75C647.058 461.754 642.638 462.297 638.005 462.297C636.022 462.297 634.079 462.19 632.195 462.001L623.529 424.579L603.925 335.332L601.769 462.644C590.881 468.504 583.235 462.644 583.235 462.644L579.523 314.79L579.416 310.428L579.367 308.897L579.252 304.008C579.713 303.909 580.182 303.827 580.643 303.745C594.972 301.358 612.609 305.49 620.049 307.547L624.584 308.139C626.049 310.542 627.218 313.431 628.148 316.55C628.558 317.927 628.917 319.319 629.226 320.723C630.008 324.13 630.551 327.661 630.93 331.002C632.634 345.989 639.555 389.806 644.93 423.072C647.699 440.248 650.061 454.618 651.074 460.75Z" fill="#618DCF"/>
<path d="M629.223 320.723C600.928 324.484 579.521 314.789 579.521 314.789L579.414 310.427L579.365 308.896L579.25 304.007C579.711 303.908 580.18 303.826 580.641 303.744C594.97 301.357 612.607 305.489 620.047 307.546L624.582 308.138C626.047 310.541 627.216 313.43 628.146 316.549C628.548 317.908 628.91 319.299 629.223 320.723Z" fill="#2D353C"/>
<path d="M602.285 325.411C602.228 325.204 602.092 325.027 601.906 324.918C601.72 324.81 601.499 324.778 601.29 324.831C601.082 324.883 600.902 325.015 600.789 325.199C600.677 325.382 600.641 325.602 600.689 325.812L603.126 335.53C603.152 335.635 603.199 335.733 603.263 335.82C603.327 335.907 603.408 335.98 603.501 336.036C603.594 336.091 603.696 336.128 603.803 336.144C603.91 336.159 604.019 336.154 604.124 336.128C604.229 336.101 604.327 336.054 604.414 335.99C604.501 335.926 604.574 335.845 604.63 335.752C604.685 335.659 604.722 335.557 604.738 335.45C604.753 335.343 604.748 335.234 604.722 335.129L602.285 325.411ZM626.99 321.98C626.954 321.765 626.835 321.572 626.658 321.444C626.48 321.317 626.26 321.265 626.044 321.301C625.829 321.336 625.636 321.455 625.508 321.633C625.381 321.81 625.329 322.031 625.365 322.246L628.296 340.166C625.717 337.941 620.71 332.71 618.539 324.173C618.476 323.971 618.338 323.801 618.154 323.698C617.97 323.595 617.753 323.566 617.548 323.618C617.343 323.67 617.167 323.799 617.054 323.978C616.941 324.157 616.902 324.372 616.944 324.579C619.78 335.732 627.075 341.438 628.691 342.587L646.968 454.339C647.003 454.554 647.122 454.747 647.3 454.875C647.477 455.002 647.698 455.054 647.913 455.019C648.129 454.983 648.321 454.864 648.449 454.686C648.576 454.509 648.628 454.289 648.593 454.073L626.99 321.98Z" fill="#0C60DC"/>
<path d="M592.851 261.59L573.481 277.15C572.17 278.406 570.565 279.313 568.813 279.79C567.062 280.267 565.218 280.298 563.451 279.88L563.431 279.87L531.111 264.54L532.391 257.69L563.951 264.26L578.691 248.99C578.691 248.99 581.421 257.08 592.851 261.59Z" fill="#E08162"/>
<path d="M628.141 315.32C628.141 315.32 627.661 315.44 626.751 315.63C624.811 316.01 620.941 316.71 615.771 317.18H615.731C606.101 318.06 591.931 318.18 577.221 314.2L577.311 313.19L577.691 308.51L578.201 302.53L578.391 300.11L578.451 299.28L578.761 295.1L578.941 292.68L579.251 288.5L579.261 288.38L579.431 286.07L579.731 281.89V281.88L580.961 265.13L580.971 265.05C580.991 264.56 581.031 264.08 581.071 263.6C581.071 263.6 581.111 261.6 581.501 258.68C582.431 251.5 585.431 238.72 594.841 236.35C595.451 236.26 596.051 236.21 596.631 236.23H596.651C596.761 236.22 597.431 236.16 598.471 236.1H598.481C600.191 235.98 602.921 235.85 606.001 235.85C607.341 235.85 608.751 235.88 610.161 235.95L610.661 235.98C611.241 236.01 611.821 236.04 612.391 236.08C617.591 236.46 622.581 237.44 624.651 239.67C628.421 243.73 628.131 249.57 627.321 255.03C627.321 255.03 627.321 255.05 627.311 255.07C627.311 255.1 627.301 255.13 627.301 255.18C627.201 255.88 627.091 256.56 626.971 257.24C626.811 258.24 626.641 259.24 626.461 260.25C626.461 260.28 626.461 260.32 626.451 260.35C625.771 265.17 624.901 274.77 624.781 284.67C624.761 286.04 624.751 287.42 624.781 288.79C624.781 289.67 624.791 290.54 624.821 291.41C624.851 292.79 624.911 294.16 624.981 295.51C625.021 296.25 625.071 296.98 625.131 297.69C625.141 297.83 625.161 297.97 625.161 298.1C625.271 299.46 625.411 300.81 625.581 302.17C625.651 302.84 625.741 303.5 625.831 304.16C626.091 306.06 626.421 307.97 626.811 309.83V309.85C627.141 311.48 627.531 313.09 627.961 314.67L628.141 315.32Z" fill="#F16C3F"/>
<path d="M594.847 236.347L585.251 268.025C585.136 267.967 585.02 267.918 584.905 267.86C575.103 263.202 573.169 254.626 573.169 254.626L585.506 240.931C586.779 239.524 588.395 238.472 590.197 237.878L594.847 236.347Z" fill="#F16C3F"/>
<path d="M596.327 243.833L597.979 249.875L587.911 297.942L593.071 305.864L599.971 299.25L599.43 250.125L601.314 243.833H596.327Z" fill="#FBC802"/>
<path d="M610.661 235.98L599.106 243.833L598.471 236.1H598.481C600.191 235.98 602.921 235.85 606.001 235.85C607.341 235.85 608.751 235.88 610.161 235.95L610.661 235.98Z" fill="#FAB093"/>
<path d="M599.106 243.833L601.763 248.708L612.391 236.08L611.201 232.708L599.106 243.833ZM599.106 243.833L595.888 248.225V236.347L598.471 233.5L599.106 243.833Z" fill="#CF4920"/>
<mask id="mask0_17_3" style="mask-type:luminance" maskUnits="userSpaceOnUse" x="587" y="243" width="15" height="63">
<path d="M596.327 243.833L597.979 249.875L587.911 297.942L593.071 305.864L599.971 299.25L599.43 250.125L601.314 243.833H596.327Z" fill="white"/>
</mask>
<g mask="url(#mask0_17_3)">
<path d="M593.812 268.874C596.182 268.874 598.105 266.952 598.105 264.581C598.105 262.21 596.182 260.288 593.812 260.288C591.441 260.288 589.519 262.21 589.519 264.581C589.519 266.952 591.441 268.874 593.812 268.874Z" fill="#FFB304"/>
<path d="M604.808 253.831C604.808 254.97 604.355 256.062 603.55 256.867C602.745 257.672 601.653 258.124 600.515 258.124C599.376 258.124 598.284 257.672 597.479 256.867C596.674 256.062 596.222 254.97 596.222 253.831C596.222 252.692 596.674 251.6 597.479 250.795C598.284 249.99 599.376 249.538 600.515 249.538C601.653 249.538 602.745 249.99 603.55 250.795C604.355 251.6 604.808 252.692 604.808 253.831ZM605.608 276.767C605.608 277.906 605.155 278.998 604.35 279.803C603.545 280.608 602.453 281.06 601.315 281.06C600.176 281.06 599.084 280.608 598.279 279.803C597.474 278.998 597.022 277.906 597.022 276.767C597.022 275.628 597.474 274.536 598.279 273.731C599.084 272.926 600.176 272.474 601.315 272.474C602.453 272.474 603.545 272.926 604.35 273.731C605.155 274.536 605.608 275.628 605.608 276.767ZM597.145 286.209C597.145 287.348 596.692 288.44 595.887 289.245C595.082 290.05 593.99 290.502 592.852 290.502C591.713 290.502 590.621 290.05 589.816 289.245C589.011 288.44 588.559 287.348 588.559 286.209C588.559 285.07 589.011 283.978 589.816 283.173C590.621 282.368 591.713 281.916 592.852 281.916C593.99 281.916 595.082 282.368 595.887 283.173C596.692 283.978 597.145 285.07 597.145 286.209Z" fill="#FFB304"/>
<path d="M598.104 305.865C600.475 305.865 602.397 303.943 602.397 301.572C602.397 299.201 600.475 297.279 598.104 297.279C595.733 297.279 593.811 299.201 593.811 301.572C593.811 303.943 595.733 305.865 598.104 305.865Z" fill="#FFB304"/>
</g>
<path d="M613.832 267.63L593.588 287.052C592.514 288.178 591.116 288.941 589.588 289.235C588.059 289.528 586.478 289.337 585.064 288.688L579.431 286.071L579.735 281.877L613.832 267.63Z" fill="#2D353C"/>
<path d="M580.971 265.869C580.855 265.869 580.74 265.845 580.633 265.797C580.527 265.749 580.432 265.679 580.354 265.592C580.277 265.505 580.219 265.403 580.184 265.291C580.149 265.18 580.138 265.063 580.152 264.947L581.26 255.831C581.294 255.62 581.407 255.43 581.578 255.302C581.748 255.173 581.961 255.116 582.173 255.141C582.385 255.167 582.579 255.274 582.714 255.439C582.848 255.605 582.913 255.816 582.895 256.029L581.787 265.145C581.763 265.344 581.667 265.528 581.517 265.662C581.366 265.795 581.172 265.869 580.971 265.869Z" fill="#CF4920"/>
<path d="M450.355 307.306L465.821 318.287C466.314 318.637 466.925 318.776 467.521 318.675C468.117 318.574 468.649 318.241 468.999 317.748L478.281 304.675C484.61 307.42 491.392 308.974 498.285 309.259L500.963 325.054C501.064 325.65 501.398 326.181 501.891 326.531C502.383 326.881 502.995 327.021 503.591 326.92L522.292 323.749C522.888 323.648 523.419 323.314 523.769 322.821C524.119 322.328 524.259 321.717 524.158 321.121L521.48 305.326C527.894 302.784 533.784 299.082 538.855 294.404L551.928 303.686C552.421 304.036 553.032 304.175 553.628 304.074C554.224 303.973 554.756 303.64 555.106 303.147L566.087 287.681C566.26 287.437 566.384 287.161 566.45 286.869C566.517 286.578 566.526 286.275 566.476 285.98C566.425 285.685 566.318 285.403 566.159 285.149C565.999 284.896 565.792 284.676 565.548 284.503L552.475 275.221C555.22 268.892 556.774 262.11 557.059 255.217L572.854 252.539C573.45 252.438 573.981 252.104 574.331 251.611C574.681 251.118 574.821 250.507 574.72 249.911L571.549 231.21C571.448 230.614 571.114 230.083 570.621 229.733C570.128 229.383 569.517 229.243 568.921 229.344L553.126 232.022C550.584 225.608 546.881 219.718 542.204 214.647L551.486 201.574C551.659 201.33 551.783 201.054 551.849 200.762C551.916 200.471 551.925 200.168 551.875 199.873C551.825 199.578 551.717 199.296 551.558 199.042C551.398 198.789 551.191 198.569 550.947 198.396L535.481 187.415C534.988 187.065 534.376 186.926 533.78 187.027C533.184 187.128 532.653 187.461 532.303 187.954L523.021 201.027C516.691 198.282 509.91 196.728 503.017 196.443L500.339 180.648C500.237 180.052 499.904 179.521 499.411 179.171C498.918 178.821 498.307 178.681 497.711 178.782L479.01 181.953C478.414 182.054 477.883 182.388 477.533 182.881C477.183 183.374 477.043 183.985 477.144 184.581L479.822 200.376C473.408 202.918 467.518 206.62 462.447 211.298L449.374 202.016C449.13 201.843 448.854 201.719 448.562 201.652C448.27 201.586 447.968 201.577 447.673 201.627C447.378 201.677 447.096 201.785 446.842 201.944C446.589 202.103 446.369 202.311 446.196 202.555L435.215 218.021C434.865 218.514 434.725 219.126 434.826 219.722C434.927 220.318 435.261 220.849 435.754 221.199L448.827 230.481C446.082 236.81 444.528 243.592 444.243 250.485L428.448 253.163C427.852 253.264 427.321 253.598 426.971 254.091C426.621 254.584 426.481 255.195 426.582 255.791L429.753 274.492C429.854 275.088 430.188 275.619 430.681 275.969C431.173 276.319 431.785 276.459 432.381 276.358L448.176 273.68C450.717 280.094 454.42 285.984 459.099 291.055L449.817 304.127C449.643 304.371 449.52 304.647 449.453 304.939C449.386 305.231 449.377 305.533 449.427 305.828C449.477 306.123 449.585 306.406 449.744 306.659C449.903 306.913 450.111 307.133 450.355 307.306ZM481.965 256.02C480.215 245.699 487.162 235.916 497.482 234.166C507.803 232.416 517.586 239.362 519.336 249.683C521.086 260.004 514.14 269.787 503.819 271.537C493.498 273.288 483.715 266.341 481.965 256.02Z" fill="#72ABFF"/>
<path d="M613.834 267.63L594.468 283.185C593.157 284.441 591.552 285.35 589.799 285.827C588.047 286.304 586.203 286.335 584.436 285.917L584.42 285.909L552.1 270.576C549.927 270.773 546.676 270.798 544.923 270.568C544.643 270.551 544.38 270.535 544.133 270.51C540.01 270.14 539.664 269.111 539.664 268.806V268.724C537.22 269.185 537.236 266.773 537.236 266.773C535.063 266.666 535.664 264.707 535.664 264.707C534.364 264.172 534.24 263.217 534.331 262.567C534.388 262.164 534.537 261.867 534.537 261.867C538.866 261.176 543.22 260.484 547.565 259.801C546.652 259.538 545.532 258.715 544.709 257.809C544.355 257.406 544.635 256.723 545.129 256.813C546.997 257.109 548.849 257.875 550.536 259.019C550.544 259.027 550.569 259.036 550.585 259.052C551.532 259.694 552.56 261.686 553.375 263.719L584.937 270.295L600.663 255.028C600.664 255.03 602.41 263.112 613.834 267.63Z" fill="#FAB093"/>
<path opacity="0.5" d="M500.65 284.152C483.391 284.152 469.35 270.11 469.35 252.851C469.35 235.592 483.391 221.551 500.65 221.551C517.91 221.551 531.951 235.592 531.951 252.851C531.951 270.111 517.91 284.152 500.65 284.152ZM500.65 226.551C486.148 226.551 474.35 238.349 474.35 252.851C474.35 267.353 486.148 279.152 500.65 279.152C515.152 279.152 526.951 267.354 526.951 252.851C526.951 238.35 515.152 226.551 500.65 226.551Z" fill="#618DCF"/>
<path d="M463.01 226.545C462.682 226.546 462.357 226.482 462.053 226.357C461.75 226.231 461.475 226.048 461.242 225.816C461.01 225.584 460.826 225.309 460.7 225.006C460.574 224.703 460.51 224.378 460.51 224.05V223.203L461.025 222.521C469.699 211.19 482.816 204.107 497.012 203.087C497.672 203.043 498.324 203.261 498.824 203.695C499.324 204.128 499.633 204.742 499.684 205.402C499.707 205.729 499.666 206.058 499.563 206.37C499.459 206.682 499.296 206.97 499.081 207.218C498.866 207.466 498.604 207.67 498.31 207.817C498.017 207.964 497.697 208.052 497.37 208.075C484.626 208.991 472.846 215.342 465.041 225.502C464.809 225.825 464.505 226.088 464.151 226.269C463.798 226.45 463.407 226.545 463.01 226.545Z" fill="#BBDFFF"/>
<path d="M508.405 604.531C513.572 603.978 518.745 603.479 523.922 603.035L522.94 606.148C518.36 606.55 513.76 606.999 509.171 607.485C508.152 607.588 507.142 607.7 506.133 607.822C495.084 609.047 484.035 610.57 473.117 612.589C472.322 611.724 471.546 610.843 470.789 609.944C482.203 607.766 493.784 606.149 505.357 604.859C506.376 604.747 507.386 604.634 508.405 604.531Z" fill="#AABC30"/>
<path d="M539.487 552.93L538.169 557.136V557.145L524.951 599.07L523.698 603.052L521.277 610.745L519.922 615.035L518.94 618.148L511.228 642.62L510.377 645.34C509.835 645.256 509.293 645.162 508.751 645.078C498.328 643.293 488.41 639.937 479.698 633.898C475.8 631.196 472.295 628.056 469.116 624.588C468.32 623.723 467.544 622.842 466.788 621.943C461.787 615.96 457.618 609.174 453.982 602.135C452.468 599.216 451.031 596.258 449.673 593.264C449.338 592.538 449.01 591.809 448.691 591.077C448.186 589.965 447.691 588.843 447.205 587.731C446.376 585.821 445.569 583.901 444.784 581.973C444.373 581.001 443.989 580.029 443.597 579.056C442.168 575.485 440.813 571.885 439.531 568.259C437.386 562.249 435.453 556.167 433.735 550.022C432.581 545.898 431.528 541.746 430.575 537.571C430.342 536.582 430.121 535.591 429.911 534.598C429.294 531.772 428.723 528.936 428.2 526.092L440.782 522.372L426.209 513.501C425.772 510.312 425.398 507.114 425.087 503.91C424.956 502.835 424.863 501.751 424.769 500.666L425.928 500.862C436.295 502.535 446.68 504.237 456.944 506.452C458.047 506.686 459.15 506.919 460.244 507.181C464.778 508.209 469.274 509.331 473.733 510.63L482.305 532.737L487.026 514.976C490.831 516.394 494.577 517.969 498.253 519.697C499.309 520.202 500.375 520.707 501.422 521.239C514.191 527.642 525.866 536.083 534.98 547.001C536.294 548.587 537.553 550.218 538.756 551.89C539.01 552.238 539.253 552.584 539.487 552.93Z" fill="#67832C"/>
<path d="M505.883 573.121C512.667 581.447 519.032 590.108 524.951 599.07L523.698 603.052C517.535 593.54 510.887 584.351 503.779 575.523L444.785 581.973C444.374 581.001 443.991 580.029 443.599 579.056C459.696 577.299 475.773 575.541 491.86 573.784C495.076 573.429 498.292 573.083 501.508 572.728C492.934 562.298 483.754 552.382 474.016 543.03C470.951 540.099 467.835 537.222 464.667 534.402C453.291 535.458 441.933 536.515 430.576 537.571C430.344 536.582 430.123 535.591 429.912 534.598C440.447 533.607 451 532.635 461.545 531.653C450.001 521.632 437.802 512.378 425.089 503.909C424.958 502.834 424.865 501.75 424.771 500.665L425.93 500.861C438.71 509.358 450.945 518.646 462.565 528.671C460.695 521.268 458.825 513.855 456.946 506.451C458.049 506.685 459.152 506.918 460.246 507.18C462.359 515.509 464.462 523.847 466.565 532.166C479.431 543.554 491.441 555.873 502.498 569.024C501.077 552.581 499.667 536.139 498.255 519.696C499.311 520.201 500.376 520.706 501.423 521.238L505.883 573.121Z" fill="#AABC30"/>
<path d="M525.278 598.745L523.923 603.035L522.941 606.148L515.229 630.62L514.378 633.34L513.527 636.041L508.694 651.362L507.815 654.148L503.702 667.197L502.178 672.039L493.718 698.876L493.195 699.278C487.394 698.484 481.649 697.323 475.995 695.801C474.379 695.362 472.771 694.895 471.172 694.399C469.975 694.021 468.782 693.631 467.592 693.23C450.018 687.201 433.678 677.404 420.676 664.205C419.17 662.67 417.708 661.093 416.292 659.475C412.805 655.474 409.608 651.249 406.664 646.846L420.901 627.879L396.737 629.562C394.54 625.159 392.54 620.672 390.67 616.092C390.277 615.157 389.894 614.213 389.53 613.269C384.473 600.425 380.453 587.086 376.798 573.999C376.611 573.345 376.424 572.681 376.247 572.026C377.472 572.325 378.715 572.606 379.949 572.867C384.772 573.877 389.624 574.587 394.513 575.073L404.982 588.496L404.094 575.746C407.132 575.896 410.179 575.98 413.227 576.017C414.246 576.026 415.265 576.036 416.284 576.036C427.913 576.074 439.597 575.587 451.207 575.728C451.478 575.728 451.749 575.737 452.02 575.737C453.048 575.746 454.076 575.765 455.105 575.793C455.142 575.793 455.189 575.802 455.227 575.793C459.424 575.905 463.677 576.12 467.921 576.522L481.793 603.425L486.785 579.467C491.197 580.477 495.525 581.729 499.704 583.262C500.882 583.701 502.05 584.159 503.2 584.645C511.368 588.042 518.893 592.632 525.278 598.745Z" fill="#AABC30"/>
<path d="M503.703 667.199L502.179 672.041C491.84 679.491 481.502 686.941 471.173 694.401C469.976 694.023 468.783 693.633 467.593 693.232C479.623 684.557 491.663 675.873 503.703 667.199ZM508.695 651.364L507.816 654.15C507.405 654.01 507.003 653.869 506.601 653.72C492.816 648.721 479.311 642.983 466.144 636.53C450.991 645.747 435.829 654.982 420.677 664.209C419.957 663.47 419.247 662.732 418.536 661.965C425.979 657.446 433.417 652.919 440.849 648.383C446.383 645.018 451.917 641.653 457.432 638.287C459.077 637.278 460.881 635.847 462.713 634.819C447.85 627.331 433.492 618.909 419.788 609.487C410.076 611.693 400.373 613.899 390.67 616.096C390.277 615.161 389.894 614.217 389.53 613.273C398.504 611.235 407.487 609.188 416.451 607.16C402.336 597.205 389.034 586.165 376.798 574.004C376.611 573.35 376.424 572.686 376.247 572.031C377.472 572.33 378.715 572.611 379.949 572.872C391.736 584.463 404.505 595.073 418.032 604.701C416.433 595.138 414.826 585.576 413.227 576.022C414.246 576.031 415.265 576.041 416.284 576.041C418.023 586.398 419.752 596.765 421.491 607.132C434.802 616.358 448.814 624.631 463.294 631.969L461.976 625.37C460.48 617.911 458.985 610.451 457.489 603.001C455.89 595.018 454.301 587.054 452.694 579.08L452.021 575.743C453.049 575.752 454.077 575.771 455.106 575.799C456.069 580.585 457.022 585.362 457.985 590.138L466.706 633.68C480.344 640.391 494.365 646.296 508.695 651.364ZM515.229 630.621L514.378 633.341L513.527 636.042C513.275 635.051 513.013 634.07 512.751 633.079L506.133 607.821C505.871 606.83 505.619 605.849 505.357 604.858C503.469 597.66 501.58 590.462 499.702 583.265C500.88 583.704 502.048 584.162 503.198 584.648C504.927 591.276 506.666 597.903 508.405 604.531C508.657 605.513 508.91 606.503 509.171 607.485L515.229 630.621Z" fill="#CCD78C"/>
<path d="M724.069 694.734L657.577 485.512C656.912 483.427 655.209 482.18 653.024 482.18C651.337 482.18 649.742 482.944 648.845 484.166C648.288 484.93 647.748 486.218 648.33 488.046L691.625 625.118H626.022L581.132 485.512C580.459 483.435 578.747 482.189 576.554 482.189C574.867 482.189 573.272 482.953 572.375 484.175C571.827 484.931 571.295 486.219 571.885 488.047L639.407 697.269C640.072 699.355 641.783 700.592 643.977 700.592C645.664 700.592 647.259 699.836 648.156 698.606C648.704 697.85 649.236 696.57 648.646 694.734L629.113 634.698H694.666L714.822 697.268C715.487 699.354 717.19 700.6 719.375 700.6C721.053 700.6 722.657 699.844 723.554 698.614C724.11 697.858 724.65 696.57 724.069 694.734Z" fill="#618DCF"/>
<path d="M585.769 700.595C584.085 700.595 582.484 699.832 581.589 698.605C581.037 697.848 580.502 696.562 581.089 694.737L590.658 664.943C592.233 660.05 598.43 640.769 600.526 634.246H519.642L500.216 697.27C499.833 698.449 499.119 699.372 498.149 699.943C497.39 700.376 496.529 700.601 495.655 700.594C493.971 700.594 492.37 699.831 491.475 698.604C490.923 697.847 490.388 696.561 490.975 694.736C491.203 694.009 491.442 693.273 491.681 692.546L499.724 668.265C509.791 636.907 519.868 602.227 529.946 570.869L570.664 444.135C573.542 435.197 577.764 431.24 584.783 430.903C588.082 430.743 591.706 430.666 595.861 430.666C596.71 430.666 598.692 430.674 598.692 430.674C605.436 430.726 637.037 430.903 643.424 430.903L645.946 430.893L648.013 430.869C649.592 430.85 651.172 430.83 652.752 430.83C653.451 430.83 654.153 430.834 654.853 430.843C655.637 430.853 656.403 430.873 657.158 430.903C661.319 431.051 665.184 432.82 667.756 435.756C670.143 438.479 671.215 441.881 670.858 445.594C670.602 448.185 669.67 450.804 668.769 453.337C668.448 454.241 668.131 455.133 667.848 456.01L590.33 697.269C589.947 698.448 589.233 699.371 588.263 699.943C587.504 700.377 586.643 700.602 585.769 700.595ZM603.602 624.664L616.568 584.316H535.686L531.34 597.82L522.718 624.663L603.602 624.664ZM619.677 574.736L619.708 574.55L632.35 535.195H551.467L538.76 574.736H619.677ZM635.438 525.614L647.627 487.676H566.734L554.543 525.614H635.438ZM650.702 478.095L659.737 449.992L660.001 449.186C660.784 446.809 661.755 443.861 660.536 442.095C659.856 441.111 658.552 440.57 656.657 440.486C653.722 440.359 650.786 440.282 647.848 440.256H647.268C646.474 440.251 645.377 440.248 644.044 440.248C633.291 440.248 606.916 440.41 600.197 440.466L599.279 440.473C598.238 440.481 597.197 440.485 596.156 440.486C594.959 440.486 593.727 440.421 592.422 440.352L591.551 440.307C590.533 440.248 589.514 440.216 588.494 440.211C587.048 440.211 585.82 440.302 584.741 440.489C581.936 440.97 581.442 442.263 580.694 444.221C579.556 447.238 578.599 450.395 577.672 453.448L577.647 453.532C577.178 455.076 576.71 456.617 576.22 458.141C574.523 463.446 572.822 468.743 571.118 474.045L569.817 478.094L650.702 478.095Z" fill="#72ABFF"/>
<path d="M761.828 127.283C760.856 116.727 754.99 107.438 746.226 101.553C727.067 88.688 701.52 97.469 692.73 118.332C691.897 120.308 695.126 121.172 695.948 119.219C704.779 98.262 731.899 92.117 748.62 107.691C756.787 115.297 760.021 126.208 758.104 137.13C756.87 144.164 753.67 154.283 745.305 154.763C731.351 155.564 717.115 154.763 703.145 154.763H631.993C618.812 154.763 605.251 155.696 592.094 154.763C580.942 153.972 578.148 136.482 579.282 127.72C580.817 115.857 589.717 106.774 600.681 102.709C623.543 94.233 646.492 108.361 656.06 129.302C656.951 131.253 659.829 129.559 658.942 127.618C650.528 109.204 632 95.136 611.089 96.986C591.755 98.696 574.473 113.524 575.729 133.952C576.199 141.604 579.201 153.122 586.706 156.854C589.175 158.082 591.65 158.102 594.281 158.102H734.652C739.883 158.102 747.246 159.215 751.908 156.308C760.368 151.031 762.657 136.299 761.828 127.283Z" fill="#BBDFFF"/>
<path d="M616.498 90.822C618.945 67.842 642.408 51.997 664.456 53.333C688.1 54.766 703.736 72.013 710.2 93.619C710.814 95.671 714.036 94.797 713.418 92.732C706.324 69.021 688.558 50.556 662.63 49.918C639.194 49.342 615.719 66.801 613.161 90.822C612.933 92.955 616.272 92.939 616.498 90.822ZM753.258 322.622C761.122 330.986 762.203 343.786 754.888 352.875C748.194 361.191 736.231 363.777 726.734 358.805C717.647 354.048 712.783 343.532 715.095 333.522C717.494 323.139 726.765 316.272 737.21 315.97C739.206 315.912 739.214 312.804 737.21 312.862C725.397 313.203 714.852 320.959 712.098 332.695C709.323 344.523 715.353 356.968 726.372 362.08C737.034 367.027 750.019 363.949 757.357 354.781C765.646 344.424 764.373 329.907 755.456 320.424C754.082 318.964 751.888 321.165 753.258 322.622ZM537.639 85.878C530.843 86.814 526.319 92.525 526.007 99.191C525.913 101.191 529.022 101.186 529.115 99.191C529.635 88.08 545.618 84.735 549.259 95.894C552.642 106.262 539.894 113.552 532.141 106.503C530.664 105.16 528.459 107.352 529.943 108.701C540.328 118.144 557.478 107.665 551.87 94.05C549.573 88.472 543.611 85.056 537.639 85.878ZM467.502 450.185C460.706 451.121 456.182 456.832 455.87 463.498C455.776 465.498 458.885 465.493 458.978 463.498C459.498 452.386 475.481 449.042 479.122 460.201C482.505 470.569 469.757 477.859 462.004 470.81C460.527 469.467 458.322 471.659 459.806 473.008C470.191 482.451 487.341 471.972 481.733 458.357C479.436 452.779 473.474 449.362 467.502 450.185ZM782.426 194.404C771.226 189.371 762.434 203.548 770.152 212.193C771.487 213.688 773.679 211.484 772.35 209.995C766.758 203.731 773.188 193.589 781.204 197.289C788.931 200.856 786.007 211.881 777.924 212.317C775.934 212.424 775.922 215.533 777.924 215.425C789.173 214.819 793.307 199.293 782.426 194.404ZM119.938 575.848C113.399 591.566 133.246 603.684 145.232 592.784C146.715 591.435 144.512 589.242 143.034 590.586C133.732 599.045 118.451 590.321 122.483 577.869C126.822 564.468 146.05 568.458 146.667 581.81C146.759 583.802 149.868 583.813 149.775 581.81C149.028 565.637 126.458 560.178 119.938 575.848ZM11.2966 142.539C17.7866 158.278 40.3896 152.812 41.1576 136.63C41.2526 134.628 38.1436 134.635 38.0496 136.63C37.4536 149.189 20.4796 153.825 14.5246 142.17C8.1166 129.626 24.5346 118.851 34.4116 127.856C35.8856 129.199 38.0916 127.009 36.6096 125.658C24.6456 114.749 4.82561 126.849 11.2966 142.539Z" fill="#BBDFFF"/>
</g>
<defs>
<clipPath id="clip0_17_3">
<rect width="852" height="705" fill="white"/>
</clipPath>
</defs>
</svg>
