<svg xmlns="http://www.w3.org/2000/svg" version="1.1" xmlns:xlink="http://www.w3.org/1999/xlink" width="512" height="512" x="0" y="0" viewBox="0 0 24 24" style="enable-background:new 0 0 512 512" xml:space="preserve" class=""><g><path d="M1 21.375c0 .725.303 1.388.693 1.756.354.486 1.186.869 1.919.869.433 0 .87-.108 1.271-.33l11.927-6.666c.019-.011.028-.029.045-.041.686-.303 1.974-1.11 4.801-2.668h.001c1.788-1.003 1.79-3.585-.001-4.59-2.65-1.353-3.938-2.286-4.704-2.643-.801-.568-2.83-1.587-7.245-4.062C4.102-.14 3.234-.68 1.886.657.466 1.244 1.162 5.17 1 21.375zm10.277-9.398c-.101.099-8.683 9.275-8.777 9.375.147-14.712-.135-16.83.009-18.695.093.1 8.43 8.996 8.768 9.32zM3.486 22.493c11.543-12.121 8.334-8.746 8.891-9.365l2.862 3.037c-11.42 6.296-11.088 6.406-11.753 6.328zm17.437-9.507-4.334 2.424L13.375 12l3.214-3.41 4.334 2.424a1.132 1.132 0 0 1 0 1.972zm-5.687-5.148c-1.249 1.312-.144.181-2.906 3.052L3.484 1.504c1.001.089 4.143 2.117 11.752 6.334z" fill="#FA0000" opacity="1" data-original="#000000" class=""></path></g></svg>