<svg xmlns="http://www.w3.org/2000/svg" version="1.1" xmlns:xlink="http://www.w3.org/1999/xlink" xmlns:svgjs="http://svgjs.com/svgjs" width="512" height="512" x="0" y="0" viewBox="0 0 66 66" style="enable-background:new 0 0 512 512" xml:space="preserve" class=""><g><path d="m59.3 42.7-3.6-1.3c-.4-1.6-1-3.1-1.8-4.4l1.6-3.5c.2-.4.1-.8-.2-1.1L53 30.1c-.3-.3-.8-.4-1.1-.2l-3.5 1.6c-1.4-.8-2.9-1.5-4.4-1.9L42.6 26c-.1-.4-.5-.7-.9-.7h-3.2c-.4 0-.8.3-.9.7l-1.3 3.6c-1.6.4-3 1-4.4 1.8l-3.5-1.6c-.4-.2-.8-.1-1.1.2L25 32.3c-.3.3-.4.7-.2 1.1l1.6 3.5c-.8 1.4-1.4 2.8-1.8 4.4L21 42.7c-.4.1-.7.5-.7.9v3.2c0 .4.3.8.7.9l3.6 1.3c.4 1.6 1 3 1.8 4.4l-1.6 3.5c-.2.4-.1.8.2 1.1l2.3 2.2c.3.3.7.4 1.1.2l3.5-1.6c1.4.8 2.9 1.5 4.4 1.8l1.3 3.6c.1.4.5.7.9.7h3.2c.4 0 .8-.3.9-.7l1.3-3.6c1.6-.4 3.1-1 4.4-1.8l3.5 1.6c.4.2.8.1 1.1-.2l2.2-2.2c.3-.3.4-.7.2-1.1l-1.6-3.5c.8-1.4 1.4-2.9 1.8-4.4l3.6-1.3c.4-.1.7-.5.7-.9v-3.2c.1-.4-.1-.8-.5-.9zm-1.4 3.4-3.5 1.3c-.3.1-.6.4-.6.7-.4 1.7-1 3.3-2 4.8-.2.3-.2.7-.1 1l1.6 3.3-1.3 1.3-3.3-1.6c-.3-.1-.7-.1-1 .1-1.5.9-3.1 1.6-4.8 2-.3.1-.6.3-.7.6L41 63h-1.8L38 59.5c-.1-.3-.4-.6-.7-.6-1.7-.4-3.3-1-4.8-2-.3-.2-.7-.2-1-.1l-3.3 1.6-1.3-1.3 1.6-3.3c.1-.3.1-.7-.1-1-.9-1.5-1.6-3.1-2-4.8-.1-.3-.3-.6-.6-.7L22.3 46v-1.8l3.5-1.3c.3-.1.6-.4.6-.7.4-1.7 1-3.3 2-4.8.2-.3.2-.7.1-1l-1.6-3.3 1.3-1.3 3.3 1.6c.3.1.7.1 1-.1 1.5-1 3.1-1.6 4.8-2 .3-.1.6-.3.7-.6l1.3-3.5H41l1.3 3.5c.1.3.4.6.7.6 1.7.4 3.3 1 4.8 2 .3.2.7.2 1 .1l3.3-1.6 1.3 1.3-1.6 3.3c-.1.3-.1.7.1 1 .9 1.4 1.6 3 2 4.8.1.3.3.6.6.7l3.5 1.3v1.9z" fill="#07174E" data-original="#000000" opacity="1" class=""></path><path d="M41.6 38.8c-4.7-1.1-8.9 3.1-7.9 7.8.5 2.4 2.4 4.3 4.9 4.9 8.6 2 11.3-10.8 3-12.7zm-2.5 10.8c-1.6-.4-3-1.7-3.4-3.4-.7-3.4 2.2-6.2 5.5-5.4 5.8 1.3 3.7 10.1-2.1 8.8zM20 15.5l2 .7c.2.9.6 1.7 1 2.5l-.9 2c-.2.4-.1.8.2 1.1l1.4 1.4c.3.3.7.4 1.1.2l2-.9c.8.4 1.6.8 2.5 1l.7 2c.1.4.5.7.9.7h2c.4 0 .8-.3.9-.7l.7-2c.9-.2 1.7-.6 2.5-1l2 .9c.4.2.8.1 1.1-.2l1.4-1.4c.3-.3.4-.7.2-1.1l-.9-2c.4-.8.8-1.6 1-2.5l2-.7c.4-.1.7-.5.7-.9v-2c0-.4-.3-.8-.7-.9l-2-.7c-.2-.9-.6-1.7-1-2.5l.9-2c.2-.4.1-.8-.2-1.1L40.2 4c-.3-.3-.8-.4-1.1-.2l-2 .9c-.8-.4-1.6-.8-2.5-1l-.7-2c-.2-.4-.5-.7-1-.7h-2c-.4 0-.8.3-.9.7l-.7 2c-.9.2-1.7.6-2.5 1l-2-.9c-.4-.2-.8-.1-1.1.2l-1.4 1.4c-.3.3-.4.7-.2 1.1l.9 2c-.4.8-.8 1.6-1 2.5l-2 .7c-.4.1-.7.5-.7.9v2c.1.4.3.8.7.9zm1.4-2.2 1.9-.7c.3-.1.6-.4.6-.7.2-1 .6-2 1.2-2.8.2-.3.2-.7.1-1l-.8-1.8.4-.4 1.8.8c.3.1.7.1 1-.1.9-.6 1.8-1 2.8-1.2.3-.1.6-.3.7-.6l.6-1.8h.6l.7 1.9c.1.3.4.6.7.6 1 .2 2 .6 2.8 1.2.3.2.7.2 1 .1l1.8-.8.4.4-.8 1.8c-.1.3-.1.7.1 1 .6.8.9 1.8 1.2 2.8.1.3.3.6.6.7l1.9.7v.6l-1.9.7c-.3.1-.6.4-.6.7-.2 1-.6 1.9-1.2 2.8-.2.3-.2.7-.1 1l.8 1.8-.4.4-1.8-.8c-.3-.1-.7-.1-1 .1-.9.6-1.8.9-2.8 1.2-.3.1-.6.3-.7.6l-.7 1.9h-.5l-.8-2.1c-.1-.3-.4-.6-.7-.6-1-.2-2-.6-2.8-1.2-.3-.2-.7-.2-1-.1l-1.8.9-.4-.4.8-1.8c.1-.3.1-.7-.1-1-.6-.9-.9-1.8-1.2-2.8-.1-.3-.3-.6-.6-.7l-1.9-.7v-.6z" fill="#07174E" data-original="#000000" opacity="1" class=""></path><path d="M32 18c2.8 0 4.9-2.5 4.3-5.3-.6-3.4-4.9-4.8-7.4-2.3-1 1-1.5 2.5-1.2 4 .3 2 2.1 3.6 4.3 3.6zm2.3-4.9c.3 1.7-1.1 3.2-2.8 2.8-.9-.2-1.7-.9-1.9-1.9-.6-3 4.1-4 4.7-.9zM21 30.8c0-.6-.4-1-1-1h-8.9c-.6 0-1 .4-1 1s.4 1 1 1H20c.5 0 1-.5 1-1zM7.1 27.1H16c.6 0 1-.4 1-1s-.4-1-1-1H7.1c-.6 0-1 .4-1 1s.4 1 1 1zM16 34.5H7.1c-.6 0-1 .4-1 1s.4 1 1 1H16c.6 0 1-.4 1-1s-.4-1-1-1z" fill="#07174E" data-original="#000000" opacity="1" class=""></path></g></svg>