<svg xmlns="http://www.w3.org/2000/svg" version="1.1" xmlns:xlink="http://www.w3.org/1999/xlink" width="512" height="512" x="0" y="0" viewBox="0 0 64 64" style="enable-background:new 0 0 512 512" xml:space="preserve"><g><g data-name="Layer 22"><path d="M50.174 19.611A22 22 0 0 1 53.629 28H47.5A15.944 15.944 0 0 0 36 16.505V10.37a21.83 21.83 0 0 1 10.809 5.369l1.347-1.478A23.83 23.83 0 0 0 35.129 8.21 1 1 0 0 0 34 9.2v8.1a1 1 0 0 0 .8.98A13.954 13.954 0 0 1 45.719 29.2a1 1 0 0 0 .98.8h8.1a1 1 0 0 0 .992-1.129 24.017 24.017 0 0 0-3.965-10.389zM18.728 36.43A13.976 13.976 0 0 1 29.2 18.281a1 1 0 0 0 .8-.98V9.2a1 1 0 0 0-1.129-.991A24.052 24.052 0 0 0 14.765 15.3l1.435 1.4A22.085 22.085 0 0 1 28 10.37v6.135A16.052 16.052 0 0 0 16 32a15.88 15.88 0 0 0 .59 4.277l-5.328 3.077a22.04 22.04 0 0 1 1.413-17.875l-1.755-.958a24.031 24.031 0 0 0-1.1 20.667 1 1 0 0 0 1.424.483l7.03-4.059a1 1 0 0 0 .454-1.182zM54.8 34h-8.1a1 1 0 0 0-.98.8 13.984 13.984 0 0 1-24.185 6.473 1 1 0 0 0-1.248-.2l-7.031 4.06a1 1 0 0 0-.293 1.475 24.032 24.032 0 0 0 6.515 5.867l1.046-1.7a22.014 22.014 0 0 1-5.254-4.491L20.6 43.2A15.984 15.984 0 0 0 47.5 36h6.13a22.016 22.016 0 0 1-27.37 17.243l-.52 1.932a24.017 24.017 0 0 0 30.051-20.046A1 1 0 0 0 54.8 34z" fill="#E7D610" opacity="1" data-original="#000000"></path><path d="M34 24h-6a1 1 0 0 0-1 1v7h-4v-8h-2v15a1 1 0 0 0 1 1h21v-2h-2v-9a1 1 0 0 0-1-1h-5v-3a1 1 0 0 0-1-1zM23 34h4v4h-4zm6-1v-7h4v12h-4zm10-3v8h-4v-8zM54.293 10.293l-8 8 1.414 1.414L55.414 12H62v-2h-7a1 1 0 0 0-.707.293zM61 2h-6a1 1 0 0 0-1 1v4a1 1 0 0 0 1 1h6a1 1 0 0 0 1-1V3a1 1 0 0 0-1-1zm-1 4h-4V4h4z" fill="#E7D610" opacity="1" data-original="#000000"></path><path d="M54 14h8v2h-8zM54 18h8v2h-8zM12 60h8v2h-8zM15.279 21.721l1.414-1.414-7.014-7.014A1 1 0 0 0 8.972 13h-7v2h6.586zM2.972 11h6a1 1 0 0 0 1-1V6a1 1 0 0 0-1-1h-6a1 1 0 0 0-1 1v4a1 1 0 0 0 1 1zm1-4h4v2h-4zM9 56H3a1 1 0 0 0-1 1v4a1 1 0 0 0 1 1h6a1 1 0 0 0 1-1v-4a1 1 0 0 0-1-1zm-1 4H4v-2h4z" fill="#E7D610" opacity="1" data-original="#000000"></path><path d="M1.972 17h8v2h-8zM19.707 57.707l7-7-1.414-1.414L18.586 56H12v2h7a1 1 0 0 0 .707-.293z" fill="#E7D610" opacity="1" data-original="#000000"></path></g></g></svg>