<svg width="3001" height="3000" viewBox="0 0 3001 3000" fill="none" xmlns="http://www.w3.org/2000/svg">
<g clip-path="url(#clip0_214_80)">
<mask id="mask0_214_80" style="mask-type:luminance" maskUnits="userSpaceOnUse" x="0" y="0" width="3001" height="3000">
<path d="M3000.66 0H0.656006V3000H3000.66V0Z" fill="white"/>
</mask>
<g mask="url(#mask0_214_80)">
<path d="M775.708 2552.08C706.554 2603.19 714.321 2689.88 726.849 2728.72H2301.6C2302.85 2718.69 2294.09 2685.87 2248.99 2634.76C2203.88 2583.64 2145 2580.89 2121.2 2585.9C2123.71 2552.07 2111.43 2474.65 2042.28 2435.56C1973.12 2396.48 1900.71 2411.76 1873.15 2424.29C1860.62 2391.72 1810.76 2325.07 1711.54 2319.05C1612.32 2313.04 1554.94 2369.17 1538.66 2397.98C1536.15 2372.92 1514.6 2320.56 1448.45 2311.54C1382.31 2302.52 1338.21 2342.86 1324.43 2364.16C1296.87 2327.83 1210.17 2265.69 1083.89 2307.78C957.613 2349.88 948.592 2465.63 959.868 2518.25C927.295 2508.23 844.862 2500.96 775.708 2552.08Z" fill="#F1F1F1"/>
<path fill-rule="evenodd" clip-rule="evenodd" d="M1318.44 2368.7C1292.46 2334.45 1208.96 2274.01 1086.27 2314.91C1025.31 2335.23 993.099 2373.06 977.256 2411.91C961.284 2451.07 961.843 2491.6 967.217 2516.67L969.901 2529.2L957.656 2525.43C926.566 2515.87 846.824 2508.86 780.175 2558.12C747.517 2582.26 732.975 2614.75 728.074 2646.16C723.586 2674.92 727.244 2702.53 732.441 2721.2H2293.51C2292.54 2716.49 2290.34 2709.58 2285.91 2700.42C2278.59 2685.31 2265.55 2664.89 2243.35 2639.73C2200.41 2591.06 2144.5 2588.67 2122.75 2593.25L2112.97 2595.31L2113.7 2585.34C2116.1 2553 2104.16 2479.17 2038.58 2442.11C1972.07 2404.52 1902.29 2419.3 1876.26 2431.13L1869 2434.43L1866.13 2426.99C1854.44 2396.58 1806.79 2332.36 1711.08 2326.56C1615.11 2320.74 1560.26 2375.02 1545.2 2401.68L1533.53 2422.31L1531.17 2398.73C1528.89 2375.93 1509.07 2327.39 1447.44 2318.98C1385 2310.47 1343.44 2348.6 1330.74 2368.24L1324.92 2377.24L1318.44 2368.7ZM1324.09 2351.97C1289.62 2313.47 1203.09 2260.13 1081.52 2300.65C1016.2 2322.42 980.755 2363.52 963.336 2406.23C948.335 2443.01 946.778 2480.75 950.484 2508.09C911.248 2499.69 835.781 2498.32 771.239 2546.03C734.743 2573 718.592 2609.41 713.22 2643.84C707.874 2678.1 713.133 2710.68 719.695 2731.02L721.375 2736.23H2308.24L2309.06 2729.65C2309.96 2722.43 2307.29 2710.09 2299.44 2693.87C2291.41 2677.29 2277.52 2655.74 2254.62 2629.78C2212.36 2581.89 2158.43 2574.32 2129.01 2577.15C2128.91 2538.44 2112.88 2466.84 2045.97 2429.02C1979.41 2391.4 1910.07 2402.22 1877.12 2414.53C1859.94 2378.28 1808.16 2317.38 1711.99 2311.55C1624.28 2306.23 1567.75 2347.95 1542.31 2379.5C1533.12 2350.64 1507 2311.93 1449.47 2304.09C1387.22 2295.6 1343.4 2328.47 1324.09 2351.97Z" fill="#07174E"/>
<path d="M1215.28 1463.33L1268.05 1394.5L1384.56 1755.3L1235.65 2039.88C1229.02 2052.55 1210.19 2049.64 1207.75 2035.56C1178.04 1864.21 1170.13 1746.86 1178.68 1562.57C1180.35 1526.55 1193.34 1491.95 1215.28 1463.33Z" fill="#F1F1F1"/>
<path d="M1794.38 1459.57L1741.61 1390.74L1625.1 1751.54L1774.01 2036.13C1780.63 2048.79 1799.47 2045.88 1801.91 2031.8C1831.62 1860.45 1839.53 1743.1 1830.98 1558.82C1829.31 1522.79 1816.32 1488.19 1794.38 1459.57Z" fill="#F1F1F1"/>
<path d="M1222.95 1127.65C1228.09 798.294 1335.7 533.833 1501.07 398.532C1666.44 533.833 1773.55 785.348 1779.19 1127.65C1770.35 1468.5 1729.48 1642.05 1583.75 1916.91C1519.17 1927.91 1482.97 1928.69 1418.39 1916.91C1277.92 1642.4 1237.51 1466 1222.95 1127.65Z" fill="#DBE1F5"/>
<path d="M1418.39 1909.39H1583.76C1578.65 2236.75 1583.17 2417.46 1621.34 2728.72H1388.32C1424.32 2415.17 1426.91 2234.76 1418.39 1909.39Z" fill="white"/>
<path fill-rule="evenodd" clip-rule="evenodd" d="M1410.67 1901.88H1591.39L1591.27 1909.51C1586.17 2236.64 1590.68 2416.99 1628.8 2727.8L1629.83 2736.23H1379.89L1380.85 2727.86C1416.79 2414.76 1419.39 2234.73 1410.87 1909.59L1410.67 1901.88ZM1426.1 1916.91C1434.31 2234.78 1431.6 2414.8 1396.74 2721.2H1612.85C1575.87 2417.06 1571.25 2236.74 1576.12 1916.91H1426.1Z" fill="#07174E"/>
<path d="M1501.07 2217.58C1419.89 2136.4 1414.63 1980.8 1422.14 1913.15H1579.99C1595.03 2099.57 1533.64 2193.78 1501.07 2217.58Z" fill="#DBE1F5"/>
<path fill-rule="evenodd" clip-rule="evenodd" d="M-2.27344 2728.72C-2.27344 2724.56 1.09191 2721.2 5.24328 2721.2H2993.14C2997.29 2721.2 3000.66 2724.56 3000.66 2728.72C3000.66 2732.87 2997.29 2736.23 2993.14 2736.23H5.24328C1.09191 2736.23 -2.27344 2732.87 -2.27344 2728.72Z" fill="#07174E"/>
<path d="M1628.85 898.394C1628.85 971.043 1569.96 1029.94 1497.31 1029.94C1424.66 1029.94 1365.77 971.043 1365.77 898.394C1365.77 825.745 1424.66 766.852 1497.31 766.852C1569.96 766.852 1628.85 825.745 1628.85 898.394Z" fill="white"/>
<path fill-rule="evenodd" clip-rule="evenodd" d="M1497.31 774.368C1428.82 774.368 1373.29 829.897 1373.29 898.394C1373.29 966.892 1428.82 1022.42 1497.31 1022.42C1565.81 1022.42 1621.34 966.892 1621.34 898.394C1621.34 829.897 1565.81 774.368 1497.31 774.368ZM1358.25 898.394C1358.25 821.594 1420.51 759.335 1497.31 759.335C1574.11 759.335 1636.37 821.594 1636.37 898.394C1636.37 975.195 1574.11 1037.45 1497.31 1037.45C1420.51 1037.45 1358.25 975.195 1358.25 898.394Z" fill="#07174E"/>
<path d="M1583.75 898.394C1583.75 946.135 1545.05 984.837 1497.31 984.837C1449.57 984.837 1410.87 946.135 1410.87 898.394C1410.87 850.654 1449.57 811.952 1497.31 811.952C1545.05 811.952 1583.75 850.654 1583.75 898.394Z" fill="#F1F1F1"/>
<path fill-rule="evenodd" clip-rule="evenodd" d="M1362.01 571.42C1375.79 591.464 1422.9 631.553 1501.07 631.553C1579.24 631.553 1628.85 591.464 1643.89 571.42V569.002C1603.62 500.192 1555.5 443.067 1501.07 398.532C1448.09 441.88 1401.04 498.486 1361.38 566.236L1362.01 571.42Z" fill="#07174E"/>
<path d="M1455.97 575.175C1455.97 581.403 1450.92 586.451 1444.7 586.451C1438.47 586.451 1433.42 581.403 1433.42 575.175C1433.42 568.948 1438.47 563.9 1444.7 563.9C1450.92 563.9 1455.97 568.948 1455.97 575.175Z" fill="white"/>
<path d="M1572.48 575.175C1572.48 581.403 1567.43 586.451 1561.2 586.451C1554.98 586.451 1549.93 581.403 1549.93 575.175C1549.93 568.948 1554.98 563.9 1561.2 563.9C1567.43 563.9 1572.48 568.948 1572.48 575.175Z" fill="white"/>
<path d="M1410.87 654.1C1410.87 660.327 1405.82 665.375 1399.6 665.375C1393.37 665.375 1388.32 660.327 1388.32 654.1C1388.32 647.873 1393.37 642.825 1399.6 642.825C1405.82 642.825 1410.87 647.873 1410.87 654.1Z" fill="white"/>
<path d="M1516.1 669.133C1516.1 675.361 1511.05 680.409 1504.83 680.409C1498.6 680.409 1493.55 675.361 1493.55 669.133C1493.55 662.906 1498.6 657.858 1504.83 657.858C1511.05 657.858 1516.1 662.906 1516.1 669.133Z" fill="white"/>
<path d="M1621.34 654.1C1621.34 660.327 1616.29 665.375 1610.06 665.375C1603.84 665.375 1598.79 660.327 1598.79 654.1C1598.79 647.873 1603.84 642.825 1610.06 642.825C1616.29 642.825 1621.34 647.873 1621.34 654.1Z" fill="white"/>
<path d="M1335.7 1484.7C1335.7 1490.92 1330.65 1495.97 1324.43 1495.97C1318.2 1495.97 1313.15 1490.92 1313.15 1484.7C1313.15 1478.47 1318.2 1473.42 1324.43 1473.42C1330.65 1473.42 1335.7 1478.47 1335.7 1484.7Z" fill="white"/>
<path d="M1666.44 1484.7C1666.44 1490.92 1671.49 1495.97 1677.71 1495.97C1683.94 1495.97 1688.99 1490.92 1688.99 1484.7C1688.99 1478.47 1683.94 1473.42 1677.71 1473.42C1671.49 1473.42 1666.44 1478.47 1666.44 1484.7Z" fill="white"/>
<path d="M1425.9 1469.66C1425.9 1475.89 1420.86 1480.94 1414.63 1480.94C1408.4 1480.94 1403.35 1475.89 1403.35 1469.66C1403.35 1463.44 1408.4 1458.39 1414.63 1458.39C1420.86 1458.39 1425.9 1463.44 1425.9 1469.66Z" fill="white"/>
<path d="M1576.24 1469.66C1576.24 1475.89 1581.28 1480.94 1587.51 1480.94C1593.74 1480.94 1598.79 1475.89 1598.79 1469.66C1598.79 1463.44 1593.74 1458.39 1587.51 1458.39C1581.28 1458.39 1576.24 1463.44 1576.24 1469.66Z" fill="white"/>
<path d="M1395.84 1589.93C1395.84 1596.16 1390.79 1601.21 1384.56 1601.21C1378.33 1601.21 1373.29 1596.16 1373.29 1589.93C1373.29 1583.71 1378.33 1578.66 1384.56 1578.66C1390.79 1578.66 1395.84 1583.71 1395.84 1589.93Z" fill="white"/>
<path d="M1613.82 1589.93C1613.82 1596.16 1618.87 1601.21 1625.1 1601.21C1631.32 1601.21 1636.37 1596.16 1636.37 1589.93C1636.37 1583.71 1631.32 1578.66 1625.1 1578.66C1618.87 1578.66 1613.82 1583.71 1613.82 1589.93Z" fill="white"/>
<path fill-rule="evenodd" clip-rule="evenodd" d="M1501.32 1533.56C1413.84 1533.56 1328.43 1543.59 1278.3 1563.11L1272.84 1549.1C1325.64 1528.54 1413.34 1518.52 1501.32 1518.52C1589.36 1518.52 1679.27 1528.55 1736.62 1549.03L1731.56 1563.19C1676.62 1543.57 1588.74 1533.56 1501.32 1533.56Z" fill="#07174E"/>
<path fill-rule="evenodd" clip-rule="evenodd" d="M1620.56 1845.05C1609.1 1868.32 1596.85 1892.2 1583.75 1916.91C1519.17 1927.91 1482.97 1928.69 1418.39 1916.91C1405.87 1892.45 1394.15 1868.78 1383.17 1845.69C1383.66 1844.3 1384.12 1842.98 1384.56 1841.74C1437.18 1815.44 1557.45 1815.43 1617.58 1841.74L1620.56 1845.05Z" fill="#07174E"/>
<path d="M907.25 2304.02C907.25 2314.4 898.836 2322.81 888.458 2322.81C878.079 2322.81 869.666 2314.4 869.666 2304.02C869.666 2293.64 878.079 2285.23 888.458 2285.23C898.836 2285.23 907.25 2293.64 907.25 2304.02Z" fill="#DBE1F5"/>
<path d="M2012.21 2281.47C2012.21 2291.85 2003.8 2300.26 1993.42 2300.26C1983.04 2300.26 1974.62 2291.85 1974.62 2281.47C1974.62 2271.09 1983.04 2262.68 1993.42 2262.68C2003.8 2262.68 2012.21 2271.09 2012.21 2281.47Z" fill="#F1F1F1"/>
<path d="M944.834 2086.04C944.834 2096.41 936.42 2104.83 926.042 2104.83C915.663 2104.83 907.25 2096.41 907.25 2086.04C907.25 2075.66 915.663 2067.24 926.042 2067.24C936.42 2067.24 944.834 2075.66 944.834 2086.04Z" fill="#F1F1F1"/>
<path d="M1779.19 2198.79C1779.19 2209.17 1770.78 2217.58 1760.4 2217.58C1750.02 2217.58 1741.61 2209.17 1741.61 2198.79C1741.61 2188.41 1750.02 2180 1760.4 2180C1770.78 2180 1779.19 2188.41 1779.19 2198.79Z" fill="#DBE1F5"/>
<path d="M1162.82 2168.72C1162.82 2187.4 1147.67 2202.55 1128.99 2202.55C1110.31 2202.55 1095.17 2187.4 1095.17 2168.72C1095.17 2150.04 1110.31 2134.89 1128.99 2134.89C1147.67 2134.89 1162.82 2150.04 1162.82 2168.72Z" fill="#DBE1F5"/>
<path d="M1974.62 2063.49C1974.62 2082.17 1959.48 2097.31 1940.8 2097.31C1922.12 2097.31 1906.97 2082.17 1906.97 2063.49C1906.97 2044.8 1922.12 2029.66 1940.8 2029.66C1959.48 2029.66 1974.62 2044.8 1974.62 2063.49Z" fill="#DBE1F5"/>
<path d="M1350.74 2506.98C1310.65 2484.43 1209.42 2456.61 1125.23 2525.77C1041.05 2594.92 1052.57 2689.88 1068.86 2728.72H2076.1C2086.12 2699.9 2092.64 2625.74 2038.52 2559.59C1984.39 2493.44 1893.19 2509.48 1854.36 2525.76C1856.86 2504.47 1845.34 2456.61 1779.19 2435.56C1713.04 2414.51 1671.45 2444.33 1658.92 2461.88C1647.65 2428.05 1601.04 2363.41 1504.83 2375.43C1408.61 2387.46 1362.01 2468.14 1350.74 2506.98Z" fill="white"/>
<path fill-rule="evenodd" clip-rule="evenodd" d="M1651.79 2464.25C1641.29 2432.76 1597.41 2371.43 1505.76 2382.89C1413.69 2394.4 1368.78 2471.79 1357.95 2509.07L1355.31 2518.17L1347.05 2513.53C1308.34 2491.75 1210.81 2465.2 1130 2531.57C1052.41 2595.31 1059.58 2681.76 1073.99 2721.2H2070.57C2078.9 2691.21 2081.84 2624.41 2032.7 2564.35C2007.3 2533.3 1973.16 2521.39 1940.22 2519.26C1907.13 2517.13 1875.78 2524.93 1857.26 2532.7L1845.38 2537.68L1846.89 2524.88C1848.99 2507.01 1839.48 2462.64 1776.91 2442.73C1714.02 2422.71 1675.76 2451.23 1665.04 2466.24L1656.46 2478.26L1651.79 2464.25ZM1661.35 2447.9C1643.7 2410.64 1594.67 2356.63 1503.9 2367.97C1410.25 2379.68 1361.94 2453.58 1346.36 2496.22C1300.53 2473.99 1202.83 2452.3 1120.46 2519.96C1032.86 2591.91 1044.84 2690.87 1061.93 2731.62L1063.86 2736.23H2081.44L2083.2 2731.18C2093.89 2700.45 2100.44 2623.41 2044.33 2554.83C2015.61 2519.73 1977.09 2506.58 1941.19 2504.26C1911.05 2502.32 1882.4 2507.95 1861.97 2514.87C1859.85 2488.14 1841.45 2447.49 1781.47 2428.4C1722.52 2409.64 1681.23 2429.27 1661.35 2447.9Z" fill="#07174E"/>
<path d="M569.522 1740.74C532.851 1784.66 569.522 1804.79 592.442 1809.36C699.4 1812.41 921.566 1814.85 954.571 1800.21C995.826 1781.91 991.242 1740.74 940.819 1727.02C890.396 1713.29 890.396 1653.82 817.053 1653.82C743.711 1653.82 720.791 1727.02 688.704 1731.59C656.616 1736.17 615.361 1685.85 569.522 1740.74Z" fill="#F1F1F1"/>
<path d="M2086.37 1629.96C2053.9 1673.13 2085.33 1690.27 2105.11 1693.45C2200.86 1698.74 2399.87 1704.88 2429.85 1687.1C2467.32 1664.88 2439.22 1636.31 2417.36 1623.61C2395.5 1610.91 2389.26 1541.07 2317.44 1541.07C2245.62 1541.07 2211.27 1629.96 2186.29 1623.61C2161.31 1617.26 2126.96 1575.99 2086.37 1629.96Z" fill="#F1F1F1"/>
<path d="M749.398 928.461C918.525 883.361 937.316 710.477 865.908 616.518C934.811 644.079 1016.24 710.477 982.417 819.469C937.316 937.424 805.774 940.989 749.398 928.461Z" fill="#F1F1F1"/>
<path d="M805.773 1293.02C837.414 1264.67 838.189 1242.27 820.807 1195.3C850.391 1236.44 870.715 1245.59 914.766 1229.13C877.935 1254.92 874.844 1274.46 892.216 1315.57C857.356 1282.87 838.483 1279.1 805.773 1293.02Z" fill="#DBE1F5"/>
<path d="M2065.53 1200.4C2106.58 1211.32 2110.24 1198 2139.99 1157.72C2121.8 1205.02 2140.8 1228.71 2178.71 1256.53C2136.95 1239.86 2123.51 1244.68 2098.65 1281.75C2106.88 1234.67 2095.1 1220.12 2065.53 1200.4Z" fill="#DBE1F5"/>
<path d="M2087.37 849.538C2183.45 833.97 2186.87 800 2211.4 687.922C2217.61 803.842 2237.63 804.274 2342.94 826.984C2240.02 831.206 2228.72 872.782 2211.4 973.56C2184.58 867.399 2167.67 863.122 2087.37 849.538Z" fill="#DBE1F5"/>
<path d="M1521.3 811.952L1422.14 941.616C1430.89 957.169 1437.57 964.064 1450.93 974.863L1556.49 831.9C1544.2 820.194 1536.37 816.11 1521.3 811.952Z" fill="white"/>
<path d="M1463.73 981.512L1566.08 841.874L1572.48 851.849L1476.52 984.837L1463.73 981.512Z" fill="white"/>
<path d="M1493.15 2047.46C1458.63 1736.05 1468.99 1483.22 1493.44 1396.76C1495.27 1390.27 1503.29 1390.4 1505.16 1396.87C1545.51 1536.85 1528.12 1868.61 1506.67 2047.67C1505.63 2056.33 1494.11 2056.13 1493.15 2047.46Z" fill="#F1F1F1"/>
</g>
</g>
<defs>
<clipPath id="clip0_214_80">
<rect width="3001" height="3000" fill="white"/>
</clipPath>
</defs>
</svg>
