<svg xmlns="http://www.w3.org/2000/svg" version="1.1" xmlns:xlink="http://www.w3.org/1999/xlink" xmlns:svgjs="http://svgjs.com/svgjs" width="512" height="512" x="0" y="0" viewBox="0 0 512 512" style="enable-background:new 0 0 512 512" xml:space="preserve" class=""><g><path d="M502.695 303.33c-2.712-10.118-9.108-17.635-17.979-21.705l4.022-1.548a8.001 8.001 0 0 0 5.126-7.466v-23.259a8 8 0 0 0-5.126-7.466l-10.442-4.02a81.18 81.18 0 0 0-6.604-15.958l4.539-10.219a7.999 7.999 0 0 0-1.654-8.904l-14.136-14.136 8.106-3.12a7.998 7.998 0 0 0 5.126-7.466v-35.037a8 8 0 0 0-5.126-7.466l-17.6-6.774a118.21 118.21 0 0 0-11.149-26.894l7.66-17.246a7.999 7.999 0 0 0-1.654-8.904l-24.775-24.775a8.003 8.003 0 0 0-8.904-1.655l-17.253 7.663a118.254 118.254 0 0 0-26.885-11.146l-6.776-17.605a7.998 7.998 0 0 0-7.466-5.126h-35.037a8 8 0 0 0-7.466 5.126l-6.776 17.605a118.254 118.254 0 0 0-26.885 11.146l-17.253-7.663a8 8 0 0 0-8.904 1.655l-24.775 24.775a8 8 0 0 0-1.655 8.904l7.662 17.251a118.144 118.144 0 0 0-11.147 26.888l-17.603 6.776a8 8 0 0 0-5.126 7.466v35.037a8 8 0 0 0 5.126 7.466l17.6 6.775a118.218 118.218 0 0 0 11.149 26.894l-7.66 17.246a7.999 7.999 0 0 0 1.654 8.904l24.776 24.775a7.997 7.997 0 0 0 8.904 1.654l17.253-7.662a118.255 118.255 0 0 0 29.125 11.723 7.982 7.982 0 0 0 4.429 4.239l10.44 4.019a81.115 81.115 0 0 0 6.605 15.96l-4.538 10.217a8 8 0 0 0 1.655 8.904l16.446 16.446a7.966 7.966 0 0 0 4.649 2.259l-12.848 7.484c-4.52 2.631-9.116 4.491-13.914 5.6 1.778-2.851 3.17-6.075 4.127-9.645 4.608-17.201-5.616-35.16-23.276-40.885a7.977 7.977 0 0 0-1.047-.263c-25.911-4.673-51.485-13.919-72.034-21.348-7.138-2.581-13.881-5.019-19.614-6.877-23.083-7.489-43.948 1.781-61.313 11.836l-67.073 38.834-6.324-11.174c-5.778-10.208-18.783-13.813-28.993-8.036l-25.295 14.316C8.578 323.5 4.973 336.506 10.75 346.716l74.368 131.402c2.792 4.932 7.35 8.486 12.836 10.007 1.897.526 3.825.786 5.739.786 3.62 0 7.191-.931 10.417-2.757l25.294-14.316c4.933-2.792 8.487-7.35 10.008-12.836s.821-11.224-1.971-16.156l-7.667-13.548 15.29-8.828 115.469 30.94c6.521 1.749 12.923 2.621 19.187 2.621 12.487 0 24.426-3.469 35.662-10.386L488.99 342.901c12.091-7.444 17.855-24.087 13.705-39.571zm-191.562-61.444a8.001 8.001 0 0 0-5.126 7.466v9.674a102.444 102.444 0 0 1-23.713-10.709 8.001 8.001 0 0 0-7.441-.499l-16 7.106-17.008-17.007 7.104-15.994a8 8 0 0 0-.5-7.443 102.304 102.304 0 0 1-12.442-30.015 8 8 0 0 0-4.909-5.614l-16.32-6.282v-24.051l16.323-6.283a8.002 8.002 0 0 0 4.909-5.614 102.309 102.309 0 0 1 12.441-30.009 8.004 8.004 0 0 0 .5-7.442l-7.105-15.999 17.007-17.007 16.001 7.106a8.001 8.001 0 0 0 7.442-.5 102.3 102.3 0 0 1 30.007-12.44 7.998 7.998 0 0 0 5.613-4.909l6.284-16.325h24.052l6.284 16.325a7.998 7.998 0 0 0 5.614 4.909 102.326 102.326 0 0 1 30.007 12.44 8.004 8.004 0 0 0 7.442.5l16.001-7.106 17.007 17.007-7.104 15.994a8 8 0 0 0 .5 7.443 102.313 102.313 0 0 1 12.443 30.015 8 8 0 0 0 4.909 5.614l16.32 6.282v24.052l-16.326 6.284a7.998 7.998 0 0 0-4.909 5.614 101.908 101.908 0 0 1-.779 3.04 81.091 81.091 0 0 0-12.611-4.893l-4.017-10.438a8.003 8.003 0 0 0-5.055-4.754c.2-2.286.323-4.581.323-6.88 0-43.05-35.024-78.075-78.075-78.075s-78.075 35.024-78.075 78.075c0 38.096 27.194 69.946 63.617 76.729-.06.199-.133.393-.191.593zm12.508-30.197 4.538 10.219c-.03.056-.056.114-.087.169a61.704 61.704 0 0 1-31.967-14.114c3.842-18.871 20.444-32.662 40.1-32.662 10.992 0 21.216 4.306 28.782 11.823a81.24 81.24 0 0 0-4.144 2.098l-10.218-4.539a8 8 0 0 0-8.905 1.654l-16.445 16.446a8.005 8.005 0 0 0-1.654 8.906zm12.585-52.387c-9.231 0-16.742-7.51-16.742-16.742s7.511-16.742 16.742-16.742 16.742 7.51 16.742 16.742-7.511 16.742-16.742 16.742zm44.615 12.876-2.293 5.958a56.422 56.422 0 0 0-18.163-13.502c5.327-5.826 8.582-13.576 8.582-22.073 0-18.054-14.688-32.742-32.742-32.742s-32.742 14.688-32.742 32.742c0 8.505 3.262 16.261 8.597 22.089-12.617 5.89-22.742 16.272-28.247 29.239-6.135-9.642-9.684-21.084-9.684-33.344 0-34.228 27.847-62.075 62.075-62.075s62.075 27.847 62.075 62.075c0 2.176-.114 4.349-.338 6.507h-9.655a7.996 7.996 0 0 0-7.465 5.126zm-40.348 139.568 3.963-8.924a7.999 7.999 0 0 0-.499-7.441 65.194 65.194 0 0 1-7.92-19.138 7.998 7.998 0 0 0-4.91-5.615l-9.121-3.511v-12.273l9.123-3.512a8.001 8.001 0 0 0 4.909-5.615 65.253 65.253 0 0 1 7.92-19.137 8.003 8.003 0 0 0 .499-7.44l-3.964-8.925 8.678-8.678 8.924 3.964a7.993 7.993 0 0 0 7.441-.499 65.223 65.223 0 0 1 19.136-7.919 7.999 7.999 0 0 0 5.615-4.909l3.512-9.124h12.273l3.509 9.118a8.004 8.004 0 0 0 5.617 4.91 65.2 65.2 0 0 1 19.141 7.921 8.005 8.005 0 0 0 7.441.499l8.921-3.962 8.678 8.678-3.964 8.925a7.999 7.999 0 0 0 .499 7.441 65.218 65.218 0 0 1 7.919 19.136 8 8 0 0 0 4.909 5.615l9.123 3.512v12.273l-9.118 3.509a8.004 8.004 0 0 0-4.91 5.616 65.21 65.21 0 0 1-7.921 19.141 8.001 8.001 0 0 0-.499 7.442l3.962 8.921-8.678 8.678-8.925-3.964a8.006 8.006 0 0 0-7.44.499 65.202 65.202 0 0 1-19.136 7.919 7.999 7.999 0 0 0-5.615 4.909l-3.512 9.123H393.8l-3.509-9.119a8.004 8.004 0 0 0-5.616-4.91 65.241 65.241 0 0 1-19.142-7.922 7.994 7.994 0 0 0-7.441-.499l-8.921 3.962zM133.994 454.728a5.229 5.229 0 0 1-2.47 3.185l-25.295 14.316c-2.489 1.409-5.78.495-7.187-1.992L24.674 338.835c-1.408-2.488-.496-5.78 1.992-7.188l25.295-14.316a5.16 5.16 0 0 1 2.546-.663c1.854 0 3.684.963 4.642 2.655l74.367 131.402a5.233 5.233 0 0 1 .478 4.003zm346.607-125.452L316.992 430.02c-12.975 7.988-27.214 9.984-42.318 5.935l-118.67-31.798a8.014 8.014 0 0 0-6.071.799l-18.04 10.416-44.614-78.83 67.209-38.913c15.035-8.706 31.299-15.998 48.36-10.464 5.48 1.777 11.797 4.061 19.111 6.705 20.965 7.58 47.021 17 74.056 21.942 9.422 3.291 14.69 12.392 12.286 21.366-3.162 11.806-12.998 13.274-20.822 12.375-13.279-2.73-25.897-6.331-39.248-10.144-6.334-1.809-12.883-3.68-19.616-5.483-4.268-1.14-8.654 1.39-9.798 5.657a8.001 8.001 0 0 0 5.657 9.798c6.605 1.77 13.091 3.622 19.362 5.413 13.759 3.929 26.755 7.641 40.749 10.501.054.011.107.015.161.025.053.01.104.025.157.034l11.211 1.823c4.231.677 8.342 1.017 12.347 1.017 11.862 0 22.789-2.981 33.133-9.004l34.483-20.085c.25.076.495.167.746.241l4.017 10.438a8.001 8.001 0 0 0 7.466 5.126h23.259a8 8 0 0 0 7.466-5.126l4.02-10.442a81.145 81.145 0 0 0 15.958-6.604l10.219 4.539a8 8 0 0 0 8.904-1.655l16.446-16.446a7.999 7.999 0 0 0 1.654-8.904l-4.537-10.214c.923-1.693 1.76-3.427 2.559-5.178 8.772 2.093 11.896 8.523 12.986 12.593 2.248 8.384-.73 18.166-6.639 21.803zm-421.3 13.434a9.031 9.031 0 1 1-17.873 2.613 9.032 9.032 0 0 1 17.873-2.613zm340.635-27.239c13.96 0 27.921-5.314 38.548-15.942 21.256-21.256 21.256-55.842 0-77.097-21.256-21.256-55.842-21.256-77.098 0s-21.255 55.842 0 77.097c10.629 10.628 24.59 15.942 38.55 15.942zm-27.235-81.725c15.018-15.018 39.453-15.018 54.471 0 15.017 15.018 15.017 39.453 0 54.47-15.018 15.017-39.453 15.017-54.47 0-15.018-15.017-15.018-39.453-.001-54.47z" fill="#FFABE6" data-original="#000000" class="" opacity="1"></path></g></svg>