<svg xmlns="http://www.w3.org/2000/svg" version="1.1" xmlns:xlink="http://www.w3.org/1999/xlink" xmlns:svgjs="http://svgjs.com/svgjs" width="512" height="512" x="0" y="0" viewBox="0 0 64 64" style="enable-background:new 0 0 512 512" xml:space="preserve" class=""><g><path d="M59.111 41.484A3.966 3.966 0 0 0 60 39c0-2.206-1.794-4-4-4s-4 1.794-4 4c0 .943.342 1.799.889 2.484C51.188 42.283 50 44 50 46v5c0 .379.214.725.553.895l1.447.723V61a1 1 0 0 0 1 1h6a1 1 0 0 0 1-1v-8.382l1.447-.724A.998.998 0 0 0 62 51v-5c0-2-1.188-3.717-2.889-4.516zM56 37c1.103 0 2 .897 2 2s-.897 2-2 2-2-.897-2-2 .897-2 2-2zm4 13.382-1.447.724A.998.998 0 0 0 58 52v8h-4v-8c0-.379-.214-.725-.553-.895L52 50.382V46c0-1.654 1.346-3 3-3h2c1.654 0 3 1.346 3 3zM31 22a.996.996 0 0 0-.573.181l-10 7a1.003 1.003 0 0 0-.208 1.444l4 5a1 1 0 0 0 1.387.17L33.204 30H42c.286 0 .56-.123.749-.338L57.803 12.63l2.076 2.077a1 1 0 0 0 1.706-.67l.414-11a1 1 0 0 0-1.213-1.014l-11 2.414a1.001 1.001 0 0 0-.412 1.756l2.654 2.136L38.581 22zm8.713 1.701L54.228 8.944a.997.997 0 0 0-.086-1.48l-1.889-1.521 7.699-1.689-.279 7.418-1.208-1.208a.975.975 0 0 0-.737-.292.998.998 0 0 0-.719.337L41.549 28h-8.683a.996.996 0 0 0-.606.205l-7.089 5.407-2.724-3.404L31.315 24H39a.995.995 0 0 0 .713-.299z" fill="#07174E" data-original="#000000" opacity="1"></path><path d="M3 42h2.896a20.897 20.897 0 0 0 1.646 3.974l-2.047 2.047a1 1 0 0 0 0 1.414l7.071 7.071a.999.999 0 0 0 1.414 0l2.047-2.046a20.829 20.829 0 0 0 3.974 1.645V59a1 1 0 0 0 1 1h10a1 1 0 0 0 1-1v-2.896a20.829 20.829 0 0 0 3.974-1.645l2.047 2.046a.999.999 0 0 0 1.414 0l7.071-7.071a1 1 0 0 0 0-1.414l-2.047-2.047a20.962 20.962 0 0 0 1.646-3.974H49a1 1 0 0 0 1-1V31a1 1 0 0 0-1-1h-3.655v2H48v8h-2.655a1 1 0 0 0-.968.75 18.943 18.943 0 0 1-2.023 4.886c-.231.393-.168.893.154 1.215l1.877 1.877-5.657 5.657-1.877-1.877a1 1 0 0 0-1.216-.154 18.844 18.844 0 0 1-4.885 2.022 1 1 0 0 0-.75.968V58h-8v-2.656a1 1 0 0 0-.75-.968 18.844 18.844 0 0 1-4.885-2.022 1 1 0 0 0-1.216.154l-1.877 1.877-5.657-5.657 1.877-1.877a1 1 0 0 0 .154-1.215 18.943 18.943 0 0 1-2.023-4.886 1 1 0 0 0-.968-.75H4v-8h2.655a1 1 0 0 0 .968-.75 18.943 18.943 0 0 1 2.023-4.886 1.001 1.001 0 0 0-.154-1.215l-1.877-1.877 5.657-5.657 1.877 1.877a.998.998 0 0 0 1.216.154 18.821 18.821 0 0 1 4.885-2.022 1 1 0 0 0 .75-.968V14h8v2.656a1 1 0 0 0 .75.968 18.821 18.821 0 0 1 4.885 2.022.997.997 0 0 0 1.216-.154l1.877-1.877.565.565 1.414-1.414-1.272-1.272a.999.999 0 0 0-1.414 0l-2.047 2.046A20.776 20.776 0 0 0 32 15.895V13a1 1 0 0 0-1-1H21a1 1 0 0 0-1 1v2.896a20.776 20.776 0 0 0-3.974 1.645l-2.047-2.046a.999.999 0 0 0-1.414 0l-7.071 7.071a1 1 0 0 0 0 1.414l2.047 2.047A20.858 20.858 0 0 0 5.896 30H3a1 1 0 0 0-1 1v10a1 1 0 0 0 1 1z" fill="#07174E" data-original="#000000" opacity="1"></path><path d="M26 21c-8.271 0-15 6.729-15 15s6.729 15 15 15 15-6.729 15-15c0-1.46-.209-2.902-.622-4.286l-1.916.571C38.819 33.484 39 34.733 39 36c0 7.168-5.832 13-13 13s-13-5.832-13-13 5.832-13 13-13z" fill="#07174E" data-original="#000000" opacity="1"></path><path d="M19 42h2v3h-2zM23 40h2v5h-2zM27 38h2v7h-2zM31 35h2v10h-2z" fill="#07174E" data-original="#000000" opacity="1"></path></g></svg>