<svg xmlns="http://www.w3.org/2000/svg" version="1.1" xmlns:xlink="http://www.w3.org/1999/xlink" width="512" height="512" x="0" y="0" viewBox="0 0 32 32" style="enable-background:new 0 0 512 512" xml:space="preserve" class=""><g><path d="M3 10.75H1a.75.75 0 0 1 0-1.5h2a.75.75 0 0 1 0 1.5zM4.929 3.936a.751.751 0 0 1-.393-.112L2.832 2.775a.75.75 0 0 1 .787-1.277l1.704 1.049a.75.75 0 0 1-.394 1.388zM3.227 18.613a.75.75 0 0 1-.395-1.388l1.704-1.05a.751.751 0 0 1 .787 1.278L3.62 18.502a.751.751 0 0 1-.392.111zM31 10.75h-2a.75.75 0 0 1 0-1.5h2a.75.75 0 0 1 0 1.5zM27.071 3.936a.75.75 0 0 1-.394-1.39l1.704-1.048a.75.75 0 0 1 .787 1.277l-1.704 1.05a.751.751 0 0 1-.393.11zM28.773 18.613a.751.751 0 0 1-.392-.111l-1.704-1.049a.75.75 0 0 1 .787-1.277l1.704 1.049a.75.75 0 0 1-.395 1.388zM9.26 9.25H7.04c.35-4.37 3.84-7.85 8.21-8.21V4c0 .41.34.75.75.75h.5c.41 0 .75.34.75.75s-.34.75-.75.75H16c-.41 0-.75.34-.75.75v2.25h-1.51c-.13-1.12-1.08-2-2.24-2s-2.11.88-2.24 2z" fill="#525EED" opacity="1" data-original="#000000"></path><path d="M15.25 17.74v1.76h-3.27c-.1-.88-.55-1.7-1.27-2.22a8.928 8.928 0 0 1-3.67-6.53H10c.41 0 .75-.34.75-.75v-.5c0-.41.34-.75.75-.75s.75.34.75.75v.5c0 .41.34.75.75.75h2.25v2.51c-1.12.13-2 1.08-2 2.24s.88 2.11 2 2.24z" fill="#525EED" opacity="1" data-original="#000000"></path><path d="M24.96 10.75a8.919 8.919 0 0 1-3.64 6.5c-.73.54-1.19 1.36-1.3 2.25h-3.27V17c0-.41-.34-.75-.75-.75h-.5c-.41 0-.75-.34-.75-.75s.34-.75.75-.75h.5c.41 0 .75-.34.75-.75v-3.25h1.51c.13 1.12 1.08 2 2.24 2s2.11-.88 2.24-2z" fill="#525EED" opacity="1" data-original="#000000"></path><path d="M19 9.25h-2.25V7.74c1.12-.13 2-1.08 2-2.24s-.88-2.11-2-2.24V1.03c4.32.36 7.85 3.92 8.21 8.22H22c-.41 0-.75.34-.75.75v.5c0 .41-.34.75-.75.75s-.75-.34-.75-.75V10c0-.41-.34-.75-.75-.75z" fill="#525EED" opacity="1" data-original="#000000"></path><rect width="12" height="4" x="10" y="21" rx="1" fill="#525EED" opacity="1" data-original="#000000"></rect><path d="M20 26.5v.5c0 2.21-1.79 4-4 4s-4-1.79-4-4v-.5z" fill="#525EED" opacity="1" data-original="#000000"></path></g></svg>