<svg xmlns="http://www.w3.org/2000/svg" version="1.1" xmlns:xlink="http://www.w3.org/1999/xlink" xmlns:svgjs="http://svgjs.com/svgjs" width="512" height="512" x="0" y="0" viewBox="0 0 512 512" style="enable-background:new 0 0 512 512" xml:space="preserve" class=""><g><path d="M316 56c-5.52 0-10 4.48-10 10s4.48 10 10 10 10-4.48 10-10-4.48-10-10-10zM156 56c-5.52 0-10 4.48-10 10s4.48 10 10 10 10-4.48 10-10-4.48-10-10-10zM116 56c-5.52 0-10 4.48-10 10s4.48 10 10 10 10-4.48 10-10-4.48-10-10-10zM76 56c-5.52 0-10 4.48-10 10s4.48 10 10 10 10-4.48 10-10-4.48-10-10-10z" fill="#07174E" data-original="#000000" opacity="1" class=""></path><path d="M482 16H30C13.458 16 0 29.458 0 46v420c0 16.542 13.458 30 30 30h452c16.542 0 30-13.458 30-30V46c0-16.542-13.458-30-30-30zm10 450c0 5.514-4.486 10-10 10H30c-5.514 0-10-4.486-10-10V116h472v350zm0-370H20V46c0-5.514 4.486-10 10-10h452c5.514 0 10 4.486 10 10v50z" fill="#07174E" data-original="#000000" opacity="1" class=""></path><path d="M336 256h-10v-30c0-38.625-31.248-70-70-70-38.598 0-70 31.402-70 70v30h-10c-16.542 0-30 13.458-30 30v120c0 16.542 13.458 30 30 30h160c16.542 0 30-13.458 30-30V286c0-16.542-13.458-30-30-30zm-130-30c0-27.57 22.43-50 50-50 27.699 0 50 22.426 50 50v30H206v-30zm140 180c0 5.514-4.486 10-10 10H176c-5.514 0-10-4.486-10-10V286c0-5.514 4.486-10 10-10h160c5.514 0 10 4.486 10 10v120zM442 56h-86c-5.522 0-10 4.477-10 10s4.478 10 10 10h86c5.522 0 10-4.477 10-10s-4.478-10-10-10z" fill="#07174E" data-original="#000000" opacity="1" class=""></path><path d="M256 296c-16.542 0-30 13.458-30 30 0 13.036 8.361 24.152 20 28.28V386c0 5.523 4.478 10 10 10s10-4.477 10-10v-31.72c11.639-4.128 20-15.243 20-28.28 0-16.542-13.458-30-30-30zm0 40c-5.514 0-10-4.486-10-10s4.486-10 10-10 10 4.486 10 10-4.486 10-10 10z" fill="#07174E" data-original="#000000" opacity="1" class=""></path></g></svg>