<svg xmlns="http://www.w3.org/2000/svg" version="1.1" xmlns:xlink="http://www.w3.org/1999/xlink" width="512" height="512" x="0" y="0" viewBox="0 0 500 500" style="enable-background:new 0 0 512 512" xml:space="preserve" class=""><g><path fill-rule="evenodd" d="M165.912 279.793c9.8-12.433 15.649-28.128 15.649-45.188 0-40.348-32.708-73.056-73.056-73.056s-73.056 32.708-73.056 73.056 32.708 73.056 73.056 73.056c17.614 0 33.771-6.234 46.388-16.615a.937.937 0 0 1 1.247.046l29.323 27.99a.907.907 0 0 1 .291.68v32.707c0 .334.159.62.442.797s.611.194.91.047l12.171-5.937a.92.92 0 0 0 .528-.845V316.34c0-2.003-.838-3.81-2.183-5.09l.007-.007-31.626-30.188a.935.935 0 0 1-.091-1.262zm-35.26 185.464v-102.12a.743.743 0 0 0-.722-.722h-24.009a.743.743 0 0 0-.722.722v102.12c0 .383.339.722.722.722h24.009a.742.742 0 0 0 .722-.722zm43.841-93.426c6.804-1.493 19.706-7.772 31.957-13.65 20.902-10.029 26.188-11.147 40.591-8.359a.846.846 0 0 1 .191.059 7.032 7.032 0 0 0 2.679.564.94.94 0 0 1 .183.02l5.997 1.266c10.417 2.271 46.807 9.04 46.807 20.565 0 1.879-.061 2.927-.658 4.791-.957 2.989-1.173 2.366-2.281 3.605-3.316 3.708-8.133 5.638-13.214 5.23l-61.562-4.946a7.049 7.049 0 0 0-1.102 14.052l61.562 4.946c4.73.38 9.338-.384 13.531-2.055a30.087 30.087 0 0 0 9.287-5.856.902.902 0 0 1 .24-.161 7.17 7.17 0 0 0 .69-.372l76.719-44.543c4.008-2.327 8.64-2.842 12.875-1.799 14.475 3.569 17.233 22.128 4.528 29.593-37.445 22.003-122.851 75.851-144.22 74.621-38.078-2.19-76.147-9.123-113.46-3.709a.907.907 0 0 1-.75-.219.91.91 0 0 1-.325-.711v-68.285c0-.498.387-.909.885-.938 9.682-.573 19.439-1.645 28.85-3.709zM318.44 234.605c0 17.06 5.849 32.754 15.649 45.188a.938.938 0 0 1-.089 1.262l-31.244 29.824a.938.938 0 0 1-.047.042 7.038 7.038 0 0 0-2.539 5.419v34.564c0 .376.206.697.547.854 4.249 1.956 8.389 4.333 11.963 7.306.287.239.662.287 1 .129s.541-.477.542-.85l.054-38.609a.91.91 0 0 1 .291-.679l29.295-27.964a.937.937 0 0 1 1.247-.046c12.616 10.381 28.774 16.615 46.388 16.615 40.348 0 73.056-32.708 73.056-73.056s-32.708-73.056-73.056-73.056-73.057 32.709-73.057 73.057zm43.275 34.199v-50.131c0-.518.422-.94.94-.94h12.978c.518 0 .94-.422.94-.94v-16.397c0-6.357 5.201-11.558 11.558-11.558s11.558 5.201 11.558 11.558v16.397c0 .518.422.94.94.94h7.728c14.303 0 26.006 11.703 26.006 26.006 0 14.304-11.703 26.006-26.006 26.006h-45.703a.942.942 0 0 1-.939-.941zm-103.822-89.096a.937.937 0 0 0-.84.935V338.33c0 .292-.119.544-.346.729s-.497.251-.783.192l-4.747-.978-.048-.008-7.384-1.125a.936.936 0 0 1-.798-.93V180.642a.938.938 0 0 0-.84-.935c-36.635-3.936-65.163-34.95-65.163-72.631 0-40.348 32.708-73.056 73.056-73.056s73.056 32.708 73.056 73.056c.001 37.682-28.527 68.696-65.163 72.632zm33.027-71.817c.299-.173.47-.469.47-.814s-.171-.642-.47-.814L230.518 71.39c-.299-.172-.641-.172-.94 0s-.47.469-.47.814v69.745c0 .345.171.642.47.814s.641.173.94 0zm-166.475 94.156c11.707 0 21.197 9.49 21.197 21.197 0 19.092-19.89 40.821-36.75 48.459a.909.909 0 0 1-.776 0c-16.86-7.638-36.749-29.366-36.749-48.459 0-11.707 9.49-21.197 21.197-21.197a21.13 21.13 0 0 1 15.263 6.492c.184.191.412.288.677.288s.493-.097.677-.288a21.128 21.128 0 0 1 15.264-6.492z" clip-rule="evenodd" fill="#AE4593" opacity="1" data-original="#000000"></path></g></svg>