<svg width="800" height="600" viewBox="0 0 800 600" fill="none" xmlns="http://www.w3.org/2000/svg">
<path d="M46.1499 331.21C46.1499 271.08 90.1499 222.33 144.47 222.33H145.67C152.61 146.25 210.61 86.8604 281.14 86.8604C301.387 86.8734 321.327 91.8121 339.24 101.25C330.15 96.4904 389.16 62.2504 392.24 61.1304C418.24 51.1304 448.75 46.5304 476.24 46.3904C570.58 45.9404 659.24 102.61 677.4 202.2C679.78 215.26 678.82 248.62 676.66 261.2C720.66 266.75 754.66 302.31 754.66 345.37C754.66 377.5 735.76 405.46 707.88 419.89C712.032 426.647 714.278 434.401 714.38 442.33C714.38 503.73 571.38 553.51 395.08 553.51C218.78 553.51 75.7399 503.8 75.7399 442.4C75.7399 433.69 78.6199 425.22 84.0499 417.09C60.9999 397.16 46.1499 366.12 46.1499 331.21Z" fill="#D7EBF9"/>
<mask id="mask0_215_215" style="mask-type:luminance" maskUnits="userSpaceOnUse" x="45" y="46" width="709" height="508">
<path d="M45.3701 331.21C45.3701 271.08 89.3701 222.33 143.7 222.33H144.9C151.84 146.25 209.84 86.8604 280.37 86.8604C300.617 86.8746 320.557 91.8132 338.47 101.25C329.37 96.4904 388.39 62.2504 391.47 61.1304C417.47 51.1304 447.98 46.5304 475.47 46.3904C569.81 45.9404 658.47 102.61 676.63 202.2C679.01 215.26 678.04 248.62 675.89 261.2C719.89 266.75 753.89 302.31 753.89 345.37C753.89 377.5 734.99 405.46 707.12 419.89C711.272 426.647 713.518 434.401 713.62 442.33C713.62 503.73 570.62 553.51 394.31 553.51C218 553.51 75.0001 503.8 75.0001 442.4C75.0001 433.69 77.8901 425.22 83.3201 417.09C60.2201 397.16 45.3701 366.12 45.3701 331.21Z" fill="white"/>
</mask>
<g mask="url(#mask0_215_215)">
<path d="M267.65 349.74H266.88L266.91 245.77L266.88 242.97L267.65 242.96L267.68 245.77L267.65 349.74Z" fill="#2C294B"/>
<path d="M267.3 246.69L319.56 276.16L267.3 297.04V246.69Z" fill="#F05254"/>
<path d="M525 373.45L523.11 298.13H523.88L523.9 300.18L525.77 373.43L525 373.45Z" fill="#2C294B"/>
<path d="M559.79 321.63L524.43 336.06L523.52 300.18V300.04L559.79 321.63Z" fill="#F05254"/>
<path d="M285.27 362.71C283.402 363.277 281.69 364.27 280.27 365.61C273.71 372.33 270.97 379.35 257.91 380.91C250.7 381.77 245.91 377 243.06 372.57C254.55 351.09 264.43 334.03 267.06 333.49C267.224 333.479 267.386 333.525 267.52 333.62C269.69 334.94 276.28 346.05 285.27 362.71Z" fill="white"/>
<path d="M389.32 565.231L156.67 541.501L198.05 459.871C198.05 459.871 212.7 430.001 228.57 399.221L234.92 406.221C235.981 407.36 237.314 408.211 238.793 408.696C240.272 409.18 241.851 409.282 243.38 408.991L253.38 407.101C258.203 406.2 263.188 406.836 267.63 408.921L275.63 412.711C278.836 414.223 282.395 414.829 285.92 414.462C289.446 414.096 292.804 412.771 295.63 410.631L306.45 402.301C307.01 403.391 307.57 404.501 308.13 405.611C315.47 420.081 323.21 435.541 330.84 450.911C348.26 486.131 379.31 544.521 389.32 565.231Z" fill="#07174E" fill-opacity="0.2"/>
<path d="M546.87 396.781C545.73 398.221 544.543 399.777 543.31 401.451C532.36 416.281 522.49 410.451 510.98 403.731C507.458 401.73 503.355 401.003 499.36 401.671C511.49 382.071 522.12 366.101 524.86 365.621C525.02 365.606 525.181 365.641 525.32 365.721C527.82 367.001 536 379.121 546.87 396.781Z" fill="white"/>
<path d="M631.39 541.501L394.89 577.581L455.89 474.101C455.89 474.101 458.7 469.191 463.19 461.451C468.32 452.581 475.65 440.011 483.49 426.861C484.17 425.741 484.84 424.591 485.49 423.461L488.66 426.951C489.718 428.098 491.051 428.954 492.534 429.439C494.017 429.924 495.599 430.021 497.13 429.721L507.13 427.841C511.95 426.934 516.933 427.571 521.37 429.661L529.37 433.441C535.88 436.521 549.7 428.051 555.37 423.711L561.5 419.971C585.68 460.631 615.62 513.481 631.39 541.501Z" fill="#07174E" fill-opacity="0.2"/>
<path d="M434.59 396.72C418.91 414.55 419.02 399.08 405.3 398.23C393.5 397.5 389.17 399.91 377.05 409.23C370.42 414.32 357.91 411.16 355.19 399.72L361.66 384.9C363.66 380.24 369.13 377.13 375.25 377.13H416.39C423.12 377.13 429.01 380.75 430.85 385.98L434.59 396.72Z" fill="white"/>
<path d="M442.25 416.271C435.66 423.131 434.68 424.351 432.64 425.271C398.29 439.951 403.82 420.411 392.13 420.021C380.44 419.631 379.75 431.211 368.13 431.211C353.04 431.211 352.59 421.811 346.24 420.071L355.24 399.781C360.37 402.781 369.24 410.711 375.88 405.621C388 396.241 390 390.501 401.77 391.241C415.49 392.081 413.9 410.731 434.59 396.721L442.25 416.271Z" fill="#7B83AA"/>
<path d="M517.18 578.12H267.26L330.8 450.92L331.92 448.65L334.41 443.65L346.2 420C352.55 421.74 355.2 431.14 366.69 429.4C378.18 427.66 381.69 416.4 393.42 416.82C405.15 417.24 407.98 440.28 429.86 424.5C436.18 419.95 439.17 417.64 441.86 415.42L461 456.87L463.13 461.45L464.37 464.14L517.18 578.12Z" fill="#07174E"/>
<path d="M306.41 402.3L295.59 410.63C292.764 412.77 289.406 414.095 285.881 414.462C282.355 414.828 278.796 414.223 275.59 412.71L267.59 408.92C263.148 406.836 258.164 406.199 253.34 407.1L243.34 408.99C241.811 409.281 240.233 409.179 238.753 408.695C237.274 408.211 235.941 407.359 234.88 406.22L228.53 399.22L243 372.57C245.85 377 250.64 381.77 257.85 380.91C270.91 379.35 273.65 372.33 280.21 365.61C281.631 364.27 283.342 363.277 285.21 362.71L306.41 402.3Z" fill="#464A89"/>
<path d="M561.49 420L555.36 423.74C549.71 428.08 535.89 436.55 529.36 433.47L521.36 429.69C516.923 427.601 511.94 426.964 507.12 427.87L497.12 429.75C495.589 430.051 494.007 429.954 492.524 429.469C491.041 428.984 489.708 428.127 488.65 426.98L485.48 423.49L499.34 401.7C503.344 401.014 507.463 401.731 511 403.73C522.51 410.46 532.38 416.28 543.33 401.45C544.563 399.777 545.75 398.22 546.89 396.78L561.49 420Z" fill="#464A89"/>
<path d="M379.75 366.711C376.493 366.304 373.213 366.104 369.93 366.111C370.39 369.341 369.88 372.551 369.99 375.791C369.971 376.39 370.066 376.987 370.27 377.551C370.461 377.936 370.728 378.279 371.054 378.559C371.381 378.839 371.76 379.05 372.17 379.181C374.76 380.121 378.08 380.111 380.8 380.111C383.041 380.252 385.291 380.029 387.46 379.451C390.46 378.451 390.66 374.821 381.68 373.281C381.22 373.201 380.25 366.771 379.75 366.711Z" fill="#2C2B2A"/>
<path d="M418.41 366.711C415.152 366.304 411.873 366.104 408.59 366.111C409.04 369.341 408.59 372.551 408.64 375.791C408.625 376.39 408.723 376.987 408.93 377.551C409.12 377.937 409.386 378.28 409.713 378.56C410.039 378.841 410.419 379.052 410.83 379.181C413.42 380.121 416.73 380.111 419.46 380.111C421.701 380.252 423.95 380.029 426.12 379.451C429.12 378.451 429.31 374.821 420.34 373.281C419.88 373.201 418.9 366.771 418.41 366.711Z" fill="#2C2B2A"/>
<path d="M424.35 369.94C424.2 372 408.18 372.03 406.35 370.87C404.02 369.39 402.48 345.03 402.16 337.68C401.11 313.36 399.99 297.68 396.93 267.95C396.87 267.37 395.98 267.42 395.93 268.01C395.62 272.21 394.62 276.86 394.32 280.47C392.76 299.15 388.07 370.4 384.64 371.18C381.4 371.92 369.08 371.32 368.35 370.87C365.86 369.37 366.35 299.87 366 286.49C365.65 274.1 364 261.05 365.95 248.82C366.46 245.61 367.01 243 367.55 240.89C367.9 239.54 368.26 238.38 368.6 237.4C370.72 231.4 375.48 220.57 375.48 220.57C382.665 219.66 389.913 219.349 397.15 219.64C404.07 219.93 409.68 221.04 412.94 222.64C414.3 223.31 416.56 236.77 417.59 239.57C417.74 239.98 417.89 240.4 418.03 240.85C418.03 240.96 418.22 241.45 418.26 241.58C418.52 242.46 418.78 243.41 419.03 244.41C420.505 250.975 421.58 257.624 422.25 264.32C424.6 285.06 424.25 305.96 424.46 326.8C424.49 330 425.14 359.71 424.35 369.94Z" fill="#634FA1"/>
<path d="M365.88 260.51C365.82 260.511 365.761 260.497 365.707 260.471C365.654 260.445 365.607 260.407 365.57 260.36C365.538 260.321 365.515 260.275 365.502 260.226C365.488 260.177 365.484 260.126 365.491 260.076C365.497 260.025 365.514 259.977 365.54 259.933C365.565 259.889 365.599 259.851 365.64 259.82C373.55 253.69 383.43 236.07 383.53 235.9C383.554 235.855 383.587 235.815 383.627 235.782C383.667 235.75 383.713 235.726 383.763 235.712C383.812 235.698 383.864 235.694 383.915 235.7C383.966 235.707 384.016 235.724 384.06 235.75C384.147 235.801 384.212 235.883 384.24 235.98C384.268 236.077 384.257 236.181 384.21 236.27C383.8 237 374.15 254.21 366.11 260.43C366.046 260.484 365.964 260.513 365.88 260.51Z" fill="#2C294B"/>
<path d="M419.55 252.911C419.493 252.909 419.437 252.896 419.385 252.872C419.334 252.848 419.288 252.814 419.25 252.771C418.79 252.221 407.92 239.181 407.92 233.601C407.911 233.545 407.914 233.488 407.929 233.433C407.945 233.379 407.971 233.329 408.008 233.286C408.045 233.243 408.09 233.208 408.141 233.184C408.193 233.161 408.249 233.148 408.305 233.148C408.362 233.148 408.417 233.161 408.469 233.184C408.52 233.208 408.565 233.243 408.602 233.286C408.639 233.329 408.665 233.379 408.681 233.433C408.696 233.488 408.699 233.545 408.69 233.601C408.69 238.901 419.69 252.141 419.84 252.281C419.877 252.315 419.906 252.357 419.927 252.404C419.947 252.45 419.957 252.5 419.957 252.551C419.957 252.601 419.947 252.651 419.927 252.698C419.906 252.744 419.877 252.786 419.84 252.821C419.8 252.855 419.754 252.88 419.704 252.896C419.655 252.911 419.602 252.916 419.55 252.911Z" fill="#2C294B"/>
<path d="M415.5 237.16C414.29 237.45 399.71 240.39 369.77 239.16V232C369.77 232 400.33 231.75 413.98 230L415.5 237.16Z" fill="#2C294B"/>
<path d="M370.74 371.6C370.638 371.6 370.541 371.561 370.468 371.49C370.395 371.419 370.353 371.322 370.35 371.22L369.54 335.22L368.69 257.22C368.705 257.129 368.752 257.046 368.822 256.986C368.893 256.926 368.982 256.893 369.075 256.893C369.168 256.893 369.257 256.926 369.328 256.986C369.398 257.046 369.445 257.129 369.46 257.22L370.32 335.22L371.12 371.22C371.123 371.272 371.115 371.323 371.097 371.372C371.079 371.42 371.052 371.465 371.016 371.502C370.98 371.54 370.938 371.569 370.89 371.59C370.843 371.61 370.792 371.62 370.74 371.62V371.6Z" fill="#2C294B"/>
<path d="M477.83 128.11L465.61 128.2C465.272 128.204 464.946 128.079 464.697 127.85C464.448 127.622 464.295 127.307 464.27 126.97L463.6 118.52C463.573 118.205 463.659 117.891 463.842 117.632C464.025 117.374 464.294 117.189 464.6 117.11L476.6 114.36C476.787 114.316 476.982 114.314 477.17 114.352C477.359 114.391 477.537 114.47 477.692 114.584C477.847 114.698 477.975 114.845 478.068 115.013C478.161 115.182 478.216 115.368 478.23 115.56L479.11 126.67C479.124 126.85 479.101 127.03 479.043 127.2C478.986 127.37 478.895 127.527 478.775 127.662C478.656 127.796 478.511 127.905 478.348 127.982C478.186 128.059 478.01 128.103 477.83 128.11Z" fill="#464A89"/>
<path d="M464.32 127.65L445.21 129.36L439.29 129.88L403.29 133.1L402.9 128.1L463.56 118L464.32 127.65Z" fill="#7B83AA"/>
<path d="M458.87 128.6C458.775 128.598 458.684 128.561 458.614 128.497C458.544 128.432 458.5 128.345 458.49 128.25L457.4 118.72C457.395 118.67 457.399 118.619 457.413 118.571C457.427 118.523 457.451 118.478 457.483 118.439C457.514 118.4 457.553 118.368 457.597 118.344C457.642 118.32 457.69 118.305 457.74 118.3C457.791 118.291 457.843 118.294 457.893 118.307C457.943 118.319 457.99 118.343 458.031 118.375C458.071 118.407 458.104 118.447 458.129 118.493C458.153 118.538 458.167 118.588 458.17 118.64L459.26 128.17C459.266 128.22 459.261 128.27 459.247 128.319C459.233 128.367 459.21 128.412 459.178 128.451C459.146 128.49 459.107 128.522 459.063 128.546C459.019 128.57 458.97 128.585 458.92 128.59L458.87 128.6Z" fill="#464A89"/>
<path d="M434.09 131.07C433.996 131.071 433.905 131.036 433.834 130.973C433.764 130.911 433.72 130.824 433.71 130.73L432.71 122.73C432.709 122.634 432.744 122.541 432.808 122.469C432.871 122.398 432.959 122.352 433.055 122.341C433.15 122.329 433.246 122.354 433.325 122.409C433.403 122.464 433.458 122.547 433.48 122.64L434.48 130.64C434.491 130.742 434.462 130.844 434.398 130.925C434.335 131.005 434.242 131.058 434.14 131.07H434.09Z" fill="#464A89"/>
<path d="M402.34 127.31L404.23 126.96C404.435 126.926 404.644 126.934 404.846 126.984C405.048 127.034 405.237 127.124 405.403 127.25C405.568 127.375 405.707 127.533 405.809 127.713C405.912 127.894 405.977 128.093 406 128.3L406.41 132.14C406.432 132.345 406.412 132.552 406.352 132.749C406.292 132.947 406.193 133.13 406.06 133.288C405.927 133.445 405.764 133.575 405.58 133.668C405.396 133.761 405.196 133.816 404.99 133.83L402.75 133.96C402.361 133.986 401.977 133.861 401.677 133.612C401.378 133.362 401.185 133.007 401.14 132.62L400.71 129.07C400.662 128.69 400.758 128.306 400.981 127.995C401.203 127.683 401.535 127.467 401.91 127.39L402.34 127.31Z" fill="#464A89"/>
<path d="M439.44 129.88V129.79C439.196 128.856 439.159 127.88 439.33 126.93C439.25 125.17 437.66 126.16 436.64 130.13L436.58 130.4C436.07 132.52 436.64 136.96 436.63 138.01L440.07 138.71C441.669 136.65 442.956 134.365 443.89 131.93C444.075 131.119 444.175 130.292 444.19 129.46L439.44 129.88Z" fill="#F79C81"/>
<path d="M443.47 137.55C443.47 137.55 440.01 167.63 437.27 170.55C431.36 176.85 407.84 175.23 399.17 172.63C393.53 170.93 385.66 158.95 394.03 154.33C398.66 151.76 427.58 158.92 427.58 158.92L434.93 136.92L436.93 137.05L442.93 137.47L443.47 137.55Z" fill="#FAA734"/>
<mask id="mask1_215_215" style="mask-type:luminance" maskUnits="userSpaceOnUse" x="390" y="136" width="54" height="39">
<path d="M443.47 137.55C443.47 137.55 440.01 167.63 437.27 170.55C431.36 176.85 407.84 175.23 399.17 172.63C393.53 170.93 385.66 158.95 394.03 154.33C398.66 151.76 427.58 158.92 427.58 158.92L434.93 136.92L436.93 137.05L442.93 137.47L443.47 137.55Z" fill="white"/>
</mask>
<g mask="url(#mask1_215_215)">
<path d="M426.89 162.21C419.75 162.21 400.27 156.76 397.77 156.06L397.98 155.31C409.16 158.48 426.59 162.64 428.75 161.16C431.17 159.49 434.19 145.72 435.15 140.55L435.91 140.69C435.77 141.46 432.37 159.61 429.18 161.8C428.466 162.136 427.676 162.277 426.89 162.21Z" fill="#F05254"/>
<path d="M427.66 166.469C420.81 166.469 399.72 160.949 398.74 160.689L398.93 159.949C408.05 162.339 426.06 166.589 429.03 165.559C432.75 164.249 434.55 160.349 437.85 139.789L438.62 139.909C435.22 161.019 433.4 164.849 429.29 166.279C428.76 166.428 428.21 166.492 427.66 166.469Z" fill="#F05254"/>
<path d="M428.74 170.4C421.03 170.4 400.54 166.86 399.55 166.69L399.68 165.93C409.26 167.59 428.13 170.46 430.96 169.42C432.269 168.943 433.441 168.153 434.375 167.119C435.31 166.086 435.977 164.84 436.32 163.49C436.89 161.6 441.48 139.98 441.53 139.77L442.28 139.93C442.09 140.82 437.64 161.79 437.06 163.71C436.686 165.177 435.959 166.531 434.941 167.652C433.922 168.773 432.645 169.627 431.22 170.14C430.411 170.354 429.575 170.441 428.74 170.4Z" fill="#F05254"/>
</g>
<path d="M393.44 151.46C392.87 152.97 395.27 156.71 395.83 158.39L397.83 167.06L399.15 172.64C399.15 172.64 404.82 158.49 400.94 152.64C400.647 152.194 400.198 151.873 399.68 151.74C397.642 151.216 395.517 151.12 393.44 151.46Z" fill="#2C294B"/>
<path d="M397.86 167.061L377.27 155.921C379.425 151.441 380.779 146.618 381.27 141.671C381.87 134.051 388.41 132.311 391.5 136.921C393 139.151 395.24 156.671 395.81 158.391L397.86 167.061Z" fill="#F79C81"/>
<path d="M405.25 148.371C405.68 150.211 399.46 150.991 394.56 151.151C392.44 151.221 390.56 150.931 389.56 150.101C387.344 148.337 385.247 146.429 383.28 144.391C382.574 143.646 381.906 142.864 381.28 142.051C380.277 140.847 379.568 139.426 379.21 137.901C378.65 134.331 380.92 129.381 385.28 134.801C385.73 135.353 386.147 135.931 386.53 136.531C386.48 136.421 386.19 135.681 385.81 134.601C384.72 131.401 383 125.151 385.5 122.961C387.434 121.205 389.742 119.912 392.25 119.181L398.83 116.301L399.93 121.621L401.21 127.801L402.04 131.801L405.22 136.011C405.95 136.801 404.43 138.881 404.43 138.881C404.43 138.881 404.43 140.151 404.43 141.771V141.821C404.43 142.621 404.5 143.501 404.59 144.351C404.66 145.451 405 147.321 405.25 148.371Z" fill="#F79C81"/>
<path d="M382.76 143.24C383.76 143.98 383.05 145.75 382.13 146.62C380.37 148.26 377.63 149.99 377.06 145.53C376.6 141.96 372.42 137.65 372.23 129.75C372.04 121.85 372.69 115.62 379.94 114.07C387.19 112.52 386.59 115.07 392.49 111.84C397.84 108.84 402.3 111.72 402.22 116.3C402.22 118.8 403.5 120.67 398.1 122.3C392.7 123.93 386.17 123.61 386.61 129.22C387.05 134.83 388.61 139.06 386.81 137.22C379.54 129.5 378 139.84 382.76 143.24Z" fill="#2C2B2A"/>
<path d="M379.11 151.47C379.11 151.47 374.87 151.3 369.92 158.69C367.27 162.64 363.05 167 363.4 173.26C365.53 212.09 366.82 210.94 365.77 237.55C365.48 244.92 398.04 242.76 398.04 242.76L402.56 231.2L407 242.26L413.34 240.67C414.45 240.259 415.487 239.671 416.41 238.93C417.95 237.67 417.67 236.99 417.46 235.66C416.24 228.24 411.92 189.51 411.53 182.57C411.03 173.79 400.72 175.73 396.48 168.87C386.53 152.83 379.11 151.47 379.11 151.47Z" fill="#FAA734"/>
<mask id="mask2_215_215" style="mask-type:luminance" maskUnits="userSpaceOnUse" x="363" y="151" width="55" height="93">
<path d="M379.11 151.47C379.11 151.47 374.87 151.3 369.92 158.69C367.27 162.64 363.05 167 363.4 173.26C365.53 212.09 366.82 210.94 365.77 237.55C365.48 244.92 398.04 242.76 398.04 242.76L402.56 231.2L407 242.26L413.34 240.67C414.45 240.259 415.487 239.671 416.41 238.93C417.95 237.67 417.67 236.99 417.46 235.66C416.24 228.24 411.92 189.51 411.53 182.57C411.03 173.79 400.72 175.73 396.48 168.87C386.53 152.83 379.11 151.47 379.11 151.47Z" fill="white"/>
</mask>
<g mask="url(#mask2_215_215)">
<mask id="mask3_215_215" style="mask-type:luminance" maskUnits="userSpaceOnUse" x="363" y="151" width="55" height="93">
<path d="M379.11 151.47C379.11 151.47 374.6 150.11 370.32 157.99C368.54 161.25 362.74 166.44 363.08 172.64C365.22 211.47 366.82 210.94 365.77 237.55C365.48 244.92 398.04 242.76 398.04 242.76L401.78 233.19L405.9 242.83L413.31 240.67C414.42 240.259 415.457 239.672 416.38 238.93C417.92 237.67 417.64 236.99 417.43 235.66C416.21 228.24 411.89 189.51 411.5 182.57C411 173.79 400.69 175.73 396.45 168.87C386.53 152.83 379.11 151.47 379.11 151.47Z" fill="white"/>
</mask>
<g mask="url(#mask3_215_215)">
<path d="M368.71 243.001L367.94 242.921C369.171 231.677 369.425 220.348 368.7 209.061C368.28 202.681 367.7 196.211 367.14 189.941C366.88 187.034 366.623 184.118 366.37 181.191L367.14 181.131C367.39 184.041 367.65 186.961 367.91 189.871C368.47 196.141 369.05 202.621 369.47 209.011C370.205 220.341 369.951 231.715 368.71 243.001Z" fill="#F05254"/>
<path d="M372.57 245.681C372.527 245.69 372.483 245.69 372.44 245.681C372.391 245.665 372.347 245.64 372.309 245.606C372.271 245.573 372.24 245.532 372.218 245.486C372.197 245.44 372.185 245.39 372.183 245.339C372.182 245.289 372.191 245.238 372.21 245.191C375.81 235.191 374.33 209.321 372.9 184.331C372.58 178.801 372.25 173.081 371.99 167.701C371.52 157.861 375.92 152.091 376.11 151.851C376.174 151.773 376.267 151.723 376.368 151.711C376.468 151.7 376.57 151.729 376.65 151.791C376.69 151.821 376.724 151.86 376.75 151.903C376.776 151.947 376.792 151.996 376.799 152.046C376.805 152.096 376.802 152.148 376.788 152.196C376.774 152.245 376.751 152.291 376.72 152.331C376.72 152.391 372.3 158.121 372.72 167.661C372.98 173.041 373.31 178.751 373.63 184.281C375.06 209.361 376.55 235.281 372.89 245.451C372.863 245.515 372.82 245.571 372.763 245.612C372.706 245.653 372.639 245.677 372.57 245.681Z" fill="#F05254"/>
<path d="M378.21 249.73C378.109 249.716 378.018 249.663 377.954 249.583C377.891 249.503 377.861 249.402 377.87 249.3C379.042 240.556 379.71 231.752 379.87 222.93C379.87 220.04 379.64 211.84 379.35 202.33C378.78 182.86 378.06 158.62 378.74 156.4C378.75 156.346 378.771 156.295 378.803 156.25C378.834 156.205 378.875 156.167 378.922 156.139C378.969 156.11 379.022 156.092 379.076 156.086C379.131 156.079 379.186 156.084 379.239 156.101C379.291 156.117 379.34 156.144 379.381 156.18C379.422 156.217 379.455 156.261 379.478 156.312C379.501 156.362 379.513 156.416 379.513 156.471C379.513 156.526 379.502 156.58 379.48 156.63C378.83 158.73 379.58 183.92 380.13 202.31C380.41 211.82 380.65 220.03 380.64 222.93C380.481 231.781 379.813 240.616 378.64 249.39C378.635 249.441 378.62 249.491 378.595 249.536C378.571 249.581 378.537 249.62 378.497 249.652C378.457 249.684 378.411 249.707 378.361 249.721C378.312 249.734 378.26 249.737 378.21 249.73Z" fill="#F05254"/>
<path d="M383.84 247.071C383.753 247.071 383.669 247.043 383.6 246.991C383.559 246.961 383.525 246.923 383.499 246.879C383.474 246.835 383.457 246.786 383.451 246.736C383.444 246.686 383.448 246.635 383.461 246.586C383.475 246.537 383.498 246.491 383.53 246.451C387.28 241.701 386.06 192.191 383.26 167.211C383.105 165.482 383.065 163.745 383.14 162.011C383.14 161.311 383.14 160.611 383.14 159.921C383.14 159.818 383.181 159.719 383.254 159.645C383.327 159.572 383.426 159.531 383.53 159.531C383.633 159.531 383.732 159.572 383.805 159.645C383.878 159.719 383.92 159.818 383.92 159.921C383.92 160.621 383.92 161.321 383.92 162.031C383.85 163.732 383.89 165.436 384.04 167.131C386.62 190.131 388.31 241.661 384.15 246.921C384.113 246.969 384.066 247.007 384.012 247.033C383.959 247.059 383.899 247.072 383.84 247.071Z" fill="#F05254"/>
<path d="M390.37 247.071C390.284 247.071 390.201 247.043 390.134 246.99C390.067 246.938 390.02 246.864 390 246.781C389.954 246.335 389.992 245.884 390.11 245.451C390.54 242.931 391.66 236.231 390.85 215.751C389.79 188.751 390 160.201 390.01 159.911C390.01 159.81 390.05 159.714 390.121 159.643C390.192 159.571 390.289 159.531 390.39 159.531C390.491 159.534 390.588 159.576 390.659 159.649C390.73 159.722 390.77 159.82 390.77 159.921C390.77 160.211 390.55 188.771 391.61 215.721C392.43 236.281 391.29 243.041 390.86 245.581C390.786 245.91 390.746 246.245 390.74 246.581C390.761 246.679 390.744 246.782 390.692 246.867C390.64 246.953 390.556 247.015 390.46 247.041L390.37 247.071Z" fill="#F05254"/>
<path d="M395.89 248.49C395.788 248.478 395.695 248.426 395.631 248.345C395.568 248.265 395.538 248.162 395.55 248.06C396.685 235.343 396.946 222.563 396.33 209.81C394.66 178.75 395.06 163.96 395.06 163.81C395.067 163.71 395.113 163.615 395.187 163.547C395.261 163.478 395.358 163.44 395.46 163.44C395.561 163.443 395.658 163.485 395.729 163.558C395.8 163.631 395.84 163.729 395.84 163.83C395.84 163.98 395.44 178.75 397.1 209.77C397.71 222.563 397.45 235.383 396.32 248.14C396.307 248.243 396.255 248.337 396.175 248.402C396.095 248.467 395.993 248.499 395.89 248.49Z" fill="#F05254"/>
<path d="M402.45 240.89C402.35 240.891 402.253 240.852 402.181 240.783C402.108 240.715 402.065 240.62 402.06 240.521L400 173C399.997 172.95 400.004 172.9 400.022 172.853C400.039 172.806 400.066 172.762 400.101 172.726C400.135 172.689 400.177 172.66 400.223 172.64C400.269 172.621 400.319 172.61 400.37 172.61C400.471 172.608 400.57 172.645 400.645 172.714C400.72 172.783 400.764 172.879 400.77 172.98L402.84 240.521C402.84 240.623 402.8 240.722 402.73 240.797C402.659 240.871 402.562 240.915 402.46 240.92L402.45 240.89Z" fill="#F05254"/>
<path d="M407.1 245.541C406.999 245.541 406.902 245.501 406.831 245.429C406.76 245.358 406.72 245.261 406.72 245.161V219.531C406.72 217.231 406.46 211.591 406.19 205.631C405.89 199.031 405.57 192.201 405.58 189.281C405.582 189.178 405.624 189.08 405.697 189.008C405.769 188.935 405.867 188.893 405.97 188.891C406.072 188.893 406.17 188.935 406.243 189.008C406.315 189.08 406.357 189.178 406.36 189.281C406.36 192.191 406.66 199.001 406.96 205.591C407.23 211.591 407.49 217.211 407.49 219.531V245.161C407.49 245.211 407.48 245.262 407.46 245.308C407.44 245.355 407.411 245.398 407.375 245.433C407.339 245.468 407.296 245.496 407.248 245.515C407.201 245.533 407.151 245.542 407.1 245.541Z" fill="#F05254"/>
<path d="M412.74 246.071C412.641 246.071 412.545 246.032 412.474 245.963C412.403 245.894 412.362 245.8 412.36 245.701C412.36 245.351 410.61 209.941 409.94 189.441C409.937 189.339 409.974 189.24 410.043 189.165C410.112 189.091 410.208 189.046 410.31 189.041C410.361 189.038 410.413 189.046 410.461 189.064C410.51 189.081 410.554 189.109 410.591 189.145C410.629 189.18 410.659 189.223 410.679 189.27C410.699 189.318 410.71 189.369 410.71 189.421C411.38 209.911 413.11 245.311 413.13 245.661C413.132 245.712 413.125 245.763 413.108 245.811C413.091 245.86 413.064 245.904 413.03 245.942C412.995 245.98 412.954 246.011 412.907 246.033C412.861 246.055 412.811 246.068 412.76 246.071H412.74Z" fill="#F05254"/>
</g>
</g>
<path d="M382.07 150.551C377.76 145.021 376.97 146.921 372.07 153.741C370.67 155.741 372.07 157.201 374.59 159.401C380.4 164.541 390.49 166.321 400.32 170.471C401.6 171.001 387.07 157.001 382.07 150.551Z" fill="#2C294B"/>
<path d="M415.08 141C415.08 141 413.42 137.6 411.72 133.57C410.02 129.54 410.92 129.2 412.88 126.9C414.49 125 420.79 124.42 418.13 127.23C415.85 129.64 417.21 131.82 417.98 133.97C418.75 136.12 418.3 142.6 418.3 142.6L415.08 141Z" fill="#F79C81"/>
<path d="M372.49 160.68C363.55 161.47 362.15 179.78 371.63 182.96C382.12 186.5 414.77 193.76 417.63 187.69C424.17 173.69 420.74 138.17 420.74 138.17C420.74 138.17 411.04 138.48 409.74 141.01C408.13 144.12 406.35 172.64 406.35 172.64C406.35 172.64 379 160.11 372.49 160.68Z" fill="#FAA734"/>
<mask id="mask4_215_215" style="mask-type:luminance" maskUnits="userSpaceOnUse" x="365" y="138" width="57" height="53">
<path d="M372.49 160.68C363.55 161.47 362.15 179.78 371.63 182.96C382.12 186.5 414.77 193.76 417.63 187.69C424.17 173.69 420.74 138.17 420.74 138.17C420.74 138.17 411.04 138.48 409.74 141.01C408.13 144.12 406.35 172.64 406.35 172.64C406.35 172.64 379 160.11 372.49 160.68Z" fill="white"/>
</mask>
<g mask="url(#mask4_215_215)">
<path d="M410.05 187.25C399.77 187.25 368.54 179.86 361.32 175.53C361.233 175.476 361.171 175.39 361.147 175.291C361.123 175.192 361.138 175.088 361.19 175C361.215 174.955 361.249 174.916 361.289 174.884C361.329 174.853 361.376 174.83 361.425 174.817C361.475 174.804 361.526 174.801 361.577 174.808C361.628 174.816 361.676 174.833 361.72 174.86C369.25 179.38 403.16 187.27 411.43 186.42C415.31 186.02 418.07 183.13 418.92 170.34C419.33 164.23 419.38 160.08 419.44 154.83C419.44 151.22 419.52 147.13 419.69 141.57C419.691 141.519 419.703 141.469 419.724 141.423C419.745 141.376 419.775 141.335 419.812 141.3C419.849 141.266 419.893 141.239 419.941 141.222C419.989 141.205 420.039 141.197 420.09 141.2C420.141 141.201 420.192 141.212 420.239 141.233C420.285 141.254 420.328 141.284 420.363 141.321C420.398 141.358 420.426 141.402 420.444 141.45C420.463 141.498 420.471 141.549 420.47 141.6C420.29 147.14 420.25 151.23 420.21 154.84C420.15 160.1 420.1 164.26 419.69 170.39C418.8 183.72 415.77 186.75 411.51 187.19C411.08 187.23 410.6 187.25 410.05 187.25Z" fill="#F05254"/>
<path d="M409.26 183C405.94 183 379.99 177.54 369.03 174.51L368.34 174.32C366.377 173.871 364.471 173.2 362.66 172.32C362.616 172.296 362.576 172.264 362.544 172.225C362.512 172.186 362.487 172.141 362.473 172.093C362.458 172.045 362.453 171.994 362.457 171.944C362.462 171.893 362.477 171.844 362.5 171.8C362.524 171.755 362.556 171.716 362.595 171.683C362.634 171.651 362.679 171.627 362.727 171.612C362.775 171.597 362.826 171.592 362.876 171.597C362.927 171.601 362.976 171.616 363.02 171.64C364.785 172.487 366.635 173.14 368.54 173.59L369.23 173.78C380.97 177.02 407.23 182.43 409.37 182.23C412.87 181.89 413.71 181.8 415.45 167.85C416.45 159.85 417.56 140.07 417.57 139.85C417.561 139.794 417.564 139.737 417.58 139.683C417.595 139.628 417.622 139.578 417.658 139.535C417.695 139.492 417.74 139.457 417.792 139.433C417.843 139.41 417.899 139.397 417.955 139.397C418.012 139.397 418.068 139.41 418.119 139.433C418.17 139.457 418.216 139.492 418.252 139.535C418.289 139.578 418.316 139.628 418.331 139.683C418.346 139.737 418.349 139.794 418.34 139.85C418.34 140.05 417.22 159.85 416.22 167.85C414.52 181.42 413.71 182.48 409.44 182.85L409.26 183Z" fill="#F05254"/>
<path d="M406.58 178.819C403.02 178.819 396.58 177.169 387.93 174.819L384.66 173.929C375.81 171.529 361.66 167.639 361.66 167.639L361.86 166.899C361.86 166.899 376.01 170.789 384.86 173.179L388.13 174.069C396.98 176.499 408 179.519 408.95 177.349C411.74 171.019 413.35 156.149 414.68 141.039C414.677 140.984 414.685 140.928 414.705 140.876C414.725 140.824 414.756 140.776 414.796 140.737C414.835 140.698 414.883 140.668 414.936 140.649C414.988 140.629 415.044 140.622 415.1 140.626C415.155 140.631 415.209 140.647 415.258 140.674C415.307 140.701 415.35 140.738 415.383 140.783C415.416 140.828 415.439 140.879 415.451 140.934C415.462 140.988 415.462 141.045 415.45 141.099C414.12 156.289 412.45 171.229 409.66 177.659C409.3 178.459 408.25 178.819 406.58 178.819Z" fill="#F05254"/>
<path d="M404.73 174.869C401.89 174.689 399.083 174.165 396.37 173.309C389.84 171.389 383.42 168.979 377.22 166.639C373.22 165.159 369.22 163.639 365.11 162.229C365.055 162.219 365.003 162.197 364.957 162.165C364.911 162.133 364.873 162.091 364.844 162.043C364.816 161.994 364.799 161.94 364.793 161.885C364.787 161.829 364.794 161.772 364.812 161.719C364.83 161.666 364.86 161.618 364.898 161.577C364.937 161.537 364.984 161.505 365.036 161.484C365.088 161.463 365.143 161.454 365.199 161.456C365.255 161.459 365.31 161.474 365.36 161.499C369.44 162.899 373.53 164.429 377.49 165.919C383.68 168.249 390.09 170.659 396.59 172.569C401.29 173.939 406.49 174.719 406.87 173.459C406.98 173.099 407.11 172.759 407.24 172.409C407.472 171.867 407.64 171.3 407.74 170.719L408.04 168.659C408.97 162.149 411.44 144.869 411.2 140.839C411.196 140.789 411.202 140.738 411.218 140.689C411.234 140.641 411.26 140.596 411.293 140.558C411.327 140.52 411.368 140.489 411.413 140.467C411.459 140.445 411.509 140.432 411.56 140.429C411.662 140.424 411.762 140.458 411.838 140.526C411.915 140.593 411.962 140.688 411.97 140.789C412.21 144.899 409.82 161.629 408.8 168.789L408.51 170.849C408.397 171.488 408.212 172.112 407.96 172.709C407.84 173.039 407.71 173.359 407.61 173.709C407.35 174.559 406.22 174.869 404.73 174.869Z" fill="#F05254"/>
</g>
<path d="M405.42 214.251C405.42 214.546 405.332 214.834 405.168 215.08C405.004 215.325 404.771 215.516 404.498 215.628C404.225 215.741 403.925 215.77 403.636 215.711C403.346 215.653 403.081 215.51 402.873 215.301C402.665 215.091 402.524 214.825 402.467 214.535C402.411 214.246 402.442 213.946 402.556 213.674C402.671 213.402 402.863 213.17 403.109 213.007C403.356 212.845 403.645 212.759 403.94 212.761C404.135 212.761 404.328 212.799 404.509 212.874C404.689 212.949 404.852 213.059 404.99 213.198C405.128 213.336 405.236 213.501 405.31 213.681C405.384 213.862 405.421 214.056 405.42 214.251Z" fill="#2C294B"/>
<path d="M404.9 198.32C404.9 198.615 404.813 198.903 404.649 199.148C404.485 199.393 404.252 199.584 403.98 199.697C403.708 199.809 403.408 199.839 403.119 199.781C402.83 199.724 402.565 199.582 402.356 199.374C402.148 199.165 402.006 198.9 401.949 198.611C401.891 198.322 401.921 198.022 402.033 197.75C402.146 197.478 402.337 197.245 402.582 197.081C402.827 196.917 403.115 196.83 403.41 196.83C403.805 196.83 404.184 196.987 404.464 197.266C404.743 197.546 404.9 197.925 404.9 198.32Z" fill="#2C294B"/>
<path d="M408.49 144.58H421.27C421.376 144.58 421.478 144.538 421.553 144.463C421.628 144.388 421.67 144.287 421.67 144.18V137.47C421.67 137.415 421.659 137.361 421.637 137.31C421.615 137.26 421.583 137.214 421.542 137.176C421.502 137.139 421.454 137.11 421.402 137.092C421.35 137.074 421.295 137.066 421.24 137.07L409.36 138.07C409.272 138.078 409.189 138.114 409.124 138.174C409.059 138.234 409.015 138.313 409 138.4L408.1 144.1C408.088 144.158 408.089 144.218 408.103 144.276C408.117 144.333 408.144 144.387 408.181 144.433C408.219 144.479 408.266 144.516 408.319 144.541C408.372 144.567 408.431 144.58 408.49 144.58Z" fill="#2C294B"/>
<path d="M443.41 142.85L433.41 142.25C433.322 142.244 433.236 142.218 433.158 142.176C433.081 142.133 433.014 142.074 432.961 142.002C432.909 141.931 432.873 141.849 432.855 141.762C432.838 141.676 432.839 141.586 432.86 141.5L434.08 136.57C434.113 136.429 434.196 136.305 434.314 136.22C434.431 136.136 434.576 136.097 434.72 136.11L444.17 137.01C444.251 137.017 444.329 137.041 444.401 137.08C444.472 137.118 444.535 137.171 444.585 137.234C444.636 137.298 444.673 137.371 444.694 137.449C444.716 137.528 444.721 137.61 444.71 137.69L444.08 142.34C444.07 142.418 444.045 142.493 444.006 142.561C443.967 142.629 443.914 142.688 443.852 142.736C443.79 142.783 443.718 142.818 443.642 142.837C443.567 142.857 443.487 142.861 443.41 142.85Z" fill="#2C294B"/>
<path d="M384 142C383.769 141.987 383.545 141.917 383.348 141.797C383.151 141.677 382.987 141.509 382.87 141.31C382.469 140.629 382.212 139.873 382.116 139.088C382.019 138.304 382.085 137.508 382.31 136.75C382.52 136.15 382.88 135.99 383.14 135.96C384.14 135.85 385.31 137.61 385.64 138.15C385.668 138.193 385.686 138.24 385.695 138.29C385.704 138.34 385.703 138.391 385.692 138.44C385.68 138.49 385.659 138.536 385.63 138.577C385.601 138.619 385.563 138.653 385.52 138.68C385.433 138.733 385.33 138.75 385.231 138.728C385.132 138.705 385.045 138.645 384.99 138.56C384.43 137.66 383.58 136.69 383.23 136.73C383.17 136.73 383.1 136.85 383.04 137.01C382.856 137.65 382.803 138.32 382.882 138.981C382.961 139.643 383.171 140.281 383.5 140.86C383.6 141 383.79 141.22 384 141.22C384.21 141.22 384 140.11 383.54 139.15C383.495 139.057 383.489 138.95 383.523 138.853C383.556 138.755 383.627 138.675 383.72 138.63C383.813 138.588 383.919 138.583 384.016 138.616C384.113 138.65 384.193 138.719 384.24 138.81C384.46 139.29 385.18 140.89 384.72 141.62C384.643 141.741 384.537 141.839 384.411 141.906C384.284 141.972 384.143 142.005 384 142Z" fill="#2C2B2A"/>
<path d="M398.8 132.791C398.8 132.976 398.745 133.158 398.642 133.313C398.538 133.467 398.391 133.588 398.22 133.659C398.048 133.73 397.859 133.749 397.677 133.713C397.494 133.676 397.327 133.587 397.195 133.455C397.064 133.324 396.974 133.156 396.938 132.974C396.902 132.792 396.92 132.603 396.991 132.431C397.063 132.259 397.183 132.112 397.338 132.009C397.492 131.906 397.674 131.851 397.86 131.851C398.109 131.851 398.348 131.95 398.525 132.126C398.701 132.302 398.8 132.541 398.8 132.791Z" fill="#2C2B2A"/>
<path d="M393.65 132.07C393.54 132.071 393.432 132.048 393.332 132.003C393.232 131.958 393.143 131.892 393.07 131.81C392.936 131.657 392.866 131.457 392.878 131.253C392.889 131.049 392.98 130.858 393.13 130.72L395 129C395.668 128.41 396.528 128.083 397.42 128.08H399.66C399.864 128.08 400.06 128.161 400.205 128.306C400.349 128.45 400.43 128.646 400.43 128.85C400.43 129.054 400.349 129.25 400.205 129.395C400.06 129.539 399.864 129.62 399.66 129.62H397.42C396.905 129.622 396.408 129.811 396.02 130.15L394.12 131.84C393.995 131.969 393.829 132.05 393.65 132.07Z" fill="#2C2B2A"/>
<path d="M404.56 144.401C401.41 143.941 396.69 140.471 401.56 141.841C402.483 142.067 403.447 142.067 404.37 141.841C404.43 142.671 404.47 143.551 404.56 144.401Z" fill="white"/>
<path d="M571.54 196.61C569.985 196.604 568.442 196.886 566.99 197.44C564.858 195.772 562.217 194.886 559.51 194.93C558.905 194.93 558.3 194.97 557.7 195.05C555.903 193.1 553.457 191.87 550.82 191.59C549.82 187.9 545.65 185.15 540.68 185.15C535.71 185.15 531.62 187.87 530.56 191.52C529.09 191.618 527.654 192.01 526.338 192.673C525.022 193.336 523.853 194.257 522.9 195.38C521.812 194.977 520.644 194.834 519.491 194.963C518.338 195.092 517.231 195.489 516.258 196.123C515.286 196.757 514.476 197.609 513.893 198.613C513.31 199.616 512.97 200.742 512.9 201.9H581.2C579.75 198.81 576 196.61 571.54 196.61Z" fill="white"/>
<path d="M275.89 170.531C275.211 170.536 274.537 170.644 273.89 170.851C273.302 169.361 272.28 168.083 270.957 167.181C269.634 166.279 268.071 165.795 266.47 165.791C266.197 165.775 265.923 165.775 265.65 165.791C264.946 164.392 263.846 163.231 262.488 162.451C261.13 161.671 259.573 161.307 258.01 161.404C256.447 161.501 254.947 162.054 253.695 162.996C252.444 163.937 251.496 165.226 250.97 166.701H250.53C248.852 166.706 247.218 167.239 245.859 168.224C244.501 169.21 243.487 170.597 242.96 172.191C242.331 172.001 241.677 171.903 241.02 171.901C239.851 171.87 238.697 172.174 237.696 172.779C236.695 173.383 235.888 174.262 235.37 175.311H281.97C281.71 173.911 280.949 172.655 279.831 171.775C278.712 170.895 277.311 170.453 275.89 170.531Z" fill="white"/>
<path d="M666.85 346.401C666.171 346.407 665.497 346.515 664.85 346.721C664.262 345.233 663.242 343.956 661.921 343.054C660.6 342.152 659.039 341.667 657.44 341.661C657.167 341.645 656.893 341.645 656.62 341.661C655.915 340.262 654.816 339.101 653.458 338.321C652.1 337.541 650.543 337.177 648.98 337.274C647.417 337.371 645.916 337.925 644.665 338.866C643.414 339.808 642.466 341.096 641.94 342.571H641.5C639.822 342.576 638.188 343.109 636.829 344.094C635.471 345.08 634.456 346.467 633.93 348.061C633.3 347.875 632.647 347.78 631.99 347.781C630.821 347.748 629.668 348.05 628.667 348.653C627.665 349.256 626.858 350.133 626.34 351.181H672.93C672.67 349.781 671.909 348.525 670.79 347.645C669.672 346.766 668.271 346.323 666.85 346.401Z" fill="white"/>
<path d="M195 325.62C194.76 322.62 190.58 320.23 185.44 320.23C183.569 320.202 181.71 320.542 179.97 321.23C179.269 319.457 177.921 318.017 176.197 317.202C174.474 316.386 172.505 316.257 170.69 316.84C170.276 314.022 168.942 311.42 166.896 309.438C164.85 307.457 162.207 306.207 159.377 305.883C156.547 305.559 153.689 306.179 151.249 307.647C148.808 309.115 146.92 311.348 145.88 314C145.56 314 145.23 313.95 144.88 313.95C142.845 313.949 140.871 314.649 139.292 315.933C137.712 317.218 136.624 319.007 136.21 321C135.133 320.64 134.005 320.458 132.87 320.46C128.73 320.46 125.35 322.76 125.08 325.67L195 325.62Z" fill="white"/>
</g>
</svg>
